<?xml version="1.0" standalone="no"?>
<!DOCTYPE svg PUBLIC "-//W3C//DTD SVG 1.1//EN" "http://www.w3.org/Graphics/SVG/1.1/DTD/svg11.dtd" >
<svg xmlns="http://www.w3.org/2000/svg" xmlns:xlink="http://www.w3.org/1999/xlink" version="1.1">
<metadata></metadata>
<defs>
<font id="equity_caps_aregular" horiz-adv-x="740" >
<font-face units-per-em="1000" ascent="744" descent="-256" />
<missing-glyph horiz-adv-x="280" />
<glyph unicode="&#x3c;&#x2d;" horiz-adv-x="700" d="M74 272l237 264l61 -46l-163 -183h420v-84h-420l163 -183l-61 -47l-237 266v13z" />
<glyph unicode="&#x2d;&#x3e;" horiz-adv-x="700" d="M389 536l237 -264v-13l-237 -266l-61 47l163 183h-420v84h420l-163 183z" />
<glyph unicode="fi" horiz-adv-x="944" d="M69 518h412l14 -124h-43l-53 75h-159v-179h101l27 57h32v-167h-32l-27 63h-101v-190l75 -15v-38h-246v38l72 15v412l-72 15v38zM623 518h242v-38l-71 -15v-412l71 -15v-38h-242v38l72 15v412l-72 15v38z" />
<glyph unicode="fl" horiz-adv-x="1093" d="M69 518h412l14 -124h-43l-53 75h-159v-179h101l27 57h32v-167h-32l-27 63h-101v-190l75 -15v-38h-246v38l72 15v412l-72 15v38zM1028 0h-415v38l72 15v412l-72 15v38h246v-38l-75 -15v-416h155l67 97h43z" />
<glyph unicode="&#x28;&#x3c;&#x2d;&#x29;" horiz-adv-x="880" d="M399 536l-237 -264v-13l237 -266l61 47l-163 183h420v84h-420l163 183zM822 263q0 -157 -111.5 -268.5t-268.5 -111.5q-159 0 -271.5 111.5t-112.5 268.5q0 159 112.5 271t271.5 112q157 0 268.5 -112t111.5 -271z" />
<glyph unicode="&#x28;&#x2d;&#x3e;&#x29;" horiz-adv-x="880" d="M718 272l-237 264l-61 -46l163 -183h-420v-84h420l-163 -183l61 -47l237 266v13zM58 263q0 159 111.5 271t268.5 112q159 0 271.5 -112t112.5 -271q0 -157 -112.5 -268.5t-271.5 -111.5q-157 0 -268.5 111.5t-111.5 268.5z" />
<glyph unicode="&#x28;&#x2191;&#x29;" horiz-adv-x="880" d="M711 305l-264 237h-13l-266 -237l47 -61l183 163v-420h84v420l183 -163zM438 -118q-157 0 -268.5 111.5t-111.5 268.5q0 159 111.5 271.5t268.5 112.5q159 0 271.5 -112.5t112.5 -271.5q0 -157 -112.5 -268.5t-271.5 -111.5z" />
<glyph unicode="&#x28;&#x2193;&#x29;" horiz-adv-x="880" d="M447 -14l264 237l-46 61l-183 -163v420h-84v-420l-183 163l-47 -61l266 -237h13zM438 646q159 0 271.5 -111.5t112.5 -268.5q0 -159 -112.5 -271.5t-271.5 -112.5q-157 0 -268.5 112.5t-111.5 271.5q0 157 111.5 268.5t268.5 111.5z" />
<glyph unicode=" "  horiz-adv-x="280" />
<glyph unicode="&#x09;" horiz-adv-x="280" />
<glyph unicode="&#xa0;" horiz-adv-x="280" />
<glyph unicode="!" horiz-adv-x="423" d="M147 57q0 27 18.5 46t45.5 19t46 -19t19 -46t-19 -45.5t-46 -18.5t-45.5 18.5t-18.5 45.5zM154 548h114l-37 -358h-40z" />
<glyph unicode="&#x22;" horiz-adv-x="448" d="M83 256l18 236q2 37 15.5 55.5t41.5 12.5l23 -5q21 -5 26 -28t-8 -60l-78 -220zM262 256l18 236q2 37 15.5 55.5t41.5 12.5l23 -5q21 -5 26 -28t-8 -60l-78 -220z" />
<glyph unicode="#" horiz-adv-x="557" d="M90 473h111l44 213h60l-44 -213h100l44 213h60l-44 -213h96v-74h-111l-37 -176h98v-74h-113l-49 -236h-60l49 236h-100l-49 -236h-60l49 236h-94v74h109l37 176h-96v74zM246 399l-37 -176h100l37 176h-100z" />
<glyph unicode="$" horiz-adv-x="566" d="M309 738v-102q43 -5 97 -32l32 15h20l15 -178h-33q-37 128 -131 147v-223q90 -33 133.5 -79t43.5 -115q0 -82 -48.5 -128t-128.5 -53v-108h-45v107q-69 5 -111 39l-28 -16h-30l-15 184h39q30 -151 145 -161v247q-92 34 -133 78t-41 107q0 61 48 113t126 57v101h45z M399 139q0 41 -19.5 71.5t-70.5 54.5v-229q90 12 90 103zM176 490q0 -65 88 -107v207q-88 -8 -88 -100z" />
<glyph unicode="%" horiz-adv-x="576" d="M305 517l-3 -1q-1 -82 -44 -135.5t-100 -53.5q-48 0 -78 36t-30 91q0 74 47 129t101 55q34 0 59.5 -18.5t36.5 -51.5q6 -15 25 -24.5t42 -9.5q48 0 84 31q24 67 55 67q24 0 24 -23q0 -30 -44 -61l-210 -286l-197 -282l-33 26l205 275l159 227l-2 2q-21 -12 -48 -12 q-30 0 -49 19zM274 115q0 74 47 129t101 55q46 0 75 -32t29 -86q0 -86 -44 -139.5t-98 -53.5q-49 0 -79.5 36t-30.5 91zM439 254q-33 0 -62 -52.5t-29 -113.5q0 -28 11.5 -43.5t29.5 -15.5q34 0 62 41.5t28 120.5q0 30 -11.5 46.5t-28.5 16.5zM215 593q-33 0 -62 -52.5 t-29 -113.5q0 -59 43 -59q33 0 60.5 42.5t27.5 119.5q0 30 -11.5 46.5t-28.5 16.5z" />
<glyph unicode="&#x26;" horiz-adv-x="817" d="M496 568q0 -47 -35.5 -82.5t-98.5 -71.5q95 -86 160 -181q41 63 82 154l-71 15v36h194v-36l-70 -15q-56 -115 -109 -193q40 -65 71 -132q8 -18 22 -18q11 0 21 9t31 37l27 -18q-40 -84 -103 -84q-36 0 -60 35l-65 96q-109 -131 -210 -131q-74 0 -129.5 62t-55.5 141 q0 75 36 119.5t123 86.5q-70 73 -70 142q0 44 59 96t111 52q48 0 94 -43t46 -76zM282 372h-1q-90 -47 -90 -132q0 -84 45 -130.5t91 -46.5q60 0 139 94q-90 130 -184 215zM261 562q0 -48 73 -121q77 55 77 116q0 33 -20.5 60t-45.5 27q-27 0 -55.5 -26.5t-28.5 -55.5z" />
<glyph unicode="'" horiz-adv-x="269" d="M83 256l18 236q2 37 15.5 55.5t41.5 12.5l23 -5q21 -5 26 -28t-8 -60l-78 -220z" />
<glyph unicode="(" horiz-adv-x="442" d="M381 -208l-29 -34q-241 220 -241 505q0 148 63 264t177 220l30 -39q-180 -183 -180 -445q0 -301 180 -471z" />
<glyph unicode=")" horiz-adv-x="442" d="M90 -242l-29 34q180 170 180 471q0 262 -180 445l30 39q114 -104 177 -220t63 -264q0 -285 -241 -505z" />
<glyph unicode="*" horiz-adv-x="566" d="M306 373q49 -24 120 -44q35 -9 28 -40q-6 -27 -30 -36q-21 -7 -38 10q-63 66 -93 85q5 -56 25 -124q10 -32 -20 -43q-27 -9 -44 9q-13 13 -8 34q21 96 23 124q-47 -29 -93 -85q-20 -23 -46 -2q-24 19 -18 43q4 16 26 23q84 26 119 46q-51 22 -119 37q-30 5 -26 36 q4 28 27 36q18 7 35 -9q67 -60 95 -80q-7 52 -26 121q-10 34 21 45q28 9 47 -9q13 -14 7 -36q-2 -10 -9.5 -37t-11.5 -46t-6 -38q47 31 95 80q26 28 50 4q20 -21 12 -46q-7 -16 -24 -21q-9 -2 -28 -6.5t-30.5 -7.5t-28.5 -9t-31 -14z" />
<glyph unicode="+" horiz-adv-x="540" d="M472 210h-171v-171h-62v171h-171v62h171v171h62v-171h171v-62z" />
<glyph unicode="," horiz-adv-x="357" d="M107 74q0 19 16.5 35.5t45.5 16.5q41 0 68 -38t27 -100q0 -72 -40 -125.5t-89 -81.5l-28 42q84 59 84 130q0 23 -13 39t-29 24t-29 23t-13 35z" />
<glyph unicode="-" horiz-adv-x="404" d="M77 278h250v-73h-250v73z" />
<glyph unicode="." horiz-adv-x="343" d="M107 57q0 27 18.5 46t45.5 19t46 -19t19 -46t-19 -45.5t-46 -18.5t-45.5 18.5t-18.5 45.5z" />
<glyph unicode="/" horiz-adv-x="550" d="M463 614l-300 -736h-76l300 736h76z" />
<glyph unicode="0" horiz-adv-x="545" d="M50 298q0 167 64.5 253.5t164.5 86.5q96 0 156 -87t60 -253q0 -152 -60 -231t-156 -79q-101 0 -165 78.5t-64 231.5zM155 299q0 -140 35 -204t89 -64q49 0 80.5 65t31.5 203q0 150 -31.5 223t-80.5 73q-53 0 -88.5 -76t-35.5 -220z" />
<glyph unicode="1" horiz-adv-x="427" d="M55 542v42q93 2 170 50l50 -5v-574l103 -15v-40h-300v40l103 15v492q-75 -18 -126 -5z" />
<glyph unicode="2" horiz-adv-x="524" d="M345 462q0 39 -25 67t-67 28q-40 0 -74 -24t-86 -81l-30 32q111 154 226 154q73 0 114 -41.5t41 -103.5q0 -76 -85.5 -194.5t-168.5 -194.5l6 -14h211l45 63l33 -13l-56 -140h-371l-12 32q43 34 90.5 82.5t96.5 108t80.5 124t31.5 115.5z" />
<glyph unicode="3" horiz-adv-x="473" d="M396 526q0 -47 -34 -88t-80 -70v-10q55 -14 96 -66t41 -116q0 -87 -65.5 -137.5t-143.5 -50.5q-81 0 -127 26t-46 68q0 19 13.5 34t38.5 15q23 0 41 -14.5t29 -32.5t30 -32.5t44 -14.5q35 0 64.5 29.5t29.5 83.5q0 49 -27.5 87.5t-58 53.5t-46.5 7l-36 -20l-23 35 q77 39 124 85.5t47 92.5q0 35 -20.5 53t-55.5 18q-82 0 -146 -87l-28 30q97 133 220 133q50 0 84.5 -31t34.5 -81z" />
<glyph unicode="4" horiz-adv-x="524" d="M361 646l44 -17v-377h81v-67h-81v-185h-93v184h-249l-16 37zM312 488l-11 6l-167 -232l5 -10h173v236z" />
<glyph unicode="5" horiz-adv-x="476" d="M89 337l28 289h240l26 39h39l-23 -129h-241l-11 -122l8 -8q21 8 65 8q77 0 137 -54t60 -145q0 -103 -72.5 -165t-189.5 -62q-48 0 -81.5 18t-33.5 46q0 22 13 36t38 14q30 0 71.5 -26t80.5 -26q37 0 64.5 32t27.5 93q0 70 -42.5 112.5t-106.5 42.5q-48 0 -79 -11z" />
<glyph unicode="6" horiz-adv-x="505" d="M167 368l16 -8q45 38 115 38q62 0 113.5 -48.5t51.5 -142.5q0 -39 -11.5 -76t-35.5 -70t-66.5 -53t-98.5 -20q-88 0 -143.5 68t-55.5 192q0 137 89.5 255t240.5 168l10 -35q-194 -97 -225 -268zM161 278q-7 -31 -7 -83q0 -70 29 -114t72 -44q50 0 78 47.5t28 126.5 q0 67 -27.5 101t-68.5 34q-70 0 -104 -68z" />
<glyph unicode="7" horiz-adv-x="471" d="M422 626l19 -26q-167 -357 -217 -575q-9 -37 -65 -37q-25 0 -39 10t-7 28q87 243 247 496l-7 14h-242l-32 -78h-45l46 168h342z" />
<glyph unicode="8" horiz-adv-x="524" d="M67 141q0 59 32 96t87 67v9q-48 25 -75 66.5t-27 87.5q0 70 51 120.5t136 50.5q75 0 124.5 -40t49.5 -103q0 -44 -26 -79t-81 -70v-8q56 -32 87.5 -69.5t31.5 -99.5q0 -83 -54.5 -132t-144.5 -49q-84 0 -137.5 42t-53.5 111zM143 139q0 -48 28.5 -78t86.5 -30 q54 0 86.5 31.5t32.5 82.5q0 46 -34.5 76.5t-103.5 63.5q-43 -21 -69.5 -59.5t-26.5 -86.5zM163 499q0 -47 32.5 -78.5t94.5 -56.5q74 47 74 128q0 48 -27.5 75.5t-72.5 27.5q-47 0 -74 -28.5t-27 -67.5z" />
<glyph unicode="9" horiz-adv-x="505" d="M343 251l-16 8q-49 -41 -105 -41q-74 0 -127 53.5t-53 147.5q0 101 64 160t143 59q91 0 147.5 -70.5t56.5 -189.5q0 -161 -98 -280t-258 -138v40q97 22 166 87.5t80 163.5zM344 341q11 46 11 100q0 69 -28 110t-82 41q-48 0 -74 -42.5t-26 -124.5q0 -156 100 -156 q32 0 55 18t44 54z" />
<glyph unicode=":" horiz-adv-x="343" d="M107 57q0 27 18.5 46t45.5 19t46 -19t19 -46t-19 -45.5t-46 -18.5t-45.5 18.5t-18.5 45.5zM107 368q0 27 18.5 46t45.5 19t46 -19t19 -46t-19 -45.5t-46 -18.5t-45.5 18.5t-18.5 45.5z" />
<glyph unicode=";" horiz-adv-x="397" d="M127 74q0 19 16.5 35.5t45.5 16.5q41 0 68 -38t27 -100q0 -72 -40 -125.5t-89 -81.5l-28 42q84 59 84 130q0 23 -13 39t-29 24t-29 23t-13 35zM132 368q0 27 18.5 46t45.5 19t46 -19t19 -46t-19 -45.5t-46 -18.5t-45.5 18.5t-18.5 45.5z" />
<glyph unicode="&#x3c;" horiz-adv-x="540" d="M472 375l-328 -134l328 -134v-67l-404 170v62l404 170v-67z" />
<glyph unicode="=" horiz-adv-x="540" d="M472 137h-404v62h404v-62zM472 287h-404v62h404v-62z" />
<glyph unicode="&#x3e;" horiz-adv-x="540" d="M396 241l-328 134v67l404 -170v-62l-404 -170v67z" />
<glyph unicode="?" horiz-adv-x="477" d="M125 57q0 27 18.5 46t45.5 19t46 -19t19 -46t-19 -45.5t-46 -18.5t-45.5 18.5t-18.5 45.5zM167 190v135q168 2 168 71t-134 69q-68 0 -68 41q0 20 16.5 33.5t46.5 13.5q67 0 123.5 -44.5t56.5 -113.5q0 -70 -48.5 -107.5t-117.5 -41.5v-56h-43z" />
<glyph unicode="@" horiz-adv-x="906" d="M744 390q0 35 -9 71.5t-29.5 75t-62.5 63t-99 24.5q-96 0 -181 -72.5t-133.5 -185.5t-48.5 -230q0 -118 43.5 -177t122.5 -59q89 0 167 63l21 -42q-44 -35 -97.5 -54.5t-99.5 -19.5q-114 0 -172.5 76t-58.5 214q0 92 35 187t93 171t141 124.5t171 48.5q123 0 195.5 -76.5 t72.5 -201.5q0 -84 -32.5 -154.5t-80 -111.5t-95.5 -63.5t-85 -22.5q-34 0 -37.5 34t22.5 93l-13 9q-19 -28 -34.5 -47t-38 -42.5t-47 -36t-48.5 -12.5q-29 0 -45 24.5t-16 56.5q0 82 59 183q46 77 106.5 128.5t115.5 51.5q29 0 42 -28h5q6 16 13.5 21.5t27.5 5.5t27 -4 t4 -12l-108 -331q-7 -31 13 -31q18 0 46 20t57 54t50 92t21 123zM345 150q0 -44 24 -44q34 0 93.5 79t102.5 182q9 70 -29 70q-33 0 -70.5 -34.5t-67.5 -87.5q-53 -94 -53 -165z" />
<glyph unicode="A" horiz-adv-x="630" d="M428 53l-45 117h-178l-42 -107l80 -25v-38h-206v38l68 25l184 455h61l183 -465l60 -15v-38h-232v38zM292 386l-68 -169h141l-65 169h-8z" />
<glyph unicode="B" horiz-adv-x="590" d="M330 0h-261v38l72 15v412l-72 15v38h271q24 0 48.5 -5.5t50 -18t41.5 -37.5t16 -58q0 -38 -23 -72t-72 -49v-11q53 -9 86.5 -44t33.5 -84q0 -63 -52.5 -101t-138.5 -38zM415 146q0 41 -29.5 69t-86.5 28h-59v-190h76q48 0 73.5 26t25.5 67zM240 465v-175h60q90 0 90 92 q0 44 -25.5 63.5t-62.5 19.5h-62z" />
<glyph unicode="C" horiz-adv-x="632" d="M349 41q121 0 161 125h38v-117q-98 -62 -203 -62q-118 0 -197 72t-79 197q0 122 79.5 196.5t196.5 74.5q91 0 196 -56v-121h-38q-46 127 -158 127q-70 0 -118 -60t-48 -160q0 -93 53.5 -154.5t116.5 -61.5z" />
<glyph unicode="D" horiz-adv-x="666" d="M299 0h-230v38l72 15v412l-72 15v38h239q135 0 212 -69.5t77 -192.5q0 -121 -83 -188.5t-215 -67.5zM240 53h59q84 0 138 50t54 154q0 99 -52 153.5t-132 54.5h-67v-412z" />
<glyph unicode="E" horiz-adv-x="577" d="M240 49h182l58 89h43l-21 -138h-433v38l72 15v412l-72 15v38h407l13 -124h-42l-52 75h-155v-179h96l27 57h32v-167h-32l-27 63h-96v-194z" />
<glyph unicode="F" horiz-adv-x="544" d="M69 518h412l14 -124h-43l-53 75h-159v-179h101l27 57h32v-167h-32l-27 63h-101v-190l75 -15v-38h-246v38l72 15v412l-72 15v38z" />
<glyph unicode="G" horiz-adv-x="654" d="M343 41q66 0 104 30v130l-87 19v38h248v-38l-62 -15v-163q-93 -55 -203 -55q-115 0 -194.5 72t-79.5 197q0 122 79.5 196.5t196.5 74.5q91 0 196 -56v-121h-38q-46 127 -158 127q-71 0 -118.5 -57.5t-47.5 -162.5q0 -97 47.5 -156.5t116.5 -59.5z" />
<glyph unicode="H" horiz-adv-x="732" d="M420 518h243v-38l-72 -15v-412l72 -15v-38h-243v38l72 15v190h-252v-190l71 -15v-38h-242v38l72 15v412l-72 15v38h242v-38l-71 -15v-175h252v175l-72 15v38z" />
<glyph unicode="I" horiz-adv-x="400" d="M79 518h242v-38l-71 -15v-412l71 -15v-38h-242v38l72 15v412l-72 15v38z" />
<glyph unicode="J" horiz-adv-x="411" d="M172 -51v516l-77 15v38h247v-38l-71 -15v-428q0 -90 -62.5 -160.5t-129.5 -70.5q-35 0 -57 14.5t-22 43.5q0 23 13 36t33 13q17 0 37 -15.5t35 -15.5q54 0 54 67z" />
<glyph unicode="K" horiz-adv-x="640" d="M256 248h-16v-195l66 -15v-38h-237v38l72 15v412l-72 15v38h242v-38l-71 -15v-175h19l176 170l-63 20v38h207v-38l-75 -20l-170 -162l210 -248l57 -12v-38h-237v38l56 15z" />
<glyph unicode="L" horiz-adv-x="549" d="M484 0h-415v38l72 15v412l-72 15v38h246v-38l-75 -15v-416h155l67 97h43z" />
<glyph unicode="M" horiz-adv-x="821" d="M577 378h-12l-162 -379h-34l-150 379h-11l-31 -315l70 -25v-38h-193v38l69 25l40 402l-80 15v38h178l144 -360h12l159 360h170v-38l-81 -15l29 -412l73 -15v-38h-242v38l73 15z" />
<glyph unicode="N" horiz-adv-x="693" d="M498 177h12v278l-82 25v38h208v-38l-71 -25v-462h-30l-340 400h-12v-330l82 -25v-38h-201v38l64 25v402l-64 15v38h143z" />
<glyph unicode="O" horiz-adv-x="678" d="M69 256q0 122 78 196.5t193 74.5q119 0 194 -73.5t75 -197.5q0 -128 -76.5 -198.5t-192.5 -70.5t-193.5 72t-77.5 197zM179 257q0 -101 46.5 -158.5t114.5 -57.5q70 0 115 52.5t45 163.5q0 105 -45 162.5t-115 57.5q-69 0 -115 -58t-46 -162z" />
<glyph unicode="P" horiz-adv-x="561" d="M305 213h-65v-160l80 -15v-38h-251v38l72 15v412l-72 15v38h256q71 0 126.5 -37.5t55.5 -111.5q0 -72 -54 -114t-148 -42zM240 465v-205h73q38 0 65 29t27 75q0 49 -26 75t-68 26h-71z" />
<glyph unicode="Q" horiz-adv-x="678" d="M69 256q0 122 78 196.5t193 74.5q119 0 194 -73.5t75 -197.5q0 -100 -48.5 -166t-129.5 -90q8 -7 36 -30.5t39.5 -32.5t34 -23.5t41 -20t38.5 -5.5q59 0 99 21l11 -30q-73 -46 -146 -46q-43 0 -88 19t-71.5 38t-68.5 55t-55 45q-102 12 -167 81.5t-65 184.5zM179 257 q0 -101 46.5 -158.5t114.5 -57.5q70 0 115 52.5t45 163.5q0 105 -45 162.5t-115 57.5q-69 0 -115 -58t-46 -162z" />
<glyph unicode="R" horiz-adv-x="621" d="M384 253v-9q23 -11 48 -49t52.5 -81t52.5 -61l45 -15v-38h-120q-26 17 -52 53t-44 70t-43.5 66.5t-52.5 42.5h-30v-179l71 -15v-38h-242v38l72 15v412l-72 15v38h271q25 0 50.5 -6t52.5 -20t44 -42.5t17 -67.5q0 -45 -32 -82t-88 -47zM240 465v-186h55q51 0 78 31t27 69 q0 44 -21.5 65t-54.5 21h-84z" />
<glyph unicode="S" horiz-adv-x="543" d="M90 2v172h48q15 -67 49 -102.5t85 -35.5q39 0 63.5 22.5t24.5 57.5q0 34 -22 57t-88 51q-76 33 -112 69.5t-36 88.5q0 56 45 100.5t119 44.5q37 0 96 -24l36 15h26l18 -157h-47q-18 58 -51 87t-74 29q-36 0 -57.5 -19.5t-21.5 -54.5q0 -31 27.5 -52.5t94.5 -47.5 q69 -27 102.5 -64t33.5 -95q0 -75 -49.5 -116t-127.5 -41q-57 0 -101 30l-43 -15h-38z" />
<glyph unicode="T" horiz-adv-x="599" d="M63 518h473l24 -146h-43l-66 99h-102v-418l75 -15v-38h-249v38l75 15v418h-102l-67 -99h-42z" />
<glyph unicode="U" horiz-adv-x="661" d="M409 518h203v-38l-66 -25v-254q0 -37 -12.5 -73.5t-37 -68.5t-67.5 -52t-98 -20q-95 0 -152.5 59t-57.5 132v287l-72 15v38h242v-38l-71 -15v-275q0 -63 34 -103.5t94 -40.5q63 0 102.5 43.5t39.5 125.5v240l-81 25v38z" />
<glyph unicode="V" horiz-adv-x="630" d="M338 134l132 321l-81 25v38h202v-38l-63 -25l-186 -455h-59l-185 465l-59 15v38h233v-38l-71 -15l129 -331h8z" />
<glyph unicode="W" horiz-adv-x="851" d="M525 0l-106 318l-108 -318h-59l-153 465l-60 15v38h227v-38l-67 -15l99 -305h13l85 229l-25 76l-51 15v38h218v-38l-67 -15l100 -305h13l106 295l-81 25v38h203v-38l-64 -25l-167 -455h-56z" />
<glyph unicode="X" horiz-adv-x="644" d="M133 63l143 181l-162 221l-60 15v38h255v-38l-82 -15l108 -147l108 137l-69 25v38h216v-38l-80 -25l-143 -181l163 -221l60 -15v-38h-255v38l82 15l-108 147l-108 -137l69 -25v-38h-216v38z" />
<glyph unicode="Y" horiz-adv-x="603" d="M332 276l108 179l-79 25v38h203v-38l-65 -25l-148 -246v-156l72 -15v-38h-243v38l72 15v156l-151 256l-62 15v38h232v-38l-61 -15l108 -189h14z" />
<glyph unicode="Z" horiz-adv-x="583" d="M493 0h-423l-10 20l312 437l-6 12h-186l-66 -107h-43l30 156h411l10 -15l-320 -444l5 -10h205l68 107h43z" />
<glyph unicode="[" horiz-adv-x="425" d="M350 738v-48q-76 -15 -150 -5v-852q68 6 156 -6v-51q-40 6 -111.5 6.5t-122.5 -5.5v960q51 -5 123 -5t105 6z" />
<glyph unicode="\" horiz-adv-x="550" d="M387 -122l-300 736h76l300 -736h-76z" />
<glyph unicode="]" horiz-adv-x="425" d="M75 690v48q33 -6 105 -6t123 5v-960q-51 6 -122.5 5.5t-111.5 -6.5v51q88 12 156 6v852q-74 -10 -150 5z" />
<glyph unicode="^" horiz-adv-x="540" d="M284 691l221 -377l-58 -33l-172 300h-8l-175 -300l-57 33l222 377h27z" />
<glyph unicode="_" horiz-adv-x="604" d="M-3 -190h610v-42h-610v42z" />
<glyph unicode="`" horiz-adv-x="500" d="M310 496v-8h-51l-129 162v10h94z" />
<glyph unicode="a" horiz-adv-x="630" d="M428 53l-45 117h-178l-42 -107l80 -25v-38h-206v38l68 25l184 455h61l183 -465l60 -15v-38h-232v38zM292 386l-68 -169h141l-65 169h-8z" />
<glyph unicode="b" horiz-adv-x="590" d="M330 0h-261v38l72 15v412l-72 15v38h271q24 0 48.5 -5.5t50 -18t41.5 -37.5t16 -58q0 -38 -23 -72t-72 -49v-11q53 -9 86.5 -44t33.5 -84q0 -63 -52.5 -101t-138.5 -38zM415 146q0 41 -29.5 69t-86.5 28h-59v-190h76q48 0 73.5 26t25.5 67zM240 465v-175h60q90 0 90 92 q0 44 -25.5 63.5t-62.5 19.5h-62z" />
<glyph unicode="c" horiz-adv-x="632" d="M349 41q121 0 161 125h38v-117q-98 -62 -203 -62q-118 0 -197 72t-79 197q0 122 79.5 196.5t196.5 74.5q91 0 196 -56v-121h-38q-46 127 -158 127q-70 0 -118 -60t-48 -160q0 -93 53.5 -154.5t116.5 -61.5z" />
<glyph unicode="d" horiz-adv-x="666" d="M299 0h-230v38l72 15v412l-72 15v38h239q135 0 212 -69.5t77 -192.5q0 -121 -83 -188.5t-215 -67.5zM240 53h59q84 0 138 50t54 154q0 99 -52 153.5t-132 54.5h-67v-412z" />
<glyph unicode="e" horiz-adv-x="577" d="M240 49h182l58 89h43l-21 -138h-433v38l72 15v412l-72 15v38h407l13 -124h-42l-52 75h-155v-179h96l27 57h32v-167h-32l-27 63h-96v-194z" />
<glyph unicode="f" horiz-adv-x="544" d="M69 518h412l14 -124h-43l-53 75h-159v-179h101l27 57h32v-167h-32l-27 63h-101v-190l75 -15v-38h-246v38l72 15v412l-72 15v38z" />
<glyph unicode="g" horiz-adv-x="654" d="M343 41q66 0 104 30v130l-87 19v38h248v-38l-62 -15v-163q-93 -55 -203 -55q-115 0 -194.5 72t-79.5 197q0 122 79.5 196.5t196.5 74.5q91 0 196 -56v-121h-38q-46 127 -158 127q-71 0 -118.5 -57.5t-47.5 -162.5q0 -97 47.5 -156.5t116.5 -59.5z" />
<glyph unicode="h" horiz-adv-x="732" d="M420 518h243v-38l-72 -15v-412l72 -15v-38h-243v38l72 15v190h-252v-190l71 -15v-38h-242v38l72 15v412l-72 15v38h242v-38l-71 -15v-175h252v175l-72 15v38z" />
<glyph unicode="i" horiz-adv-x="400" d="M79 518h242v-38l-71 -15v-412l71 -15v-38h-242v38l72 15v412l-72 15v38z" />
<glyph unicode="j" horiz-adv-x="411" d="M172 -51v516l-77 15v38h247v-38l-71 -15v-428q0 -90 -62.5 -160.5t-129.5 -70.5q-35 0 -57 14.5t-22 43.5q0 23 13 36t33 13q17 0 37 -15.5t35 -15.5q54 0 54 67z" />
<glyph unicode="k" horiz-adv-x="640" d="M256 248h-16v-195l66 -15v-38h-237v38l72 15v412l-72 15v38h242v-38l-71 -15v-175h19l176 170l-63 20v38h207v-38l-75 -20l-170 -162l210 -248l57 -12v-38h-237v38l56 15z" />
<glyph unicode="l" horiz-adv-x="549" d="M484 0h-415v38l72 15v412l-72 15v38h246v-38l-75 -15v-416h155l67 97h43z" />
<glyph unicode="m" horiz-adv-x="821" d="M577 378h-12l-162 -379h-34l-150 379h-11l-31 -315l70 -25v-38h-193v38l69 25l40 402l-80 15v38h178l144 -360h12l159 360h170v-38l-81 -15l29 -412l73 -15v-38h-242v38l73 15z" />
<glyph unicode="n" horiz-adv-x="693" d="M498 177h12v278l-82 25v38h208v-38l-71 -25v-462h-30l-340 400h-12v-330l82 -25v-38h-201v38l64 25v402l-64 15v38h143z" />
<glyph unicode="o" horiz-adv-x="678" d="M69 256q0 122 78 196.5t193 74.5q119 0 194 -73.5t75 -197.5q0 -128 -76.5 -198.5t-192.5 -70.5t-193.5 72t-77.5 197zM179 257q0 -101 46.5 -158.5t114.5 -57.5q70 0 115 52.5t45 163.5q0 105 -45 162.5t-115 57.5q-69 0 -115 -58t-46 -162z" />
<glyph unicode="p" horiz-adv-x="561" d="M305 213h-65v-160l80 -15v-38h-251v38l72 15v412l-72 15v38h256q71 0 126.5 -37.5t55.5 -111.5q0 -72 -54 -114t-148 -42zM240 465v-205h73q38 0 65 29t27 75q0 49 -26 75t-68 26h-71z" />
<glyph unicode="q" horiz-adv-x="678" d="M69 256q0 122 78 196.5t193 74.5q119 0 194 -73.5t75 -197.5q0 -100 -48.5 -166t-129.5 -90q8 -7 36 -30.5t39.5 -32.5t34 -23.5t41 -20t38.5 -5.5q59 0 99 21l11 -30q-73 -46 -146 -46q-43 0 -88 19t-71.5 38t-68.5 55t-55 45q-102 12 -167 81.5t-65 184.5zM179 257 q0 -101 46.5 -158.5t114.5 -57.5q70 0 115 52.5t45 163.5q0 105 -45 162.5t-115 57.5q-69 0 -115 -58t-46 -162z" />
<glyph unicode="r" horiz-adv-x="621" d="M384 253v-9q23 -11 48 -49t52.5 -81t52.5 -61l45 -15v-38h-120q-26 17 -52 53t-44 70t-43.5 66.5t-52.5 42.5h-30v-179l71 -15v-38h-242v38l72 15v412l-72 15v38h271q25 0 50.5 -6t52.5 -20t44 -42.5t17 -67.5q0 -45 -32 -82t-88 -47zM240 465v-186h55q51 0 78 31t27 69 q0 44 -21.5 65t-54.5 21h-84z" />
<glyph unicode="s" horiz-adv-x="543" d="M90 2v172h48q15 -67 49 -102.5t85 -35.5q39 0 63.5 22.5t24.5 57.5q0 34 -22 57t-88 51q-76 33 -112 69.5t-36 88.5q0 56 45 100.5t119 44.5q37 0 96 -24l36 15h26l18 -157h-47q-18 58 -51 87t-74 29q-36 0 -57.5 -19.5t-21.5 -54.5q0 -31 27.5 -52.5t94.5 -47.5 q69 -27 102.5 -64t33.5 -95q0 -75 -49.5 -116t-127.5 -41q-57 0 -101 30l-43 -15h-38z" />
<glyph unicode="t" horiz-adv-x="599" d="M63 518h473l24 -146h-43l-66 99h-102v-418l75 -15v-38h-249v38l75 15v418h-102l-67 -99h-42z" />
<glyph unicode="u" horiz-adv-x="661" d="M409 518h203v-38l-66 -25v-254q0 -37 -12.5 -73.5t-37 -68.5t-67.5 -52t-98 -20q-95 0 -152.5 59t-57.5 132v287l-72 15v38h242v-38l-71 -15v-275q0 -63 34 -103.5t94 -40.5q63 0 102.5 43.5t39.5 125.5v240l-81 25v38z" />
<glyph unicode="v" horiz-adv-x="630" d="M338 134l132 321l-81 25v38h202v-38l-63 -25l-186 -455h-59l-185 465l-59 15v38h233v-38l-71 -15l129 -331h8z" />
<glyph unicode="w" horiz-adv-x="851" d="M525 0l-106 318l-108 -318h-59l-153 465l-60 15v38h227v-38l-67 -15l99 -305h13l85 229l-25 76l-51 15v38h218v-38l-67 -15l100 -305h13l106 295l-81 25v38h203v-38l-64 -25l-167 -455h-56z" />
<glyph unicode="x" horiz-adv-x="644" d="M133 63l143 181l-162 221l-60 15v38h255v-38l-82 -15l108 -147l108 137l-69 25v38h216v-38l-80 -25l-143 -181l163 -221l60 -15v-38h-255v38l82 15l-108 147l-108 -137l69 -25v-38h-216v38z" />
<glyph unicode="y" horiz-adv-x="603" d="M332 276l108 179l-79 25v38h203v-38l-65 -25l-148 -246v-156l72 -15v-38h-243v38l72 15v156l-151 256l-62 15v38h232v-38l-61 -15l108 -189h14z" />
<glyph unicode="z" horiz-adv-x="583" d="M493 0h-423l-10 20l312 437l-6 12h-186l-66 -107h-43l30 156h411l10 -15l-320 -444l5 -10h205l68 107h43z" />
<glyph unicode="{" horiz-adv-x="525" d="M172 283v-16q63 -9 107 -51.5t44 -104.5q0 -27 -22.5 -95t-22.5 -108q0 -94 156 -94v-42q-137 0 -187.5 35t-50.5 111q0 38 21.5 104t21.5 97q0 59 -43.5 90t-114.5 31v66q67 0 112.5 35t45.5 82q0 35 -20.5 93.5t-20.5 91.5q0 71 51.5 100.5t178.5 29.5v-42 q-150 0 -150 -79q0 -39 22.5 -101.5t22.5 -87.5q0 -53 -43.5 -92.5t-107.5 -52.5z" />
<glyph unicode="|" horiz-adv-x="540" d="M233 -230v980h74v-980h-74z" />
<glyph unicode="}" horiz-adv-x="525" d="M353 267v16q-64 13 -107.5 52.5t-43.5 92.5q0 25 22.5 87.5t22.5 101.5q0 79 -150 79v42q127 0 178.5 -29.5t51.5 -100.5q0 -33 -20.5 -91.5t-20.5 -93.5q0 -47 45.5 -82t112.5 -35v-66q-71 0 -114.5 -31t-43.5 -90q0 -31 21.5 -97t21.5 -104q0 -76 -50.5 -111 t-187.5 -35v42q156 0 156 94q0 40 -22.5 108t-22.5 95q0 62 44 104.5t107 51.5z" />
<glyph unicode="~" horiz-adv-x="540" d="M469 373l36 -14q-21 -62 -63.5 -109.5t-80.5 -47.5q-23 0 -105 39.5t-105 39.5q-15 0 -30 -13.5t-23.5 -27.5t-22.5 -42l-40 16q17 53 61 106t71 53q30 0 107.5 -40t106.5 -40q24 0 50.5 25t37.5 55z" />
<glyph unicode="&#xa1;" horiz-adv-x="423" d="M276 463q0 -27 -18.5 -46t-45.5 -19t-46 19t-19 46t19 45.5t46 18.5t45.5 -18.5t18.5 -45.5zM272 -214h-120l40 524h40z" />
<glyph unicode="&#xa2;" horiz-adv-x="453" d="M252 626v-95q63 0 101 -26t38 -63q0 -38 -44 -38q-22 0 -34.5 13.5t-16 29.5t-14.5 31t-30 18v-323h13q34 0 63.5 18t46.5 44l27 -13q-20 -52 -59.5 -86t-90.5 -38v-98h-38v98q-73 10 -117 71t-44 143q0 81 44.5 141t116.5 74v99h38zM139 328q0 -115 75 -146v308 q-32 -16 -53.5 -59.5t-21.5 -102.5z" />
<glyph unicode="&#xa3;" horiz-adv-x="568" d="M88 358h72q-27 70 -27 114q0 81 52.5 123.5t124.5 42.5q77 0 122.5 -36.5t45.5 -73.5q0 -22 -12 -35t-28 -13q-21 0 -36 19t-22.5 42.5t-25.5 42.5t-45 19q-32 0 -54 -28.5t-22 -83.5q0 -17 3.5 -36t7.5 -31t12 -34.5t11 -31.5h135v-43h-125q5 -25 5 -47q0 -95 -54 -146 l7 -11q21 15 47 15q29 0 54.5 -22.5t49.5 -45t48 -22.5q35 0 35 33q0 13 -19 31t-19 37q0 14 9.5 24.5t25.5 10.5q24 0 38 -19t14 -54q0 -53 -35.5 -82t-83.5 -29q-63 0 -119 27.5t-82 59.5h-4q-47 -87 -97 -87q-27 0 -27 24q0 54 110 89q17 49 17 113q0 42 -21 101h-88v43z " />
<glyph unicode="&#xa4;" horiz-adv-x="644" d="M101 272q0 69 40 127l-45 44q-11 11 -2 29.5t25 26t28 -0.5l46 -47q58 42 129 42t126 -39l43 45q10 11 29 0t29.5 -30.5t0.5 -29.5l-45 -43q38 -55 38 -124q0 -70 -42 -130l48 -46q11 -11 2 -29.5t-25 -26.5t-28 1l-50 50q-55 -40 -126 -40q-69 0 -124 36l-42 -44 q-11 -12 -31 -2.5t-29 27t1 30.5l44 43q-40 55 -40 131zM171 271q0 -70 42 -115.5t110 -45.5q63 0 105.5 46t42.5 115q0 71 -42.5 116.5t-106.5 45.5q-70 0 -110.5 -46t-40.5 -116z" />
<glyph unicode="&#xa5;" horiz-adv-x="574" d="M106 278h128l-153 293l-61 15v40h224v-40l-63 -15l120 -234h16l127 234l-74 15v40h184v-40l-58 -15l-156 -293h128v-41h-133v-49h133v-41h-133v-92l78 -15v-40h-252v40l78 15v92h-133v41h133v49h-133v41z" />
<glyph unicode="&#xa6;" horiz-adv-x="540" d="M307 400h-74v350h74v-350zM233 120h74v-350h-74v350z" />
<glyph unicode="&#xa7;" horiz-adv-x="549" d="M454 173q0 -63 -60 -115q46 -43 46 -93q0 -57 -50 -87.5t-114 -30.5q-38 0 -86 12t-82 32v119h35q16 -62 54 -89t84 -27q34 0 55 16t21 44q0 27 -27 50.5t-65.5 42.5t-77 40t-65.5 51t-27 67q0 65 64 112q-49 41 -49 96q0 43 42.5 78.5t116.5 35.5q94 0 160 -44v-119h-35 q-33 116 -127 116q-35 0 -56.5 -17.5t-21.5 -42.5q0 -24 27.5 -46t66.5 -41t77.5 -39.5t66 -51.5t27.5 -69zM168 226q0 -24 25.5 -45t81 -49.5t79.5 -43.5q24 25 24 56q0 25 -19 46.5t-40 34t-61.5 33t-59.5 32.5q-30 -26 -30 -64z" />
<glyph unicode="&#xa8;" horiz-adv-x="500" d="M388 569q0 -20 -16 -35.5t-36 -15.5q-21 0 -37 15.5t-16 35.5q0 21 16 37t37 16q20 0 36 -16t16 -37zM217 569q0 -21 -15.5 -36t-36.5 -15t-37 15.5t-16 35.5q0 21 16 37t37 16t36.5 -16t15.5 -37z" />
<glyph unicode="&#xa9;" horiz-adv-x="793" d="M89 251q0 126 90.5 216.5t217.5 90.5q131 0 219 -89.5t88 -217.5q0 -127 -90.5 -217.5t-216.5 -90.5q-129 0 -218.5 87t-89.5 221zM148 249q0 -110 70 -183t180 -73t178.5 72.5t68.5 183.5q0 114 -70.5 187.5t-177.5 73.5q-109 0 -179 -74.5t-70 -186.5zM405 121 q41 0 64 17.5t36 56.5h26v-74q-63 -39 -128 -39q-74 0 -124 45.5t-50 124.5q0 76 50 123t124 47q60 0 124 -35v-77h-28q-26 75 -96 75q-46 0 -73.5 -32t-27.5 -100q0 -64 31 -98t72 -34z" />
<glyph unicode="&#xaa;" horiz-adv-x="457" d="M306 301l-30 75h-130l-27 -68l51 -17v-30h-135v30l40 17l130 318h51l129 -325l37 -10v-30h-159v30zM210 533l-50 -122h103l-48 122h-5z" />
<glyph unicode="&#xab;" horiz-adv-x="672" d="M110 240l182 219l33 -20l-108 -201v-15l108 -203l-33 -24l-182 221v23zM317 240l182 219l33 -20l-108 -201v-15l108 -203l-33 -24l-182 221v23z" />
<glyph unicode="&#xac;" horiz-adv-x="540" d="M426 52v197h-388v64h457v-261h-69z" />
<glyph unicode="&#xad;" horiz-adv-x="404" d="M77 278h250v-73h-250v73z" />
<glyph unicode="&#xae;" horiz-adv-x="598" d="M85 393q0 88 63 151t151 63q91 0 152.5 -62.5t61.5 -151.5q0 -88 -63 -151t-151 -63q-89 0 -151.5 61t-62.5 153zM129 392q0 -76 48 -125.5t123 -49.5q70 0 119.5 50.5t49.5 124.5q0 77 -49 126.5t-121 49.5q-78 0 -124 -49.5t-46 -126.5zM332 398v-8q14 -6 38 -39.5 t37 -42.5l15 -7v-20h-55q-14 10 -41.5 52t-47.5 50h-13v-75l37 -7v-20h-114v20l27 7v183l-27 7v20h116q29 0 57 -14t28 -48q0 -20 -15.5 -36.5t-41.5 -21.5zM265 491v-82h26q23 0 34.5 13.5t11.5 31.5q0 37 -40 37h-32z" />
<glyph unicode="&#xaf;" horiz-adv-x="500" d="M377 530h-254v58h254v-58z" />
<glyph unicode="&#xb0;" horiz-adv-x="387" d="M50 494q0 59 42 101.5t101 42.5t101.5 -42.5t42.5 -101.5t-42.5 -101t-101.5 -42t-101 42.5t-42 100.5zM110 494q0 -39 22.5 -65.5t59.5 -26.5t60.5 26.5t23.5 65.5t-23.5 66.5t-60.5 27.5t-59.5 -27.5t-22.5 -66.5z" />
<glyph unicode="&#xb1;" horiz-adv-x="540" d="M472 270h-171v-150h-62v150h-171v62h171v150h62v-150h171v-62zM472 0h-404v62h404v-62z" />
<glyph unicode="&#xb2;" horiz-adv-x="307" d="M184 659q0 22 -13.5 37t-36.5 15q-22 0 -41 -13.5t-47 -43.5l-17 17q65 95 134 95q45 0 70.5 -22.5t25.5 -57.5q0 -40 -45 -99.5t-90 -99.5l3 -8h106l25 40l23 -7l-31 -97h-214l-6 18q52 43 103 109.5t51 116.5z" />
<glyph unicode="&#xb3;" horiz-adv-x="279" d="M232 704q0 -50 -67 -92v-5q33 -8 56.5 -35t23.5 -60q0 -47 -39.5 -75.5t-85.5 -28.5q-45 0 -70 14.5t-25 37.5q0 11 7.5 19t20.5 8q17 0 34.5 -21t35.5 -21q19 0 35 16t16 46q0 23 -12.5 42t-27 26.5t-22.5 3.5l-20 -11l-17 23q88 42 88 84q0 39 -41 39q-38 0 -71 -38 l-15 17q54 73 121 73q32 0 53.5 -17t21.5 -45z" />
<glyph unicode="&#xb4;" horiz-adv-x="500" d="M190 488v8l86 164h94v-10l-129 -162h-51z" />
<glyph unicode="&#xb5;" horiz-adv-x="540" d="M366 27l-8 6q-68 -45 -134 -45q-41 0 -71 27q1 -26 4 -64.5t4.5 -64t1.5 -38.5q0 -60 -46 -60q-40 0 -40 52q0 17 6 120.5t8 159.5q-1 7 -1 21v257l-63 11v38l154 18v-309q0 -56 21 -78.5t65 -22.5q58 0 93 37v306l-63 11v38l154 18v-364q0 -43 21 -43q20 0 34 34l28 -11 q-16 -47 -46 -68.5t-58 -21.5q-26 0 -37.5 7t-26.5 29z" />
<glyph unicode="&#xb6;" horiz-adv-x="627" d="M552 518v-50q-26 0 -40 -19.5t-14 -48.5v-551h-61v619h-52v-619h-61v302q-112 0 -174.5 49t-62.5 135q0 83 63 133t162 50h240zM324 201v267q-56 0 -90 -37t-34 -98q0 -60 33 -96t91 -36z" />
<glyph unicode="&#xb7;" horiz-adv-x="343" d="M107 264q0 27 18.5 46t45.5 19t46 -19t19 -46t-19 -45.5t-46 -18.5t-45.5 18.5t-18.5 45.5z" />
<glyph unicode="&#xb8;" horiz-adv-x="500" d="M202 -224l-8 25q39 6 63 22.5t24 39.5q0 42 -71 42q-16 0 -30 -2l-5 7l58 110h45l-38 -70q46 0 75.5 -18t29.5 -54q0 -38 -42 -66t-101 -36z" />
<glyph unicode="&#xb9;" horiz-adv-x="253" d="M37 703v33q52 1 96 28l36 -3v-306l51 -8v-32h-171v32l52 8v251q-37 -10 -64 -3z" />
<glyph unicode="&#xba;" horiz-adv-x="440" d="M30 447q0 86 55 138.5t136 52.5q83 0 136 -51.5t53 -139.5q0 -89 -54 -139t-135 -50q-82 0 -136.5 50.5t-54.5 138.5zM117 447q0 -68 30 -107t74 -39q45 0 73.5 36t28.5 110q0 72 -29 111.5t-73 39.5t-74 -40t-30 -111z" />
<glyph unicode="&#xbb;" horiz-adv-x="672" d="M173 459l182 -219v-23l-182 -221l-33 24l108 203v15l-108 201zM380 459l182 -219v-23l-182 -221l-33 24l108 203v15l-108 201z" />
<glyph unicode="&#xbc;" d="M119 -54l241 370l223 353l40 -26l-234 -349l-231 -375zM85 577v33q52 1 96 28l36 -3v-306l51 -8v-32h-171v32l52 8v251q-37 -10 -64 -3zM576 315l35 -9v-202h34v-44h-34v-100h-67v99h-132l-9 23zM544 204l-6 4l-74 -99l3 -5h77v100z" />
<glyph unicode="&#xbd;" d="M119 -54l241 370l223 353l40 -26l-234 -349l-231 -375zM85 577v33q52 1 96 28l36 -3v-306l51 -8v-32h-171v32l52 8v251q-37 -10 -64 -3zM591 204q0 22 -13.5 37t-36.5 15q-22 0 -41 -13.5t-47 -43.5l-17 17q65 95 134 95q45 0 70.5 -22.5t25.5 -57.5q0 -40 -45 -99.5 t-90 -99.5l3 -8h106l25 40l23 -7l-31 -97h-214l-6 18q52 43 103 109.5t51 116.5z" />
<glyph unicode="&#xbe;" d="M119 -54l241 370l223 353l40 -26l-234 -349l-231 -375zM275 578q0 -50 -67 -92v-5q33 -8 56.5 -35t23.5 -60q0 -47 -39.5 -75.5t-85.5 -28.5q-45 0 -70 14.5t-25 37.5q0 11 7.5 19t20.5 8q17 0 34.5 -21t35.5 -21q19 0 35 16t16 46q0 23 -12.5 42t-27 26.5t-22.5 3.5 l-20 -11l-17 23q88 42 88 84q0 39 -41 39q-38 0 -71 -38l-15 17q54 73 121 73q32 0 53.5 -17t21.5 -45zM576 315l35 -9v-202h34v-44h-34v-100h-67v99h-132l-9 23zM544 204l-6 4l-74 -99l3 -5h77v100z" />
<glyph unicode="&#xbf;" horiz-adv-x="493" d="M368 503q0 -27 -18.5 -46t-45.5 -19t-46 19t-19 46t19 45.5t46 18.5t45.5 -18.5t18.5 -45.5zM326 356v-211q-90 11 -136.5 -25t-46.5 -100q0 -47 30.5 -73.5t88.5 -26.5q98 0 98 -51q0 -23 -16.5 -37.5t-46.5 -14.5q-72 0 -136 67.5t-64 170.5q0 97 56.5 144t129.5 40 v117h43z" />
<glyph unicode="&#xc0;" horiz-adv-x="630" d="M428 53l-45 117h-178l-42 -107l80 -25v-38h-206v38l68 25l184 455h61l183 -465l60 -15v-38h-232v38zM292 386l-68 -169h141l-65 169h-8zM377 576v-8h-51l-129 162v10h94z" />
<glyph unicode="&#xc1;" horiz-adv-x="630" d="M428 53l-45 117h-178l-42 -107l80 -25v-38h-206v38l68 25l184 455h61l183 -465l60 -15v-38h-232v38zM292 386l-68 -169h141l-65 169h-8zM257 568v8l86 164h94v-10l-129 -162h-51z" />
<glyph unicode="&#xc2;" horiz-adv-x="630" d="M428 53l-45 117h-178l-42 -107l80 -25v-38h-206v38l68 25l184 455h61l183 -465l60 -15v-38h-232v38zM292 386l-68 -169h141l-65 169h-8zM462 576v-8h-46l-99 99l-99 -99h-46v8l121 164h48z" />
<glyph unicode="&#xc3;" horiz-adv-x="630" d="M428 53l-45 117h-178l-42 -107l80 -25v-38h-206v38l68 25l184 455h61l183 -465l60 -15v-38h-232v38zM292 386l-68 -169h141l-65 169h-8zM445 728l26 -10q-14 -49 -43 -87t-55 -38q-15 0 -63.5 30t-63.5 30q-16 0 -27.5 -16t-25.5 -47l-29 12q11 40 41 81.5t48 41.5 q19 0 65 -30.5t64 -30.5q17 0 36 21t27 43z" />
<glyph unicode="&#xc4;" horiz-adv-x="630" d="M428 53l-45 117h-178l-42 -107l80 -25v-38h-206v38l68 25l184 455h61l183 -465l60 -15v-38h-232v38zM292 386l-68 -169h141l-65 169h-8zM455 649q0 -20 -16 -35.5t-36 -15.5q-21 0 -37 15.5t-16 35.5q0 21 16 37t37 16q20 0 36 -16t16 -37zM284 649q0 -21 -15 -36 t-37 -15q-21 0 -37 15.5t-16 35.5q0 21 16 37t37 16t36.5 -16t15.5 -37z" />
<glyph unicode="&#xc5;" horiz-adv-x="630" d="M428 53l-45 117h-178l-42 -107l80 -25v-38h-206v38l68 25l184 455h61l183 -465l60 -15v-38h-232v38zM292 386l-68 -169h141l-65 169h-8zM223 652q0 39 27.5 66.5t66.5 27.5t66.5 -27.5t27.5 -66.5t-27.5 -66.5t-66.5 -27.5t-66.5 27.5t-27.5 66.5zM269 652 q0 -22 13 -36.5t34 -14.5t34.5 14.5t13.5 36.5t-13.5 37.5t-34.5 15.5t-34 -15.5t-13 -37.5z" />
<glyph unicode="&#xc6;" horiz-adv-x="833" d="M496 49h182l58 89h43l-21 -138h-433v38l72 15v117h-158l-80 -107l80 -25v-38h-202v38l64 25l296 392v10l-72 15v38h407l13 -124h-42l-52 75h-155v-179h96l27 57h32v-167h-32l-27 63h-96v-194zM275 217h122v162z" />
<glyph unicode="&#xc7;" horiz-adv-x="632" d="M297 -224l-8 25q39 6 63 22.5t24 39.5q0 42 -71 42q-16 0 -30 -2l-5 7l41 79q-105 9 -173.5 80t-68.5 187q0 122 79.5 196.5t196.5 74.5q91 0 196 -56v-121h-38q-46 127 -158 127q-70 0 -118 -60t-48 -160q0 -93 53.5 -154.5t116.5 -61.5q121 0 161 125h38v-117 q-94 -60 -193 -62l-20 -37q46 0 75.5 -18t29.5 -54q0 -38 -42 -66t-101 -36z" />
<glyph unicode="&#xc8;" horiz-adv-x="577" d="M240 49h182l58 89h43l-21 -138h-433v38l72 15v412l-72 15v38h407l13 -124h-42l-52 75h-155v-179h96l27 57h32v-167h-32l-27 63h-96v-194zM356 576v-8h-51l-129 162v10h94z" />
<glyph unicode="&#xc9;" horiz-adv-x="577" d="M240 49h182l58 89h43l-21 -138h-433v38l72 15v412l-72 15v38h407l13 -124h-42l-52 75h-155v-179h96l27 57h32v-167h-32l-27 63h-96v-194zM236 568v8l86 164h94v-10l-129 -162h-51z" />
<glyph unicode="&#xca;" horiz-adv-x="577" d="M240 49h182l58 89h43l-21 -138h-433v38l72 15v412l-72 15v38h407l13 -124h-42l-52 75h-155v-179h96l27 57h32v-167h-32l-27 63h-96v-194zM441 576v-8h-46l-99 99l-99 -99h-46v8l121 164h48z" />
<glyph unicode="&#xcb;" horiz-adv-x="577" d="M240 49h182l58 89h43l-21 -138h-433v38l72 15v412l-72 15v38h407l13 -124h-42l-52 75h-155v-179h96l27 57h32v-167h-32l-27 63h-96v-194zM434 649q0 -20 -16 -35.5t-36 -15.5q-21 0 -37 15.5t-16 35.5q0 21 16 37t37 16q20 0 36 -16t16 -37zM263 649q0 -21 -15.5 -36 t-36.5 -15t-37 15.5t-16 35.5q0 21 16 37t37 16t36.5 -16t15.5 -37z" />
<glyph unicode="&#xcc;" horiz-adv-x="400" d="M79 518h242v-38l-71 -15v-412l71 -15v-38h-242v38l72 15v412l-72 15v38zM260 576v-8h-51l-129 162v10h94z" />
<glyph unicode="&#xcd;" horiz-adv-x="400" d="M79 518h242v-38l-71 -15v-412l71 -15v-38h-242v38l72 15v412l-72 15v38zM140 568v8l86 164h94v-10l-129 -162h-51z" />
<glyph unicode="&#xce;" horiz-adv-x="400" d="M79 518h242v-38l-71 -15v-412l71 -15v-38h-242v38l72 15v412l-72 15v38zM345 576v-8h-46l-99 99l-99 -99h-46v8l121 164h48z" />
<glyph unicode="&#xcf;" horiz-adv-x="400" d="M79 518h242v-38l-71 -15v-412l71 -15v-38h-242v38l72 15v412l-72 15v38zM338 649q0 -20 -16 -35.5t-36 -15.5q-21 0 -37 15.5t-16 35.5q0 21 16 37t37 16q20 0 36 -16t16 -37zM167 649q0 -21 -15.5 -36t-36.5 -15t-37 15.5t-16 35.5q0 21 16 37t37 16t36.5 -16t15.5 -37z " />
<glyph unicode="&#xd0;" horiz-adv-x="666" d="M299 0h-230v38l72 15v180h-87v47h87v185l-72 15v38h239q135 0 212 -69.5t77 -192.5q0 -121 -83 -188.5t-215 -67.5zM240 53h59q84 0 138 50t54 154q0 99 -52 153.5t-132 54.5h-67v-185h148v-47h-148v-180z" />
<glyph unicode="&#xd1;" horiz-adv-x="693" d="M498 177h12v278l-82 25v38h208v-38l-71 -25v-462h-30l-340 400h-12v-330l82 -25v-38h-201v38l64 25v402l-64 15v38h143zM478 728l26 -10q-14 -49 -43 -87t-55 -38q-15 0 -63.5 30t-63.5 30q-16 0 -27.5 -16t-25.5 -47l-29 12q11 40 41 81.5t48 41.5q19 0 65 -30.5 t64 -30.5q17 0 36 21t27 43z" />
<glyph unicode="&#xd2;" horiz-adv-x="678" d="M69 256q0 122 78 196.5t193 74.5q119 0 194 -73.5t75 -197.5q0 -128 -76.5 -198.5t-192.5 -70.5t-193.5 72t-77.5 197zM179 257q0 -101 46.5 -158.5t114.5 -57.5q70 0 115 52.5t45 163.5q0 105 -45 162.5t-115 57.5q-69 0 -115 -58t-46 -162zM399 576v-8h-51l-129 162v10 h94z" />
<glyph unicode="&#xd3;" horiz-adv-x="678" d="M69 256q0 122 78 196.5t193 74.5q119 0 194 -73.5t75 -197.5q0 -128 -76.5 -198.5t-192.5 -70.5t-193.5 72t-77.5 197zM179 257q0 -101 46.5 -158.5t114.5 -57.5q70 0 115 52.5t45 163.5q0 105 -45 162.5t-115 57.5q-69 0 -115 -58t-46 -162zM279 568v8l86 164h94v-10 l-129 -162h-51z" />
<glyph unicode="&#xd4;" horiz-adv-x="678" d="M69 256q0 122 78 196.5t193 74.5q119 0 194 -73.5t75 -197.5q0 -128 -76.5 -198.5t-192.5 -70.5t-193.5 72t-77.5 197zM179 257q0 -101 46.5 -158.5t114.5 -57.5q70 0 115 52.5t45 163.5q0 105 -45 162.5t-115 57.5q-69 0 -115 -58t-46 -162zM484 576v-8h-46l-99 99 l-99 -99h-46v8l121 164h48z" />
<glyph unicode="&#xd5;" horiz-adv-x="678" d="M69 256q0 122 78 196.5t193 74.5q119 0 194 -73.5t75 -197.5q0 -128 -76.5 -198.5t-192.5 -70.5t-193.5 72t-77.5 197zM179 257q0 -101 46.5 -158.5t114.5 -57.5q70 0 115 52.5t45 163.5q0 105 -45 162.5t-115 57.5q-69 0 -115 -58t-46 -162zM467 728l26 -10 q-14 -49 -43 -87t-55 -38q-15 0 -63.5 30t-63.5 30q-16 0 -27.5 -16t-25.5 -47l-29 12q11 40 41 81.5t48 41.5q19 0 65 -30.5t64 -30.5q17 0 36 21t27 43z" />
<glyph unicode="&#xd6;" horiz-adv-x="678" d="M69 256q0 122 78 196.5t193 74.5q119 0 194 -73.5t75 -197.5q0 -128 -76.5 -198.5t-192.5 -70.5t-193.5 72t-77.5 197zM179 257q0 -101 46.5 -158.5t114.5 -57.5q70 0 115 52.5t45 163.5q0 105 -45 162.5t-115 57.5q-69 0 -115 -58t-46 -162zM477 649q0 -20 -16 -35.5 t-36 -15.5q-21 0 -37 15.5t-16 35.5q0 21 16 37t37 16q20 0 36 -16t16 -37zM306 649q0 -21 -15 -36t-37 -15q-21 0 -37 15.5t-16 35.5q0 21 16 37t37 16t36.5 -16t15.5 -37z" />
<glyph unicode="&#xd7;" horiz-adv-x="540" d="M449 376l-135 -135l135 -135l-44 -44l-135 135l-135 -135l-44 44l135 135l-135 135l44 44l135 -135l135 135z" />
<glyph unicode="&#xd8;" horiz-adv-x="678" d="M69 256q0 122 78 196.5t193 74.5q91 0 159 -45l50 63h60l-74 -93q74 -74 74 -196q0 -128 -76.5 -198.5t-192.5 -70.5q-82 0 -148 37l-62 -78h-60l84 105q-85 75 -85 205zM179 257q0 -83 31 -136l242 302q-44 54 -112 54q-69 0 -115 -58t-46 -162zM500 257q0 72 -23 123 l-238 -297q42 -42 101 -42q70 0 115 52.5t45 163.5z" />
<glyph unicode="&#xd9;" horiz-adv-x="661" d="M409 518h203v-38l-66 -25v-254q0 -37 -12.5 -73.5t-37 -68.5t-67.5 -52t-98 -20q-95 0 -152.5 59t-57.5 132v287l-72 15v38h242v-38l-71 -15v-275q0 -63 34 -103.5t94 -40.5q63 0 102.5 43.5t39.5 125.5v240l-81 25v38zM410 576v-8h-51l-129 162v10h94z" />
<glyph unicode="&#xda;" horiz-adv-x="661" d="M409 518h203v-38l-66 -25v-254q0 -37 -12.5 -73.5t-37 -68.5t-67.5 -52t-98 -20q-95 0 -152.5 59t-57.5 132v287l-72 15v38h242v-38l-71 -15v-275q0 -63 34 -103.5t94 -40.5q63 0 102.5 43.5t39.5 125.5v240l-81 25v38zM290 568v8l86 164h94v-10l-129 -162h-51z" />
<glyph unicode="&#xdb;" horiz-adv-x="661" d="M409 518h203v-38l-66 -25v-254q0 -37 -12.5 -73.5t-37 -68.5t-67.5 -52t-98 -20q-95 0 -152.5 59t-57.5 132v287l-72 15v38h242v-38l-71 -15v-275q0 -63 34 -103.5t94 -40.5q63 0 102.5 43.5t39.5 125.5v240l-81 25v38zM495 576v-8h-46l-99 99l-99 -99h-46v8l121 164h48z " />
<glyph unicode="&#xdc;" horiz-adv-x="661" d="M409 518h203v-38l-66 -25v-254q0 -37 -12.5 -73.5t-37 -68.5t-67.5 -52t-98 -20q-95 0 -152.5 59t-57.5 132v287l-72 15v38h242v-38l-71 -15v-275q0 -63 34 -103.5t94 -40.5q63 0 102.5 43.5t39.5 125.5v240l-81 25v38zM488 649q0 -20 -16 -35.5t-36 -15.5 q-21 0 -37 15.5t-16 35.5q0 21 16 37t37 16q20 0 36 -16t16 -37zM317 649q0 -21 -15.5 -36t-36.5 -15t-37 15.5t-16 35.5q0 21 16 37t37 16t36.5 -16t15.5 -37z" />
<glyph unicode="&#xdd;" horiz-adv-x="603" d="M332 276l108 179l-79 25v38h203v-38l-65 -25l-148 -246v-156l72 -15v-38h-243v38l72 15v156l-151 256l-62 15v38h232v-38l-61 -15l108 -189h14zM256 568v8l86 164h94v-10l-129 -162h-51z" />
<glyph unicode="&#xde;" horiz-adv-x="561" d="M69 518h242v-38l-71 -15v-41h85q71 0 126.5 -37.5t55.5 -111.5q0 -72 -54 -114t-148 -42h-65v-66l71 -15v-38h-242v38l72 15v412l-72 15v38zM311 371h-71v-205h73q38 0 65 29t27 75q0 49 -26 75t-68 26z" />
<glyph unicode="&#xdf;" horiz-adv-x="683" d="M458 301q0 -25 25.5 -44t56 -31t56 -42.5t25.5 -75.5q0 -57 -41.5 -89t-97.5 -32q-57 0 -95 27l-30 -14h-24v134h36q27 -93 107 -93q26 0 41.5 14.5t15.5 37.5q0 25 -28 46.5t-62 35.5t-62 38.5t-28 55.5q0 22 13.5 41t29.5 30t29.5 30t13.5 42q0 34 -23 49.5t-56 15.5 q-71 0 -120 -47v-430h-171v38l72 15v410q119 64 226 64q42 0 81 -10t69 -34t30 -59q0 -25 -22.5 -46.5t-44.5 -40t-22 -36.5z" />
<glyph unicode="&#xe0;" horiz-adv-x="630" d="M428 53l-45 117h-178l-42 -107l80 -25v-38h-206v38l68 25l184 455h61l183 -465l60 -15v-38h-232v38zM292 386l-68 -169h141l-65 169h-8zM377 576v-8h-51l-129 162v10h94z" />
<glyph unicode="&#xe1;" horiz-adv-x="630" d="M428 53l-45 117h-178l-42 -107l80 -25v-38h-206v38l68 25l184 455h61l183 -465l60 -15v-38h-232v38zM292 386l-68 -169h141l-65 169h-8zM257 568v8l86 164h94v-10l-129 -162h-51z" />
<glyph unicode="&#xe2;" horiz-adv-x="630" d="M428 53l-45 117h-178l-42 -107l80 -25v-38h-206v38l68 25l184 455h61l183 -465l60 -15v-38h-232v38zM292 386l-68 -169h141l-65 169h-8zM462 576v-8h-46l-99 99l-99 -99h-46v8l121 164h48z" />
<glyph unicode="&#xe3;" horiz-adv-x="630" d="M428 53l-45 117h-178l-42 -107l80 -25v-38h-206v38l68 25l184 455h61l183 -465l60 -15v-38h-232v38zM292 386l-68 -169h141l-65 169h-8zM445 728l26 -10q-14 -49 -43 -87t-55 -38q-15 0 -63.5 30t-63.5 30q-16 0 -27.5 -16t-25.5 -47l-29 12q11 40 41 81.5t48 41.5 q19 0 65 -30.5t64 -30.5q17 0 36 21t27 43z" />
<glyph unicode="&#xe4;" horiz-adv-x="630" d="M428 53l-45 117h-178l-42 -107l80 -25v-38h-206v38l68 25l184 455h61l183 -465l60 -15v-38h-232v38zM292 386l-68 -169h141l-65 169h-8zM455 649q0 -20 -16 -35.5t-36 -15.5q-21 0 -37 15.5t-16 35.5q0 21 16 37t37 16q20 0 36 -16t16 -37zM284 649q0 -21 -15 -36 t-37 -15q-21 0 -37 15.5t-16 35.5q0 21 16 37t37 16t36.5 -16t15.5 -37z" />
<glyph unicode="&#xe5;" horiz-adv-x="630" d="M428 53l-45 117h-178l-42 -107l80 -25v-38h-206v38l68 25l184 455h61l183 -465l60 -15v-38h-232v38zM292 386l-68 -169h141l-65 169h-8zM223 652q0 39 27.5 66.5t66.5 27.5t66.5 -27.5t27.5 -66.5t-27.5 -66.5t-66.5 -27.5t-66.5 27.5t-27.5 66.5zM269 652 q0 -22 13 -36.5t34 -14.5t34.5 14.5t13.5 36.5t-13.5 37.5t-34.5 15.5t-34 -15.5t-13 -37.5z" />
<glyph unicode="&#xe6;" horiz-adv-x="833" d="M496 49h182l58 89h43l-21 -138h-433v38l72 15v117h-158l-80 -107l80 -25v-38h-202v38l64 25l296 392v10l-72 15v38h407l13 -124h-42l-52 75h-155v-179h96l27 57h32v-167h-32l-27 63h-96v-194zM275 217h122v162z" />
<glyph unicode="&#xe7;" horiz-adv-x="632" d="M297 -224l-8 25q39 6 63 22.5t24 39.5q0 42 -71 42q-16 0 -30 -2l-5 7l41 79q-105 9 -173.5 80t-68.5 187q0 122 79.5 196.5t196.5 74.5q91 0 196 -56v-121h-38q-46 127 -158 127q-70 0 -118 -60t-48 -160q0 -93 53.5 -154.5t116.5 -61.5q121 0 161 125h38v-117 q-94 -60 -193 -62l-20 -37q46 0 75.5 -18t29.5 -54q0 -38 -42 -66t-101 -36z" />
<glyph unicode="&#xe8;" horiz-adv-x="577" d="M240 49h182l58 89h43l-21 -138h-433v38l72 15v412l-72 15v38h407l13 -124h-42l-52 75h-155v-179h96l27 57h32v-167h-32l-27 63h-96v-194zM356 576v-8h-51l-129 162v10h94z" />
<glyph unicode="&#xe9;" horiz-adv-x="577" d="M240 49h182l58 89h43l-21 -138h-433v38l72 15v412l-72 15v38h407l13 -124h-42l-52 75h-155v-179h96l27 57h32v-167h-32l-27 63h-96v-194zM236 568v8l86 164h94v-10l-129 -162h-51z" />
<glyph unicode="&#xea;" horiz-adv-x="577" d="M240 49h182l58 89h43l-21 -138h-433v38l72 15v412l-72 15v38h407l13 -124h-42l-52 75h-155v-179h96l27 57h32v-167h-32l-27 63h-96v-194zM441 576v-8h-46l-99 99l-99 -99h-46v8l121 164h48z" />
<glyph unicode="&#xeb;" horiz-adv-x="577" d="M240 49h182l58 89h43l-21 -138h-433v38l72 15v412l-72 15v38h407l13 -124h-42l-52 75h-155v-179h96l27 57h32v-167h-32l-27 63h-96v-194zM434 649q0 -20 -16 -35.5t-36 -15.5q-21 0 -37 15.5t-16 35.5q0 21 16 37t37 16q20 0 36 -16t16 -37zM263 649q0 -21 -15.5 -36 t-36.5 -15t-37 15.5t-16 35.5q0 21 16 37t37 16t36.5 -16t15.5 -37z" />
<glyph unicode="&#xec;" horiz-adv-x="400" d="M79 518h242v-38l-71 -15v-412l71 -15v-38h-242v38l72 15v412l-72 15v38zM260 576v-8h-51l-129 162v10h94z" />
<glyph unicode="&#xed;" horiz-adv-x="400" d="M79 518h242v-38l-71 -15v-412l71 -15v-38h-242v38l72 15v412l-72 15v38zM140 568v8l86 164h94v-10l-129 -162h-51z" />
<glyph unicode="&#xee;" horiz-adv-x="400" d="M79 518h242v-38l-71 -15v-412l71 -15v-38h-242v38l72 15v412l-72 15v38zM345 576v-8h-46l-99 99l-99 -99h-46v8l121 164h48z" />
<glyph unicode="&#xef;" horiz-adv-x="400" d="M79 518h242v-38l-71 -15v-412l71 -15v-38h-242v38l72 15v412l-72 15v38zM338 649q0 -20 -16 -35.5t-36 -15.5q-21 0 -37 15.5t-16 35.5q0 21 16 37t37 16q20 0 36 -16t16 -37zM167 649q0 -21 -15.5 -36t-36.5 -15t-37 15.5t-16 35.5q0 21 16 37t37 16t36.5 -16t15.5 -37z " />
<glyph unicode="&#xf0;" horiz-adv-x="666" d="M299 0h-230v38l72 15v180h-87v47h87v185l-72 15v38h239q135 0 212 -69.5t77 -192.5q0 -121 -83 -188.5t-215 -67.5zM240 53h59q84 0 138 50t54 154q0 99 -52 153.5t-132 54.5h-67v-185h148v-47h-148v-180z" />
<glyph unicode="&#xf1;" horiz-adv-x="693" d="M498 177h12v278l-82 25v38h208v-38l-71 -25v-462h-30l-340 400h-12v-330l82 -25v-38h-201v38l64 25v402l-64 15v38h143zM478 728l26 -10q-14 -49 -43 -87t-55 -38q-15 0 -63.5 30t-63.5 30q-16 0 -27.5 -16t-25.5 -47l-29 12q11 40 41 81.5t48 41.5q19 0 65 -30.5 t64 -30.5q17 0 36 21t27 43z" />
<glyph unicode="&#xf2;" horiz-adv-x="678" d="M69 256q0 122 78 196.5t193 74.5q119 0 194 -73.5t75 -197.5q0 -128 -76.5 -198.5t-192.5 -70.5t-193.5 72t-77.5 197zM179 257q0 -101 46.5 -158.5t114.5 -57.5q70 0 115 52.5t45 163.5q0 105 -45 162.5t-115 57.5q-69 0 -115 -58t-46 -162zM399 576v-8h-51l-129 162v10 h94z" />
<glyph unicode="&#xf3;" horiz-adv-x="678" d="M69 256q0 122 78 196.5t193 74.5q119 0 194 -73.5t75 -197.5q0 -128 -76.5 -198.5t-192.5 -70.5t-193.5 72t-77.5 197zM179 257q0 -101 46.5 -158.5t114.5 -57.5q70 0 115 52.5t45 163.5q0 105 -45 162.5t-115 57.5q-69 0 -115 -58t-46 -162zM279 568v8l86 164h94v-10 l-129 -162h-51z" />
<glyph unicode="&#xf4;" horiz-adv-x="678" d="M69 256q0 122 78 196.5t193 74.5q119 0 194 -73.5t75 -197.5q0 -128 -76.5 -198.5t-192.5 -70.5t-193.5 72t-77.5 197zM179 257q0 -101 46.5 -158.5t114.5 -57.5q70 0 115 52.5t45 163.5q0 105 -45 162.5t-115 57.5q-69 0 -115 -58t-46 -162zM484 576v-8h-46l-99 99 l-99 -99h-46v8l121 164h48z" />
<glyph unicode="&#xf5;" horiz-adv-x="678" d="M69 256q0 122 78 196.5t193 74.5q119 0 194 -73.5t75 -197.5q0 -128 -76.5 -198.5t-192.5 -70.5t-193.5 72t-77.5 197zM179 257q0 -101 46.5 -158.5t114.5 -57.5q70 0 115 52.5t45 163.5q0 105 -45 162.5t-115 57.5q-69 0 -115 -58t-46 -162zM467 728l26 -10 q-14 -49 -43 -87t-55 -38q-15 0 -63.5 30t-63.5 30q-16 0 -27.5 -16t-25.5 -47l-29 12q11 40 41 81.5t48 41.5q19 0 65 -30.5t64 -30.5q17 0 36 21t27 43z" />
<glyph unicode="&#xf6;" horiz-adv-x="678" d="M69 256q0 122 78 196.5t193 74.5q119 0 194 -73.5t75 -197.5q0 -128 -76.5 -198.5t-192.5 -70.5t-193.5 72t-77.5 197zM179 257q0 -101 46.5 -158.5t114.5 -57.5q70 0 115 52.5t45 163.5q0 105 -45 162.5t-115 57.5q-69 0 -115 -58t-46 -162zM477 649q0 -20 -16 -35.5 t-36 -15.5q-21 0 -37 15.5t-16 35.5q0 21 16 37t37 16q20 0 36 -16t16 -37zM306 649q0 -21 -15 -36t-37 -15q-21 0 -37 15.5t-16 35.5q0 21 16 37t37 16t36.5 -16t15.5 -37z" />
<glyph unicode="&#xf7;" horiz-adv-x="540" d="M217 88q0 22 14.5 37t36.5 15t37 -15t15 -37t-15 -36.5t-37 -14.5t-36.5 14.5t-14.5 36.5zM472 210h-404v62h404v-62zM217 393q0 22 14.5 37t36.5 15t37 -15t15 -37t-15 -36.5t-37 -14.5t-36.5 14.5t-14.5 36.5z" />
<glyph unicode="&#xf8;" horiz-adv-x="678" d="M69 256q0 122 78 196.5t193 74.5q91 0 159 -45l50 63h60l-74 -93q74 -74 74 -196q0 -128 -76.5 -198.5t-192.5 -70.5q-82 0 -148 37l-62 -78h-60l84 105q-85 75 -85 205zM179 257q0 -83 31 -136l242 302q-44 54 -112 54q-69 0 -115 -58t-46 -162zM500 257q0 72 -23 123 l-238 -297q42 -42 101 -42q70 0 115 52.5t45 163.5z" />
<glyph unicode="&#xf9;" horiz-adv-x="661" d="M409 518h203v-38l-66 -25v-254q0 -37 -12.5 -73.5t-37 -68.5t-67.5 -52t-98 -20q-95 0 -152.5 59t-57.5 132v287l-72 15v38h242v-38l-71 -15v-275q0 -63 34 -103.5t94 -40.5q63 0 102.5 43.5t39.5 125.5v240l-81 25v38zM410 576v-8h-51l-129 162v10h94z" />
<glyph unicode="&#xfa;" horiz-adv-x="661" d="M409 518h203v-38l-66 -25v-254q0 -37 -12.5 -73.5t-37 -68.5t-67.5 -52t-98 -20q-95 0 -152.5 59t-57.5 132v287l-72 15v38h242v-38l-71 -15v-275q0 -63 34 -103.5t94 -40.5q63 0 102.5 43.5t39.5 125.5v240l-81 25v38zM290 568v8l86 164h94v-10l-129 -162h-51z" />
<glyph unicode="&#xfb;" horiz-adv-x="661" d="M409 518h203v-38l-66 -25v-254q0 -37 -12.5 -73.5t-37 -68.5t-67.5 -52t-98 -20q-95 0 -152.5 59t-57.5 132v287l-72 15v38h242v-38l-71 -15v-275q0 -63 34 -103.5t94 -40.5q63 0 102.5 43.5t39.5 125.5v240l-81 25v38zM495 576v-8h-46l-99 99l-99 -99h-46v8l121 164h48z " />
<glyph unicode="&#xfc;" horiz-adv-x="661" d="M409 518h203v-38l-66 -25v-254q0 -37 -12.5 -73.5t-37 -68.5t-67.5 -52t-98 -20q-95 0 -152.5 59t-57.5 132v287l-72 15v38h242v-38l-71 -15v-275q0 -63 34 -103.5t94 -40.5q63 0 102.5 43.5t39.5 125.5v240l-81 25v38zM488 649q0 -20 -16 -35.5t-36 -15.5 q-21 0 -37 15.5t-16 35.5q0 21 16 37t37 16q20 0 36 -16t16 -37zM317 649q0 -21 -15.5 -36t-36.5 -15t-37 15.5t-16 35.5q0 21 16 37t37 16t36.5 -16t15.5 -37z" />
<glyph unicode="&#xfd;" horiz-adv-x="603" d="M332 276l108 179l-79 25v38h203v-38l-65 -25l-148 -246v-156l72 -15v-38h-243v38l72 15v156l-151 256l-62 15v38h232v-38l-61 -15l108 -189h14zM256 568v8l86 164h94v-10l-129 -162h-51z" />
<glyph unicode="&#xfe;" horiz-adv-x="561" d="M69 518h242v-38l-71 -15v-41h85q71 0 126.5 -37.5t55.5 -111.5q0 -72 -54 -114t-148 -42h-65v-66l71 -15v-38h-242v38l72 15v412l-72 15v38zM311 371h-71v-205h73q38 0 65 29t27 75q0 49 -26 75t-68 26z" />
<glyph unicode="&#xff;" horiz-adv-x="603" d="M332 276l108 179l-79 25v38h203v-38l-65 -25l-148 -246v-156l72 -15v-38h-243v38l72 15v156l-151 256l-62 15v38h232v-38l-61 -15l108 -189h14zM454 649q0 -20 -16 -35.5t-36 -15.5q-21 0 -37 15.5t-16 35.5q0 21 16 37t37 16q20 0 36 -16t16 -37zM283 649 q0 -21 -15.5 -36t-36.5 -15t-37 15.5t-16 35.5q0 21 16 37t37 16t36.5 -16t15.5 -37z" />
<glyph unicode="&#x100;" horiz-adv-x="630" d="M428 53l-45 117h-178l-42 -107l80 -25v-38h-206v38l68 25l184 455h61l183 -465l60 -15v-38h-232v38zM292 386l-68 -169h141l-65 169h-8zM444 610h-254v58h254v-58z" />
<glyph unicode="&#x101;" horiz-adv-x="630" d="M428 53l-45 117h-178l-42 -107l80 -25v-38h-206v38l68 25l184 455h61l183 -465l60 -15v-38h-232v38zM292 386l-68 -169h141l-65 169h-8zM444 610h-254v58h254v-58z" />
<glyph unicode="&#x102;" horiz-adv-x="630" d="M428 53l-45 117h-178l-42 -107l80 -25v-38h-206v38l68 25l184 455h61l183 -465l60 -15v-38h-232v38zM292 386l-68 -169h141l-65 169h-8zM317 573q-50 0 -85 39t-35 113h40q0 -35 22.5 -61.5t57.5 -26.5q32 0 56 25.5t24 62.5h40q0 -74 -35 -113t-85 -39z" />
<glyph unicode="&#x103;" horiz-adv-x="630" d="M428 53l-45 117h-178l-42 -107l80 -25v-38h-206v38l68 25l184 455h61l183 -465l60 -15v-38h-232v38zM292 386l-68 -169h141l-65 169h-8zM317 573q-50 0 -85 39t-35 113h40q0 -35 22.5 -61.5t57.5 -26.5q32 0 56 25.5t24 62.5h40q0 -74 -35 -113t-85 -39z" />
<glyph unicode="&#x104;" horiz-adv-x="630" d="M429 -187l6 -26q-27 -11 -68 -11q-49 0 -79 21t-30 58q0 93 173 192l-48 123h-178l-42 -107l80 -25v-38h-206v38l68 25l184 455h61l183 -465l60 -15v-38h-168q-88 -52 -88 -131q0 -28 15.5 -45t38.5 -17q18 0 38 6zM292 386l-68 -169h141l-65 169h-8z" />
<glyph unicode="&#x105;" horiz-adv-x="630" d="M429 -187l6 -26q-27 -11 -68 -11q-49 0 -79 21t-30 58q0 93 173 192l-48 123h-178l-42 -107l80 -25v-38h-206v38l68 25l184 455h61l183 -465l60 -15v-38h-168q-88 -52 -88 -131q0 -28 15.5 -45t38.5 -17q18 0 38 6zM292 386l-68 -169h141l-65 169h-8z" />
<glyph unicode="&#x106;" horiz-adv-x="632" d="M349 41q121 0 161 125h38v-117q-98 -62 -203 -62q-118 0 -197 72t-79 197q0 122 79.5 196.5t196.5 74.5q91 0 196 -56v-121h-38q-46 127 -158 127q-70 0 -118 -60t-48 -160q0 -93 53.5 -154.5t116.5 -61.5zM288 568v8l86 164h94v-10l-129 -162h-51z" />
<glyph unicode="&#x107;" horiz-adv-x="632" d="M349 41q121 0 161 125h38v-117q-98 -62 -203 -62q-118 0 -197 72t-79 197q0 122 79.5 196.5t196.5 74.5q91 0 196 -56v-121h-38q-46 127 -158 127q-70 0 -118 -60t-48 -160q0 -93 53.5 -154.5t116.5 -61.5zM288 568v8l86 164h94v-10l-129 -162h-51z" />
<glyph unicode="&#x10a;" horiz-adv-x="632" d="M349 41q121 0 161 125h38v-117q-98 -62 -203 -62q-118 0 -197 72t-79 197q0 122 79.5 196.5t196.5 74.5q91 0 196 -56v-121h-38q-46 127 -158 127q-70 0 -118 -60t-48 -160q0 -93 53.5 -154.5t116.5 -61.5zM283 674q0 27 18.5 46t45.5 19t46.5 -19t19.5 -46t-19.5 -45.5 t-46.5 -18.5t-45.5 18.5t-18.5 45.5z" />
<glyph unicode="&#x10b;" horiz-adv-x="632" d="M349 41q121 0 161 125h38v-117q-98 -62 -203 -62q-118 0 -197 72t-79 197q0 122 79.5 196.5t196.5 74.5q91 0 196 -56v-121h-38q-46 127 -158 127q-70 0 -118 -60t-48 -160q0 -93 53.5 -154.5t116.5 -61.5zM283 674q0 27 18.5 46t45.5 19t46.5 -19t19.5 -46t-19.5 -45.5 t-46.5 -18.5t-45.5 18.5t-18.5 45.5z" />
<glyph unicode="&#x10c;" horiz-adv-x="632" d="M349 41q121 0 161 125h38v-117q-98 -62 -203 -62q-118 0 -197 72t-79 197q0 122 79.5 196.5t196.5 74.5q91 0 196 -56v-121h-38q-46 127 -158 127q-70 0 -118 -60t-48 -160q0 -93 53.5 -154.5t116.5 -61.5zM493 740v-8l-121 -164h-48l-121 164v8h46l99 -99l99 99h46z" />
<glyph unicode="&#x10d;" horiz-adv-x="632" d="M349 41q121 0 161 125h38v-117q-98 -62 -203 -62q-118 0 -197 72t-79 197q0 122 79.5 196.5t196.5 74.5q91 0 196 -56v-121h-38q-46 127 -158 127q-70 0 -118 -60t-48 -160q0 -93 53.5 -154.5t116.5 -61.5zM493 740v-8l-121 -164h-48l-121 164v8h46l99 -99l99 99h46z" />
<glyph unicode="&#x10e;" horiz-adv-x="666" d="M299 0h-230v38l72 15v412l-72 15v38h239q135 0 212 -69.5t77 -192.5q0 -121 -83 -188.5t-215 -67.5zM240 53h59q84 0 138 50t54 154q0 99 -52 153.5t-132 54.5h-67v-412zM467 740v-8l-121 -164h-48l-121 164v8h46l99 -99l99 99h46z" />
<glyph unicode="&#x10f;" horiz-adv-x="666" d="M299 0h-230v38l72 15v412l-72 15v38h239q135 0 212 -69.5t77 -192.5q0 -121 -83 -188.5t-215 -67.5zM240 53h59q84 0 138 50t54 154q0 99 -52 153.5t-132 54.5h-67v-412zM467 740v-8l-121 -164h-48l-121 164v8h46l99 -99l99 99h46z" />
<glyph unicode="&#x110;" horiz-adv-x="666" d="M299 0h-230v38l72 15v180h-87v47h87v185l-72 15v38h239q135 0 212 -69.5t77 -192.5q0 -121 -83 -188.5t-215 -67.5zM240 53h59q84 0 138 50t54 154q0 99 -52 153.5t-132 54.5h-67v-185h148v-47h-148v-180z" />
<glyph unicode="&#x111;" horiz-adv-x="666" d="M299 0h-230v38l72 15v180h-87v47h87v185l-72 15v38h239q135 0 212 -69.5t77 -192.5q0 -121 -83 -188.5t-215 -67.5zM240 53h59q84 0 138 50t54 154q0 99 -52 153.5t-132 54.5h-67v-185h148v-47h-148v-180z" />
<glyph unicode="&#x112;" horiz-adv-x="577" d="M240 49h182l58 89h43l-21 -138h-433v38l72 15v412l-72 15v38h407l13 -124h-42l-52 75h-155v-179h96l27 57h32v-167h-32l-27 63h-96v-194zM423 610h-254v58h254v-58z" />
<glyph unicode="&#x113;" horiz-adv-x="577" d="M240 49h182l58 89h43l-21 -138h-433v38l72 15v412l-72 15v38h407l13 -124h-42l-52 75h-155v-179h96l27 57h32v-167h-32l-27 63h-96v-194zM423 610h-254v58h254v-58z" />
<glyph unicode="&#x116;" horiz-adv-x="577" d="M240 49h182l58 89h43l-21 -138h-433v38l72 15v412l-72 15v38h407l13 -124h-42l-52 75h-155v-179h96l27 57h32v-167h-32l-27 63h-96v-194zM231 674q0 27 18.5 46t45.5 19t46.5 -19t19.5 -46t-19.5 -45.5t-46.5 -18.5t-45.5 18.5t-18.5 45.5z" />
<glyph unicode="&#x117;" horiz-adv-x="577" d="M240 49h182l58 89h43l-21 -138h-433v38l72 15v412l-72 15v38h407l13 -124h-42l-52 75h-155v-179h96l27 57h32v-167h-32l-27 63h-96v-194zM231 674q0 27 18.5 46t45.5 19t46.5 -19t19.5 -46t-19.5 -45.5t-46.5 -18.5t-45.5 18.5t-18.5 45.5z" />
<glyph unicode="&#x118;" horiz-adv-x="577" d="M421 -7l-4 7h-348v38l72 15v412l-72 15v38h407l13 -124h-42l-52 75h-155v-179h96l27 57h32v-167h-32l-27 63h-96v-194h182l58 89h43l-21 -138q-54 -24 -81 -60.5t-27 -70.5q0 -28 15.5 -45t38.5 -17q18 0 38 6l6 -26q-28 -11 -68 -11q-49 0 -79 21t-30 58q0 73 106 138z " />
<glyph unicode="&#x119;" horiz-adv-x="577" d="M421 -7l-4 7h-348v38l72 15v412l-72 15v38h407l13 -124h-42l-52 75h-155v-179h96l27 57h32v-167h-32l-27 63h-96v-194h182l58 89h43l-21 -138q-54 -24 -81 -60.5t-27 -70.5q0 -28 15.5 -45t38.5 -17q18 0 38 6l6 -26q-28 -11 -68 -11q-49 0 -79 21t-30 58q0 73 106 138z " />
<glyph unicode="&#x11a;" horiz-adv-x="577" d="M240 49h182l58 89h43l-21 -138h-433v38l72 15v412l-72 15v38h407l13 -124h-42l-52 75h-155v-179h96l27 57h32v-167h-32l-27 63h-96v-194zM441 740v-8l-121 -164h-48l-121 164v8h46l99 -99l99 99h46z" />
<glyph unicode="&#x11b;" horiz-adv-x="577" d="M240 49h182l58 89h43l-21 -138h-433v38l72 15v412l-72 15v38h407l13 -124h-42l-52 75h-155v-179h96l27 57h32v-167h-32l-27 63h-96v-194zM441 740v-8l-121 -164h-48l-121 164v8h46l99 -99l99 99h46z" />
<glyph unicode="&#x11e;" horiz-adv-x="654" d="M343 41q66 0 104 30v130l-87 19v38h248v-38l-62 -15v-163q-93 -55 -203 -55q-115 0 -194.5 72t-79.5 197q0 122 79.5 196.5t196.5 74.5q91 0 196 -56v-121h-38q-46 127 -158 127q-71 0 -118.5 -57.5t-47.5 -162.5q0 -97 47.5 -156.5t116.5 -59.5zM333 573q-50 0 -85 39 t-35 113h40q0 -35 22.5 -61.5t57.5 -26.5q32 0 56 25.5t24 62.5h40q0 -74 -35 -113t-85 -39z" />
<glyph unicode="&#x11f;" horiz-adv-x="654" d="M343 41q66 0 104 30v130l-87 19v38h248v-38l-62 -15v-163q-93 -55 -203 -55q-115 0 -194.5 72t-79.5 197q0 122 79.5 196.5t196.5 74.5q91 0 196 -56v-121h-38q-46 127 -158 127q-71 0 -118.5 -57.5t-47.5 -162.5q0 -97 47.5 -156.5t116.5 -59.5zM333 573q-50 0 -85 39 t-35 113h40q0 -35 22.5 -61.5t57.5 -26.5q32 0 56 25.5t24 62.5h40q0 -74 -35 -113t-85 -39z" />
<glyph unicode="&#x120;" horiz-adv-x="654" d="M343 41q66 0 104 30v130l-87 19v38h248v-38l-62 -15v-163q-93 -55 -203 -55q-115 0 -194.5 72t-79.5 197q0 122 79.5 196.5t196.5 74.5q91 0 196 -56v-121h-38q-46 127 -158 127q-71 0 -118.5 -57.5t-47.5 -162.5q0 -97 47.5 -156.5t116.5 -59.5zM268 674q0 27 18.5 46 t45.5 19t46.5 -19t19.5 -46t-19.5 -45.5t-46.5 -18.5t-45.5 18.5t-18.5 45.5z" />
<glyph unicode="&#x121;" horiz-adv-x="654" d="M343 41q66 0 104 30v130l-87 19v38h248v-38l-62 -15v-163q-93 -55 -203 -55q-115 0 -194.5 72t-79.5 197q0 122 79.5 196.5t196.5 74.5q91 0 196 -56v-121h-38q-46 127 -158 127q-71 0 -118.5 -57.5t-47.5 -162.5q0 -97 47.5 -156.5t116.5 -59.5zM268 674q0 27 18.5 46 t45.5 19t46.5 -19t19.5 -46t-19.5 -45.5t-46.5 -18.5t-45.5 18.5t-18.5 45.5z" />
<glyph unicode="&#x122;" horiz-adv-x="654" d="M343 41q66 0 104 30v130l-87 19v38h248v-38l-62 -15v-163q-93 -55 -203 -55q-115 0 -194.5 72t-79.5 197q0 122 79.5 196.5t196.5 74.5q91 0 196 -56v-121h-38q-46 127 -158 127q-71 0 -118.5 -57.5t-47.5 -162.5q0 -97 47.5 -156.5t116.5 -59.5zM288 -80q0 14 12.5 25.5 t32.5 11.5q28 0 47 -22.5t19 -57.5q0 -65 -85 -112l-19 28q47 27 47 58q0 18 -27 35.5t-27 33.5z" />
<glyph unicode="&#x123;" horiz-adv-x="654" d="M343 41q66 0 104 30v130l-87 19v38h248v-38l-62 -15v-163q-93 -55 -203 -55q-115 0 -194.5 72t-79.5 197q0 122 79.5 196.5t196.5 74.5q91 0 196 -56v-121h-38q-46 127 -158 127q-71 0 -118.5 -57.5t-47.5 -162.5q0 -97 47.5 -156.5t116.5 -59.5zM288 -80q0 14 12.5 25.5 t32.5 11.5q28 0 47 -22.5t19 -57.5q0 -65 -85 -112l-19 28q47 27 47 58q0 18 -27 35.5t-27 33.5z" />
<glyph unicode="&#x126;" horiz-adv-x="732" d="M89 405h52v60l-72 15v38h242v-38l-71 -15v-60h252v60l-72 15v38h243v-38l-72 -15v-60h52v-50h-52v-302l72 -15v-38h-243v38l72 15v190h-252v-190l71 -15v-38h-242v38l72 15v302h-52v50zM240 290h252v65h-252v-65z" />
<glyph unicode="&#x127;" horiz-adv-x="732" d="M89 405h52v60l-72 15v38h242v-38l-71 -15v-60h252v60l-72 15v38h243v-38l-72 -15v-60h52v-50h-52v-302l72 -15v-38h-243v38l72 15v190h-252v-190l71 -15v-38h-242v38l72 15v302h-52v50zM240 290h252v65h-252v-65z" />
<glyph unicode="&#x12a;" horiz-adv-x="400" d="M79 518h242v-38l-71 -15v-412l71 -15v-38h-242v38l72 15v412l-72 15v38zM327 610h-254v58h254v-58z" />
<glyph unicode="&#x12b;" horiz-adv-x="400" d="M79 518h242v-38l-71 -15v-412l71 -15v-38h-242v38l72 15v412l-72 15v38zM327 610h-254v58h254v-58z" />
<glyph unicode="&#x12e;" horiz-adv-x="400" d="M242 -7l-2 7h-161v38l72 15v412l-72 15v38h242v-38l-71 -15v-412l71 -15v-38q-104 -48 -104 -131q0 -28 15.5 -45t38.5 -17q18 0 38 6l6 -26q-27 -11 -68 -11q-49 0 -79 21t-30 58q0 36 28 72.5t76 65.5z" />
<glyph unicode="&#x12f;" horiz-adv-x="400" d="M242 -7l-2 7h-161v38l72 15v412l-72 15v38h242v-38l-71 -15v-412l71 -15v-38q-104 -48 -104 -131q0 -28 15.5 -45t38.5 -17q18 0 38 6l6 -26q-27 -11 -68 -11q-49 0 -79 21t-30 58q0 36 28 72.5t76 65.5z" />
<glyph unicode="&#x130;" horiz-adv-x="400" d="M79 518h242v-38l-71 -15v-412l71 -15v-38h-242v38l72 15v412l-72 15v38zM135 674q0 27 18.5 46t45.5 19t46.5 -19t19.5 -46t-19.5 -45.5t-46.5 -18.5t-45.5 18.5t-18.5 45.5z" />
<glyph unicode="&#x131;" horiz-adv-x="400" d="M79 518h242v-38l-71 -15v-412l71 -15v-38h-242v38l72 15v412l-72 15v38z" />
<glyph unicode="&#x136;" horiz-adv-x="640" d="M256 248h-16v-195l66 -15v-38h-237v38l72 15v412l-72 15v38h242v-38l-71 -15v-175h19l176 170l-63 20v38h207v-38l-75 -20l-170 -162l210 -248l57 -12v-38h-237v38l56 15zM289 -81q0 14 12.5 25.5t32.5 11.5q28 0 47 -22.5t19 -57.5q0 -65 -85 -112l-19 28q47 27 47 58 q0 18 -27 35.5t-27 33.5z" />
<glyph unicode="&#x137;" horiz-adv-x="640" d="M256 248h-16v-195l66 -15v-38h-237v38l72 15v412l-72 15v38h242v-38l-71 -15v-175h19l176 170l-63 20v38h207v-38l-75 -20l-170 -162l210 -248l57 -12v-38h-237v38l56 15zM289 -81q0 14 12.5 25.5t32.5 11.5q28 0 47 -22.5t19 -57.5q0 -65 -85 -112l-19 28q47 27 47 58 q0 18 -27 35.5t-27 33.5z" />
<glyph unicode="&#x139;" horiz-adv-x="549" d="M484 0h-415v38l72 15v412l-72 15v38h246v-38l-75 -15v-416h155l67 97h43zM133 568v8l86 129h94v-10l-129 -127h-51z" />
<glyph unicode="&#x13a;" horiz-adv-x="549" d="M484 0h-415v38l72 15v412l-72 15v38h246v-38l-75 -15v-416h155l67 97h43zM133 568v8l86 129h94v-10l-129 -127h-51z" />
<glyph unicode="&#x13b;" horiz-adv-x="549" d="M484 0h-415v38l72 15v412l-72 15v38h246v-38l-75 -15v-416h155l67 97h43zM238 -81q0 14 12.5 25.5t32.5 11.5q28 0 47 -22.5t19 -57.5q0 -65 -85 -112l-19 28q47 27 47 58q0 18 -27 35.5t-27 33.5z" />
<glyph unicode="&#x13c;" horiz-adv-x="549" d="M484 0h-415v38l72 15v412l-72 15v38h246v-38l-75 -15v-416h155l67 97h43zM238 -81q0 14 12.5 25.5t32.5 11.5q28 0 47 -22.5t19 -57.5q0 -65 -85 -112l-19 28q47 27 47 58q0 18 -27 35.5t-27 33.5z" />
<glyph unicode="&#x13d;" horiz-adv-x="549" d="M380 311v8l16 199h84v-10l-54 -197h-46zM484 0h-415v38l72 15v412l-72 15v38h246v-38l-75 -15v-416h155l67 97h43z" />
<glyph unicode="&#x13e;" horiz-adv-x="549" d="M380 311v8l16 199h84v-10l-54 -197h-46zM484 0h-415v38l72 15v412l-72 15v38h246v-38l-75 -15v-416h155l67 97h43z" />
<glyph unicode="&#x13f;" horiz-adv-x="586" d="M484 0h-415v38l72 15v412l-72 15v38h246v-38l-75 -15v-416h155l67 97h43zM465 284q0 27 18.5 46t45.5 19t46 -19t19 -46t-19 -45.5t-46 -18.5t-45.5 18.5t-18.5 45.5z" />
<glyph unicode="&#x140;" horiz-adv-x="586" d="M484 0h-415v38l72 15v412l-72 15v38h246v-38l-75 -15v-416h155l67 97h43zM465 284q0 27 18.5 46t45.5 19t46 -19t19 -46t-19 -45.5t-46 -18.5t-45.5 18.5t-18.5 45.5z" />
<glyph unicode="&#x141;" horiz-adv-x="549" d="M484 0h-415v38l72 15v129l-73 -38v49l73 38v234l-72 15v38h246v-38l-75 -15v-182l158 84v-49l-158 -84v-185h155l67 97h43z" />
<glyph unicode="&#x142;" horiz-adv-x="549" d="M484 0h-415v38l72 15v129l-73 -38v49l73 38v234l-72 15v38h246v-38l-75 -15v-182l158 84v-49l-158 -84v-185h155l67 97h43z" />
<glyph unicode="&#x143;" horiz-adv-x="693" d="M498 177h12v278l-82 25v38h208v-38l-71 -25v-462h-30l-340 400h-12v-330l82 -25v-38h-201v38l64 25v402l-64 15v38h143zM290 568v8l86 164h94v-10l-129 -162h-51z" />
<glyph unicode="&#x144;" horiz-adv-x="693" d="M498 177h12v278l-82 25v38h208v-38l-71 -25v-462h-30l-340 400h-12v-330l82 -25v-38h-201v38l64 25v402l-64 15v38h143zM290 568v8l86 164h94v-10l-129 -162h-51z" />
<glyph unicode="&#x145;" horiz-adv-x="693" d="M498 177h12v278l-82 25v38h208v-38l-71 -25v-462h-30l-340 400h-12v-330l82 -25v-38h-201v38l64 25v402l-64 15v38h143zM303 -81q0 14 12.5 25.5t32.5 11.5q28 0 47 -22.5t19 -57.5q0 -65 -85 -112l-19 28q47 27 47 58q0 18 -27 35.5t-27 33.5z" />
<glyph unicode="&#x146;" horiz-adv-x="693" d="M498 177h12v278l-82 25v38h208v-38l-71 -25v-462h-30l-340 400h-12v-330l82 -25v-38h-201v38l64 25v402l-64 15v38h143zM303 -81q0 14 12.5 25.5t32.5 11.5q28 0 47 -22.5t19 -57.5q0 -65 -85 -112l-19 28q47 27 47 58q0 18 -27 35.5t-27 33.5z" />
<glyph unicode="&#x147;" horiz-adv-x="693" d="M498 177h12v278l-82 25v38h208v-38l-71 -25v-462h-30l-340 400h-12v-330l82 -25v-38h-201v38l64 25v402l-64 15v38h143zM495 740v-8l-121 -164h-48l-121 164v8h46l99 -99l99 99h46z" />
<glyph unicode="&#x148;" horiz-adv-x="693" d="M498 177h12v278l-82 25v38h208v-38l-71 -25v-462h-30l-340 400h-12v-330l82 -25v-38h-201v38l64 25v402l-64 15v38h143zM495 740v-8l-121 -164h-48l-121 164v8h46l99 -99l99 99h46z" />
<glyph unicode="&#x14c;" horiz-adv-x="678" d="M69 256q0 122 78 196.5t193 74.5q119 0 194 -73.5t75 -197.5q0 -128 -76.5 -198.5t-192.5 -70.5t-193.5 72t-77.5 197zM179 257q0 -101 46.5 -158.5t114.5 -57.5q70 0 115 52.5t45 163.5q0 105 -45 162.5t-115 57.5q-69 0 -115 -58t-46 -162zM466 610h-254v58h254v-58z " />
<glyph unicode="&#x14d;" horiz-adv-x="678" d="M69 256q0 122 78 196.5t193 74.5q119 0 194 -73.5t75 -197.5q0 -128 -76.5 -198.5t-192.5 -70.5t-193.5 72t-77.5 197zM179 257q0 -101 46.5 -158.5t114.5 -57.5q70 0 115 52.5t45 163.5q0 105 -45 162.5t-115 57.5q-69 0 -115 -58t-46 -162zM466 610h-254v58h254v-58z " />
<glyph unicode="&#x150;" horiz-adv-x="678" d="M69 256q0 122 78 196.5t193 74.5q119 0 194 -73.5t75 -197.5q0 -128 -76.5 -198.5t-192.5 -70.5t-193.5 72t-77.5 197zM179 257q0 -101 46.5 -158.5t114.5 -57.5q70 0 115 52.5t45 163.5q0 105 -45 162.5t-115 57.5q-69 0 -115 -58t-46 -162zM369 568v8l86 164h94v-10 l-139 -162h-41zM229 568v8l86 164h94v-10l-139 -162h-41z" />
<glyph unicode="&#x151;" horiz-adv-x="678" d="M69 256q0 122 78 196.5t193 74.5q119 0 194 -73.5t75 -197.5q0 -128 -76.5 -198.5t-192.5 -70.5t-193.5 72t-77.5 197zM179 257q0 -101 46.5 -158.5t114.5 -57.5q70 0 115 52.5t45 163.5q0 105 -45 162.5t-115 57.5q-69 0 -115 -58t-46 -162zM369 568v8l86 164h94v-10 l-139 -162h-41zM229 568v8l86 164h94v-10l-139 -162h-41z" />
<glyph unicode="&#x152;" horiz-adv-x="850" d="M513 49h182l58 89h43l-21 -138h-343q-42 -13 -92 -13q-116 0 -193.5 72t-77.5 197q0 122 78 196.5t193 74.5q39 0 75 -9h334l13 -124h-42l-52 75h-155v-179h96l27 57h32v-167h-32l-27 63h-96v-194zM340 41q42 0 74 18v398q-34 20 -74 20q-69 0 -115 -58t-46 -162 q0 -101 46.5 -158.5t114.5 -57.5z" />
<glyph unicode="&#x153;" horiz-adv-x="850" d="M513 49h182l58 89h43l-21 -138h-343q-42 -13 -92 -13q-116 0 -193.5 72t-77.5 197q0 122 78 196.5t193 74.5q39 0 75 -9h334l13 -124h-42l-52 75h-155v-179h96l27 57h32v-167h-32l-27 63h-96v-194zM340 41q42 0 74 18v398q-34 20 -74 20q-69 0 -115 -58t-46 -162 q0 -101 46.5 -158.5t114.5 -57.5z" />
<glyph unicode="&#x154;" horiz-adv-x="621" d="M384 253v-9q23 -11 48 -49t52.5 -81t52.5 -61l45 -15v-38h-120q-26 17 -52 53t-44 70t-43.5 66.5t-52.5 42.5h-30v-179l71 -15v-38h-242v38l72 15v412l-72 15v38h271q25 0 50.5 -6t52.5 -20t44 -42.5t17 -67.5q0 -45 -32 -82t-88 -47zM240 465v-186h55q51 0 78 31t27 69 q0 44 -21.5 65t-54.5 21h-84zM238 568v8l86 164h94v-10l-129 -162h-51z" />
<glyph unicode="&#x155;" horiz-adv-x="621" d="M384 253v-9q23 -11 48 -49t52.5 -81t52.5 -61l45 -15v-38h-120q-26 17 -52 53t-44 70t-43.5 66.5t-52.5 42.5h-30v-179l71 -15v-38h-242v38l72 15v412l-72 15v38h271q25 0 50.5 -6t52.5 -20t44 -42.5t17 -67.5q0 -45 -32 -82t-88 -47zM240 465v-186h55q51 0 78 31t27 69 q0 44 -21.5 65t-54.5 21h-84zM238 568v8l86 164h94v-10l-129 -162h-51z" />
<glyph unicode="&#x158;" horiz-adv-x="621" d="M384 253v-9q23 -11 48 -49t52.5 -81t52.5 -61l45 -15v-38h-120q-26 17 -52 53t-44 70t-43.5 66.5t-52.5 42.5h-30v-179l71 -15v-38h-242v38l72 15v412l-72 15v38h271q25 0 50.5 -6t52.5 -20t44 -42.5t17 -67.5q0 -45 -32 -82t-88 -47zM240 465v-186h55q51 0 78 31t27 69 q0 44 -21.5 65t-54.5 21h-84zM443 740v-8l-121 -164h-48l-121 164v8h46l99 -99l99 99h46z" />
<glyph unicode="&#x159;" horiz-adv-x="621" d="M384 253v-9q23 -11 48 -49t52.5 -81t52.5 -61l45 -15v-38h-120q-26 17 -52 53t-44 70t-43.5 66.5t-52.5 42.5h-30v-179l71 -15v-38h-242v38l72 15v412l-72 15v38h271q25 0 50.5 -6t52.5 -20t44 -42.5t17 -67.5q0 -45 -32 -82t-88 -47zM240 465v-186h55q51 0 78 31t27 69 q0 44 -21.5 65t-54.5 21h-84zM443 740v-8l-121 -164h-48l-121 164v8h46l99 -99l99 99h46z" />
<glyph unicode="&#x15a;" horiz-adv-x="543" d="M90 2v172h48q15 -67 49 -102.5t85 -35.5q39 0 63.5 22.5t24.5 57.5q0 34 -22 57t-88 51q-76 33 -112 69.5t-36 88.5q0 56 45 100.5t119 44.5q37 0 96 -24l36 15h26l18 -157h-47q-18 58 -51 87t-74 29q-36 0 -57.5 -19.5t-21.5 -54.5q0 -31 27.5 -52.5t94.5 -47.5 q69 -27 102.5 -64t33.5 -95q0 -75 -49.5 -116t-127.5 -41q-57 0 -101 30l-43 -15h-38zM216 568v8l86 164h94v-10l-129 -162h-51z" />
<glyph unicode="&#x15b;" horiz-adv-x="543" d="M90 2v172h48q15 -67 49 -102.5t85 -35.5q39 0 63.5 22.5t24.5 57.5q0 34 -22 57t-88 51q-76 33 -112 69.5t-36 88.5q0 56 45 100.5t119 44.5q37 0 96 -24l36 15h26l18 -157h-47q-18 58 -51 87t-74 29q-36 0 -57.5 -19.5t-21.5 -54.5q0 -31 27.5 -52.5t94.5 -47.5 q69 -27 102.5 -64t33.5 -95q0 -75 -49.5 -116t-127.5 -41q-57 0 -101 30l-43 -15h-38zM216 568v8l86 164h94v-10l-129 -162h-51z" />
<glyph unicode="&#x15e;" horiz-adv-x="543" d="M223 -224l-8 25q39 6 63 22.5t24 39.5q0 42 -71 42q-16 0 -30 -2l-5 7l42 81q-42 8 -67 26l-43 -15h-38v172h48q15 -67 49 -102.5t85 -35.5q39 0 63.5 22.5t24.5 57.5q0 34 -22 57t-88 51q-76 33 -112 69.5t-36 88.5q0 56 45 100.5t119 44.5q37 0 96 -24l36 15h26 l18 -157h-47q-18 58 -51 87t-74 29q-36 0 -57.5 -19.5t-21.5 -54.5q0 -31 27.5 -52.5t94.5 -47.5q69 -27 102.5 -64t33.5 -95q0 -73 -47 -114t-121 -43l-20 -37q46 0 75.5 -18t29.5 -54q0 -38 -42 -66t-101 -36z" />
<glyph unicode="&#x15f;" horiz-adv-x="543" d="M223 -224l-8 25q39 6 63 22.5t24 39.5q0 42 -71 42q-16 0 -30 -2l-5 7l42 81q-42 8 -67 26l-43 -15h-38v172h48q15 -67 49 -102.5t85 -35.5q39 0 63.5 22.5t24.5 57.5q0 34 -22 57t-88 51q-76 33 -112 69.5t-36 88.5q0 56 45 100.5t119 44.5q37 0 96 -24l36 15h26 l18 -157h-47q-18 58 -51 87t-74 29q-36 0 -57.5 -19.5t-21.5 -54.5q0 -31 27.5 -52.5t94.5 -47.5q69 -27 102.5 -64t33.5 -95q0 -73 -47 -114t-121 -43l-20 -37q46 0 75.5 -18t29.5 -54q0 -38 -42 -66t-101 -36z" />
<glyph unicode="&#x160;" horiz-adv-x="543" d="M90 2v172h48q15 -67 49 -102.5t85 -35.5q39 0 63.5 22.5t24.5 57.5q0 34 -22 57t-88 51q-76 33 -112 69.5t-36 88.5q0 56 45 100.5t119 44.5q37 0 96 -24l36 15h26l18 -157h-47q-18 58 -51 87t-74 29q-36 0 -57.5 -19.5t-21.5 -54.5q0 -31 27.5 -52.5t94.5 -47.5 q69 -27 102.5 -64t33.5 -95q0 -75 -49.5 -116t-127.5 -41q-57 0 -101 30l-43 -15h-38zM421 740v-8l-121 -164h-48l-121 164v8h46l99 -99l99 99h46z" />
<glyph unicode="&#x161;" horiz-adv-x="543" d="M90 2v172h48q15 -67 49 -102.5t85 -35.5q39 0 63.5 22.5t24.5 57.5q0 34 -22 57t-88 51q-76 33 -112 69.5t-36 88.5q0 56 45 100.5t119 44.5q37 0 96 -24l36 15h26l18 -157h-47q-18 58 -51 87t-74 29q-36 0 -57.5 -19.5t-21.5 -54.5q0 -31 27.5 -52.5t94.5 -47.5 q69 -27 102.5 -64t33.5 -95q0 -75 -49.5 -116t-127.5 -41q-57 0 -101 30l-43 -15h-38zM421 740v-8l-121 -164h-48l-121 164v8h46l99 -99l99 99h46z" />
<glyph unicode="&#x162;" horiz-adv-x="599" d="M63 518h473l24 -146h-43l-66 99h-102v-418l75 -15v-38h-249v38l75 15v418h-102l-67 -99h-42zM254 -81q0 14 12.5 25.5t32.5 11.5q28 0 47 -22.5t19 -57.5q0 -65 -85 -112l-19 28q47 27 47 58q0 18 -27 35.5t-27 33.5z" />
<glyph unicode="&#x163;" horiz-adv-x="599" d="M63 518h473l24 -146h-43l-66 99h-102v-418l75 -15v-38h-249v38l75 15v418h-102l-67 -99h-42zM254 -81q0 14 12.5 25.5t32.5 11.5q28 0 47 -22.5t19 -57.5q0 -65 -85 -112l-19 28q47 27 47 58q0 18 -27 35.5t-27 33.5z" />
<glyph unicode="&#x164;" horiz-adv-x="599" d="M63 518h473l24 -146h-43l-66 99h-102v-418l75 -15v-38h-249v38l75 15v418h-102l-67 -99h-42zM444 740v-8l-121 -164h-48l-121 164v8h46l99 -99l99 99h46z" />
<glyph unicode="&#x165;" horiz-adv-x="599" d="M63 518h473l24 -146h-43l-66 99h-102v-418l75 -15v-38h-249v38l75 15v418h-102l-67 -99h-42zM444 740v-8l-121 -164h-48l-121 164v8h46l99 -99l99 99h46z" />
<glyph unicode="&#x16a;" horiz-adv-x="661" d="M409 518h203v-38l-66 -25v-254q0 -37 -12.5 -73.5t-37 -68.5t-67.5 -52t-98 -20q-95 0 -152.5 59t-57.5 132v287l-72 15v38h242v-38l-71 -15v-275q0 -63 34 -103.5t94 -40.5q63 0 102.5 43.5t39.5 125.5v240l-81 25v38zM477 610h-254v58h254v-58z" />
<glyph unicode="&#x16b;" horiz-adv-x="661" d="M409 518h203v-38l-66 -25v-254q0 -37 -12.5 -73.5t-37 -68.5t-67.5 -52t-98 -20q-95 0 -152.5 59t-57.5 132v287l-72 15v38h242v-38l-71 -15v-275q0 -63 34 -103.5t94 -40.5q63 0 102.5 43.5t39.5 125.5v240l-81 25v38zM477 610h-254v58h254v-58z" />
<glyph unicode="&#x16e;" horiz-adv-x="661" d="M409 518h203v-38l-66 -25v-254q0 -37 -12.5 -73.5t-37 -68.5t-67.5 -52t-98 -20q-95 0 -152.5 59t-57.5 132v287l-72 15v38h242v-38l-71 -15v-275q0 -63 34 -103.5t94 -40.5q63 0 102.5 43.5t39.5 125.5v240l-81 25v38zM256 652q0 39 27.5 66.5t66.5 27.5t66.5 -27.5 t27.5 -66.5t-27.5 -66.5t-66.5 -27.5t-66.5 27.5t-27.5 66.5zM302 652q0 -22 13 -36.5t34 -14.5t34.5 14.5t13.5 36.5t-13.5 37.5t-34.5 15.5t-34 -15.5t-13 -37.5z" />
<glyph unicode="&#x16f;" horiz-adv-x="661" d="M409 518h203v-38l-66 -25v-254q0 -37 -12.5 -73.5t-37 -68.5t-67.5 -52t-98 -20q-95 0 -152.5 59t-57.5 132v287l-72 15v38h242v-38l-71 -15v-275q0 -63 34 -103.5t94 -40.5q63 0 102.5 43.5t39.5 125.5v240l-81 25v38zM256 652q0 39 27.5 66.5t66.5 27.5t66.5 -27.5 t27.5 -66.5t-27.5 -66.5t-66.5 -27.5t-66.5 27.5t-27.5 66.5zM302 652q0 -22 13 -36.5t34 -14.5t34.5 14.5t13.5 36.5t-13.5 37.5t-34.5 15.5t-34 -15.5t-13 -37.5z" />
<glyph unicode="&#x170;" horiz-adv-x="661" d="M409 518h203v-38l-66 -25v-254q0 -37 -12.5 -73.5t-37 -68.5t-67.5 -52t-98 -20q-95 0 -152.5 59t-57.5 132v287l-72 15v38h242v-38l-71 -15v-275q0 -63 34 -103.5t94 -40.5q63 0 102.5 43.5t39.5 125.5v240l-81 25v38zM380 568v8l86 164h94v-10l-139 -162h-41zM240 568 v8l86 164h94v-10l-139 -162h-41z" />
<glyph unicode="&#x171;" horiz-adv-x="661" d="M409 518h203v-38l-66 -25v-254q0 -37 -12.5 -73.5t-37 -68.5t-67.5 -52t-98 -20q-95 0 -152.5 59t-57.5 132v287l-72 15v38h242v-38l-71 -15v-275q0 -63 34 -103.5t94 -40.5q63 0 102.5 43.5t39.5 125.5v240l-81 25v38zM380 568v8l86 164h94v-10l-139 -162h-41zM240 568 v8l86 164h94v-10l-139 -162h-41z" />
<glyph unicode="&#x172;" horiz-adv-x="661" d="M352 -16l-2 4q-6 -1 -19 -1q-95 0 -152.5 59t-57.5 132v287l-72 15v38h242v-38l-71 -15v-275q0 -63 34 -103.5t94 -40.5q63 0 102.5 43.5t39.5 125.5v240l-81 25v38h203v-38l-66 -25v-254q0 -53 -25.5 -104t-74.5 -82q-104 -65 -104 -146q0 -28 15.5 -45t38.5 -17 q18 0 38 6l6 -26q-28 -11 -68 -11q-49 0 -79 21t-30 58q0 67 89 129z" />
<glyph unicode="&#x173;" horiz-adv-x="661" d="M352 -16l-2 4q-6 -1 -19 -1q-95 0 -152.5 59t-57.5 132v287l-72 15v38h242v-38l-71 -15v-275q0 -63 34 -103.5t94 -40.5q63 0 102.5 43.5t39.5 125.5v240l-81 25v38h203v-38l-66 -25v-254q0 -53 -25.5 -104t-74.5 -82q-104 -65 -104 -146q0 -28 15.5 -45t38.5 -17 q18 0 38 6l6 -26q-28 -11 -68 -11q-49 0 -79 21t-30 58q0 67 89 129z" />
<glyph unicode="&#x174;" horiz-adv-x="851" d="M525 0l-106 318l-108 -318h-59l-153 465l-60 15v38h227v-38l-67 -15l99 -305h13l85 229l-25 76l-51 15v38h218v-38l-67 -15l100 -305h13l106 295l-81 25v38h203v-38l-64 -25l-167 -455h-56zM580 576v-8h-46l-99 99l-99 -99h-46v8l121 164h48z" />
<glyph unicode="&#x175;" horiz-adv-x="851" d="M525 0l-106 318l-108 -318h-59l-153 465l-60 15v38h227v-38l-67 -15l99 -305h13l85 229l-25 76l-51 15v38h218v-38l-67 -15l100 -305h13l106 295l-81 25v38h203v-38l-64 -25l-167 -455h-56zM580 576v-8h-46l-99 99l-99 -99h-46v8l121 164h48z" />
<glyph unicode="&#x176;" horiz-adv-x="603" d="M332 276l108 179l-79 25v38h203v-38l-65 -25l-148 -246v-156l72 -15v-38h-243v38l72 15v156l-151 256l-62 15v38h232v-38l-61 -15l108 -189h14zM461 576v-8h-46l-99 99l-99 -99h-46v8l121 164h48z" />
<glyph unicode="&#x177;" horiz-adv-x="603" d="M332 276l108 179l-79 25v38h203v-38l-65 -25l-148 -246v-156l72 -15v-38h-243v38l72 15v156l-151 256l-62 15v38h232v-38l-61 -15l108 -189h14zM461 576v-8h-46l-99 99l-99 -99h-46v8l121 164h48z" />
<glyph unicode="&#x178;" horiz-adv-x="603" d="M332 276l108 179l-79 25v38h203v-38l-65 -25l-148 -246v-156l72 -15v-38h-243v38l72 15v156l-151 256l-62 15v38h232v-38l-61 -15l108 -189h14zM454 649q0 -20 -16 -35.5t-36 -15.5q-21 0 -37 15.5t-16 35.5q0 21 16 37t37 16q20 0 36 -16t16 -37zM283 649 q0 -21 -15.5 -36t-36.5 -15t-37 15.5t-16 35.5q0 21 16 37t37 16t36.5 -16t15.5 -37z" />
<glyph unicode="&#x179;" horiz-adv-x="583" d="M493 0h-423l-10 20l312 437l-6 12h-186l-66 -107h-43l30 156h411l10 -15l-320 -444l5 -10h205l68 107h43zM246 568v8l86 164h94v-10l-129 -162h-51z" />
<glyph unicode="&#x17a;" horiz-adv-x="583" d="M493 0h-423l-10 20l312 437l-6 12h-186l-66 -107h-43l30 156h411l10 -15l-320 -444l5 -10h205l68 107h43zM246 568v8l86 164h94v-10l-129 -162h-51z" />
<glyph unicode="&#x17b;" horiz-adv-x="583" d="M493 0h-423l-10 20l312 437l-6 12h-186l-66 -107h-43l30 156h411l10 -15l-320 -444l5 -10h205l68 107h43zM241 674q0 27 18.5 46t45.5 19t46.5 -19t19.5 -46t-19.5 -45.5t-46.5 -18.5t-45.5 18.5t-18.5 45.5z" />
<glyph unicode="&#x17c;" horiz-adv-x="583" d="M493 0h-423l-10 20l312 437l-6 12h-186l-66 -107h-43l30 156h411l10 -15l-320 -444l5 -10h205l68 107h43zM241 674q0 27 18.5 46t45.5 19t46.5 -19t19.5 -46t-19.5 -45.5t-46.5 -18.5t-45.5 18.5t-18.5 45.5z" />
<glyph unicode="&#x17d;" horiz-adv-x="583" d="M493 0h-423l-10 20l312 437l-6 12h-186l-66 -107h-43l30 156h411l10 -15l-320 -444l5 -10h205l68 107h43zM451 740v-8l-121 -164h-48l-121 164v8h46l99 -99l99 99h46z" />
<glyph unicode="&#x17e;" horiz-adv-x="583" d="M493 0h-423l-10 20l312 437l-6 12h-186l-66 -107h-43l30 156h411l10 -15l-320 -444l5 -10h205l68 107h43zM451 740v-8l-121 -164h-48l-121 164v8h46l99 -99l99 99h46z" />
<glyph unicode="&#x192;" horiz-adv-x="540" d="M94 309l14 49h94l25 100q17 70 68 125t125 55q55 0 90 -21.5t35 -51.5q0 -20 -11 -33.5t-34 -13.5q-17 0 -28.5 11t-16.5 25t-17.5 25t-31.5 11q-31 0 -50.5 -34t-39.5 -105l-26 -93h120l-14 -49h-117l-88 -327q-23 -85 -65.5 -137t-99.5 -52q-41 0 -69.5 19.5 t-28.5 49.5q0 19 10 32t27 13q14 0 25 -10.5t17 -23.5t15.5 -23.5t20.5 -10.5q32 0 64 130l86 340h-99z" />
<glyph unicode="&#x218;" horiz-adv-x="543" d="M90 2v172h48q15 -67 49 -102.5t85 -35.5q39 0 63.5 22.5t24.5 57.5q0 34 -22 57t-88 51q-76 33 -112 69.5t-36 88.5q0 56 45 100.5t119 44.5q37 0 96 -24l36 15h26l18 -157h-47q-18 58 -51 87t-74 29q-36 0 -57.5 -19.5t-21.5 -54.5q0 -31 27.5 -52.5t94.5 -47.5 q69 -27 102.5 -64t33.5 -95q0 -75 -49.5 -116t-127.5 -41q-57 0 -101 30l-43 -15h-38zM225 -81q0 14 12.5 25.5t32.5 11.5q28 0 47 -22.5t19 -57.5q0 -65 -85 -112l-19 28q47 27 47 58q0 18 -27 35.5t-27 33.5z" />
<glyph unicode="&#x219;" horiz-adv-x="543" d="M90 2v172h48q15 -67 49 -102.5t85 -35.5q39 0 63.5 22.5t24.5 57.5q0 34 -22 57t-88 51q-76 33 -112 69.5t-36 88.5q0 56 45 100.5t119 44.5q37 0 96 -24l36 15h26l18 -157h-47q-18 58 -51 87t-74 29q-36 0 -57.5 -19.5t-21.5 -54.5q0 -31 27.5 -52.5t94.5 -47.5 q69 -27 102.5 -64t33.5 -95q0 -75 -49.5 -116t-127.5 -41q-57 0 -101 30l-43 -15h-38zM225 -81q0 14 12.5 25.5t32.5 11.5q28 0 47 -22.5t19 -57.5q0 -65 -85 -112l-19 28q47 27 47 58q0 18 -27 35.5t-27 33.5z" />
<glyph unicode="&#x2c6;" horiz-adv-x="500" d="M395 496v-8h-46l-99 99l-99 -99h-46v8l121 164h48z" />
<glyph unicode="&#x2c7;" horiz-adv-x="500" d="M395 660v-8l-121 -164h-48l-121 164v8h46l99 -99l99 99h46z" />
<glyph unicode="&#x2d8;" horiz-adv-x="500" d="M250 493q-50 0 -85 39t-35 113h40q0 -35 22.5 -61.5t57.5 -26.5q32 0 56 25.5t24 62.5h40q0 -74 -35 -113t-85 -39z" />
<glyph unicode="&#x2d9;" horiz-adv-x="500" d="M185 594q0 27 18.5 46t45.5 19t46.5 -19t19.5 -46t-19.5 -45.5t-46.5 -18.5t-45.5 18.5t-18.5 45.5z" />
<glyph unicode="&#x2da;" horiz-adv-x="500" d="M156 572q0 39 27.5 66.5t66.5 27.5t66.5 -27.5t27.5 -66.5t-27.5 -66.5t-66.5 -27.5t-66.5 27.5t-27.5 66.5zM202 572q0 -22 13 -36.5t34 -14.5t34.5 14.5t13.5 36.5t-13.5 37.5t-34.5 15.5t-34 -15.5t-13 -37.5z" />
<glyph unicode="&#x2db;" horiz-adv-x="500" d="M294 -187l6 -26q-28 -11 -68 -11q-49 0 -79 21t-30 58q0 48 48 95t123 79l11 -21q-103 -55 -103 -139q0 -28 15.5 -45t38.5 -17q18 0 38 6z" />
<glyph unicode="&#x2dc;" horiz-adv-x="500" d="M378 648l26 -10q-14 -49 -43 -87t-55 -38q-15 0 -63.5 30t-63.5 30q-16 0 -27.5 -16t-25.5 -47l-29 12q11 40 41 81.5t48 41.5q19 0 65 -30.5t64 -30.5q17 0 36 21t27 43z" />
<glyph unicode="&#x2dd;" horiz-adv-x="500" d="M280 488v8l86 164h94v-10l-139 -162h-41zM140 488v8l86 164h94v-10l-139 -162h-41z" />
<glyph unicode="&#x3bb;" horiz-adv-x="524" d="M256 608l115 -454q16 -65 24 -83.5t23 -18.5q12 0 27 27t32 27q16 0 25 -12t9 -30q0 -32 -25 -52.5t-60 -20.5q-77 0 -100 111l-55 224l-150 -326h-101l217 467l-33 135q-18 79 -58 79q-16 0 -41 -32.5t-43 -32.5q-36 0 -36 39q0 31 31 55t80 24q48 0 78 -35.5t41 -90.5z " />
<glyph unicode="&#x3c0;" horiz-adv-x="540" d="M167 22q-26 -43 -65 -32q-28 8 -33 34q-5 24 19 43q56 57 80 127t24 183h-31q-35 0 -53 -13t-27 -48l-27 5q15 64 37.5 91t62.5 27h332v-62h-101l-21 -254q-4 -51 32 -51q42 0 65 62l25 -3q-36 -138 -112 -138q-43 0 -63 29t-15 79l27 276h-84q-5 -239 -72 -355z" />
<glyph unicode="&#x1e80;" horiz-adv-x="851" d="M525 0l-106 318l-108 -318h-59l-153 465l-60 15v38h227v-38l-67 -15l99 -305h13l85 229l-25 76l-51 15v38h218v-38l-67 -15l100 -305h13l106 295l-81 25v38h203v-38l-64 -25l-167 -455h-56zM495 576v-8h-51l-129 162v10h94z" />
<glyph unicode="&#x1e81;" horiz-adv-x="851" d="M525 0l-106 318l-108 -318h-59l-153 465l-60 15v38h227v-38l-67 -15l99 -305h13l85 229l-25 76l-51 15v38h218v-38l-67 -15l100 -305h13l106 295l-81 25v38h203v-38l-64 -25l-167 -455h-56zM495 576v-8h-51l-129 162v10h94z" />
<glyph unicode="&#x1e82;" horiz-adv-x="851" d="M525 0l-106 318l-108 -318h-59l-153 465l-60 15v38h227v-38l-67 -15l99 -305h13l85 229l-25 76l-51 15v38h218v-38l-67 -15l100 -305h13l106 295l-81 25v38h203v-38l-64 -25l-167 -455h-56zM375 568v8l86 164h94v-10l-129 -162h-51z" />
<glyph unicode="&#x1e83;" horiz-adv-x="851" d="M525 0l-106 318l-108 -318h-59l-153 465l-60 15v38h227v-38l-67 -15l99 -305h13l85 229l-25 76l-51 15v38h218v-38l-67 -15l100 -305h13l106 295l-81 25v38h203v-38l-64 -25l-167 -455h-56zM375 568v8l86 164h94v-10l-129 -162h-51z" />
<glyph unicode="&#x1e84;" horiz-adv-x="851" d="M525 0l-106 318l-108 -318h-59l-153 465l-60 15v38h227v-38l-67 -15l99 -305h13l85 229l-25 76l-51 15v38h218v-38l-67 -15l100 -305h13l106 295l-81 25v38h203v-38l-64 -25l-167 -455h-56zM573 649q0 -20 -16 -35.5t-36 -15.5q-21 0 -37 15.5t-16 35.5q0 21 16 37t37 16 q20 0 36 -16t16 -37zM402 649q0 -21 -15 -36t-37 -15q-21 0 -37 15.5t-16 35.5q0 21 16 37t37 16t36.5 -16t15.5 -37z" />
<glyph unicode="&#x1e85;" horiz-adv-x="851" d="M525 0l-106 318l-108 -318h-59l-153 465l-60 15v38h227v-38l-67 -15l99 -305h13l85 229l-25 76l-51 15v38h218v-38l-67 -15l100 -305h13l106 295l-81 25v38h203v-38l-64 -25l-167 -455h-56zM573 649q0 -20 -16 -35.5t-36 -15.5q-21 0 -37 15.5t-16 35.5q0 21 16 37t37 16 q20 0 36 -16t16 -37zM402 649q0 -21 -15 -36t-37 -15q-21 0 -37 15.5t-16 35.5q0 21 16 37t37 16t36.5 -16t15.5 -37z" />
<glyph unicode="&#x1e9e;" horiz-adv-x="683" d="M458 301q0 -25 25.5 -44t56 -31t56 -42.5t25.5 -75.5q0 -57 -41.5 -89t-97.5 -32q-57 0 -95 27l-30 -14h-24v134h36q27 -93 107 -93q26 0 41.5 14.5t15.5 37.5q0 25 -28 46.5t-62 35.5t-62 38.5t-28 55.5q0 22 13.5 41t29.5 30t29.5 30t13.5 42q0 34 -23 49.5t-56 15.5 q-71 0 -120 -47v-430h-171v38l72 15v410q119 64 226 64q42 0 81 -10t69 -34t30 -59q0 -25 -22.5 -46.5t-44.5 -40t-22 -36.5z" />
<glyph unicode="&#x1ef2;" horiz-adv-x="603" d="M332 276l108 179l-79 25v38h203v-38l-65 -25l-148 -246v-156l72 -15v-38h-243v38l72 15v156l-151 256l-62 15v38h232v-38l-61 -15l108 -189h14zM376 576v-8h-51l-129 162v10h94z" />
<glyph unicode="&#x1ef3;" horiz-adv-x="603" d="M332 276l108 179l-79 25v38h203v-38l-65 -25l-148 -246v-156l72 -15v-38h-243v38l72 15v156l-151 256l-62 15v38h232v-38l-61 -15l108 -189h14zM376 576v-8h-51l-129 162v10h94z" />
<glyph unicode="&#x2000;" horiz-adv-x="392" />
<glyph unicode="&#x2001;" horiz-adv-x="784" />
<glyph unicode="&#x2002;" horiz-adv-x="392" />
<glyph unicode="&#x2003;" horiz-adv-x="784" />
<glyph unicode="&#x2004;" horiz-adv-x="261" />
<glyph unicode="&#x2005;" horiz-adv-x="196" />
<glyph unicode="&#x2006;" horiz-adv-x="130" />
<glyph unicode="&#x2007;" horiz-adv-x="130" />
<glyph unicode="&#x2008;" horiz-adv-x="98" />
<glyph unicode="&#x2009;" horiz-adv-x="156" />
<glyph unicode="&#x200a;" horiz-adv-x="43" />
<glyph unicode="&#x2010;" horiz-adv-x="404" d="M77 278h250v-73h-250v73z" />
<glyph unicode="&#x2011;" horiz-adv-x="404" d="M77 278h250v-73h-250v73z" />
<glyph unicode="&#x2012;" horiz-adv-x="404" d="M77 278h250v-73h-250v73z" />
<glyph unicode="&#x2013;" horiz-adv-x="574" d="M87 278h400v-73h-400v73z" />
<glyph unicode="&#x2014;" horiz-adv-x="1110" d="M147 273h816v-63h-816v63z" />
<glyph unicode="&#x2018;" horiz-adv-x="401" d="M268 247q0 -23 -14 -37.5t-39 -14.5q-42 0 -70 38t-28 100q0 69 36.5 119.5t82.5 77.5l28 -42q-80 -60 -80 -120q0 -23 13 -39t29 -24t29 -23t13 -35z" />
<glyph unicode="&#x2019;" horiz-adv-x="401" d="M133 478q0 23 14 37.5t39 14.5q42 0 70 -38t28 -100q0 -69 -36.5 -119.5t-82.5 -77.5l-28 42q80 60 80 120q0 23 -13 39t-29 24t-29 23t-13 35z" />
<glyph unicode="&#x201a;" horiz-adv-x="401" d="M133 73q0 23 14 37.5t39 14.5q42 0 70 -38t28 -100q0 -69 -36.5 -119.5t-82.5 -77.5l-28 42q80 60 80 120q0 23 -13 39t-29 24t-29 23t-13 35z" />
<glyph unicode="&#x201c;" horiz-adv-x="641" d="M268 247q0 -23 -14 -37.5t-39 -14.5q-42 0 -70 38t-28 100q0 69 36.5 119.5t82.5 77.5l28 -42q-80 -60 -80 -120q0 -23 13 -39t29 -24t29 -23t13 -35zM508 247q0 -23 -14 -37.5t-39 -14.5q-42 0 -70 38t-28 100q0 69 36.5 119.5t82.5 77.5l28 -42q-80 -60 -80 -120 q0 -23 13 -39t29 -24t29 -23t13 -35z" />
<glyph unicode="&#x201d;" horiz-adv-x="641" d="M133 478q0 23 14 37.5t39 14.5q42 0 70 -38t28 -100q0 -69 -36.5 -119.5t-82.5 -77.5l-28 42q80 60 80 120q0 23 -13 39t-29 24t-29 23t-13 35zM373 478q0 23 14 37.5t39 14.5q42 0 70 -38t28 -100q0 -69 -36.5 -119.5t-82.5 -77.5l-28 42q80 60 80 120q0 23 -13 39 t-29 24t-29 23t-13 35z" />
<glyph unicode="&#x201e;" horiz-adv-x="641" d="M133 73q0 23 14 37.5t39 14.5q42 0 70 -38t28 -100q0 -69 -36.5 -119.5t-82.5 -77.5l-28 42q80 60 80 120q0 23 -13 39t-29 24t-29 23t-13 35zM373 73q0 23 14 37.5t39 14.5q42 0 70 -38t28 -100q0 -69 -36.5 -119.5t-82.5 -77.5l-28 42q80 60 80 120q0 23 -13 39t-29 24 t-29 23t-13 35z" />
<glyph unicode="&#x2020;" horiz-adv-x="638" d="M543 479q0 -30 -23.5 -47.5t-52.5 -12.5q-5 1 -44.5 20t-84.5 19q0 -87 8.5 -130.5t36.5 -69.5q-15 -8 -23.5 -28.5t-15 -86t-6.5 -180.5h-39q0 167 -10 225.5t-34 69.5q44 45 44 200q-34 0 -55 -6.5t-41 -18t-32 -16.5q-27 -8 -51.5 12t-24.5 50q0 29 23.5 45.5 t52.5 11.5q15 -4 33.5 -14.5t40 -17.5t54.5 -7q0 36 -6.5 60.5t-18.5 48t-16 37.5q-9 27 9 51t47 24q30 0 49.5 -24t13.5 -51q-2 -10 -20.5 -54t-18.5 -92q33 0 54 6.5t42 18.5t33 17q28 7 52 -12t24 -48z" />
<glyph unicode="&#x2021;" horiz-adv-x="638" d="M383 258q-30 -33 -37.5 -75.5t-7.5 -127.5q45 0 83 18.5t46 20.5q29 5 52.5 -12t23.5 -47q0 -29 -24.5 -48.5t-51.5 -11.5q-12 4 -32.5 16t-42 18.5t-54.5 6.5q0 -48 18.5 -91.5t20.5 -53.5q6 -28 -13.5 -52t-49.5 -24q-29 0 -47 24t-9 52q4 14 16 37t18.5 47.5t6.5 60.5 q-33 0 -54.5 -7t-40 -17.5t-33.5 -14.5q-29 -5 -52.5 11.5t-23.5 46.5q0 29 24 49t52 13q12 -5 32 -17t41 -18.5t55 -6.5q0 80 -9 128t-35 75q44 47 44 200q-34 0 -55 -6.5t-41 -18t-32 -16.5q-27 -8 -51.5 12t-24.5 50t23.5 46t52.5 11q8 -2 46 -20.5t82 -18.5 q0 36 -6.5 61t-18.5 48t-16 37q-9 27 9 51t47 24q30 0 49.5 -24t13.5 -51q-2 -10 -20.5 -54t-18.5 -92q33 0 54 6.5t42 18.5t33 17q28 7 52 -12t24 -48q0 -30 -23.5 -47.5t-52.5 -12.5q-5 1 -44.5 20t-84.5 19q0 -87 8.5 -130.5t36.5 -69.5z" />
<glyph unicode="&#x2022;" horiz-adv-x="662" d="M195 264q0 56 40 96t96 40t96 -40t40 -96t-40 -96t-96 -40t-96 40t-40 96z" />
<glyph unicode="&#x2026;" horiz-adv-x="1083" d="M167 57q0 27 18.5 46t45.5 19t46 -19t19 -46t-19 -45.5t-46 -18.5t-45.5 18.5t-18.5 45.5zM477 57q0 27 18.5 46t45.5 19t46 -19t19 -46t-19 -45.5t-46 -18.5t-45.5 18.5t-18.5 45.5zM787 57q0 27 18.5 46t45.5 19t46 -19t19 -46t-19 -45.5t-46 -18.5t-45.5 18.5 t-18.5 45.5z" />
<glyph unicode="&#x202f;" horiz-adv-x="156" />
<glyph unicode="&#x2030;" horiz-adv-x="848" d="M546 115q0 74 47 129t101 55q46 0 75 -32t29 -86q0 -86 -44 -139.5t-98 -53.5q-49 0 -79.5 36t-30.5 91zM711 254q-33 0 -62 -52.5t-29 -113.5q0 -28 11.5 -43.5t29.5 -15.5q34 0 62 41.5t28 120.5q0 30 -11.5 46.5t-28.5 16.5zM305 517l-3 -1q-1 -82 -44 -135.5 t-100 -53.5q-48 0 -78 36t-30 91q0 74 47 129t101 55q34 0 59.5 -18.5t36.5 -51.5q6 -15 25 -24.5t42 -9.5q48 0 84 31q24 67 55 67q24 0 24 -23q0 -30 -44 -61l-210 -286l-197 -282l-33 26l205 275l159 227l-2 2q-21 -12 -48 -12q-30 0 -49 19zM274 115q0 74 47 129t101 55 q46 0 75 -32t29 -86q0 -86 -44 -139.5t-98 -53.5q-49 0 -79.5 36t-30.5 91zM439 254q-33 0 -62 -52.5t-29 -113.5q0 -28 11.5 -43.5t29.5 -15.5q34 0 62 41.5t28 120.5q0 30 -11.5 46.5t-28.5 16.5zM215 593q-33 0 -62 -52.5t-29 -113.5q0 -59 43 -59q33 0 60.5 42.5 t27.5 119.5q0 30 -11.5 46.5t-28.5 16.5z" />
<glyph unicode="&#x2032;" horiz-adv-x="310" d="M73 376l70 266l96 -34l-114 -250z" />
<glyph unicode="&#x2033;" horiz-adv-x="500" d="M73 376l70 266l96 -34l-114 -250zM263 376l70 266l96 -34l-114 -250z" />
<glyph unicode="&#x2039;" horiz-adv-x="465" d="M110 240l182 219l33 -20l-108 -201v-15l108 -203l-33 -24l-182 221v23z" />
<glyph unicode="&#x203a;" horiz-adv-x="465" d="M173 459l182 -219v-23l-182 -221l-33 24l108 203v15l-108 201z" />
<glyph unicode="&#x2042;" horiz-adv-x="986" d="M516 443q49 -24 120 -44q35 -9 28 -40q-6 -27 -30 -36q-21 -7 -38 10q-63 66 -93 85q5 -56 25 -124q10 -32 -20 -43q-27 -9 -44 9q-12 14 -8 34q21 96 23 124q-47 -29 -93 -85q-20 -23 -46 -2q-24 19 -18 43q4 16 26 23q84 26 119 46q-51 22 -119 37q-30 5 -26 36 q4 28 27 36q18 7 35 -9q67 -60 95 -80q-7 52 -26 121q-10 34 21 45q28 9 47 -9q13 -14 7 -36q-2 -10 -9.5 -37t-11.5 -46t-6 -38q47 31 95 80q26 28 50 4q20 -21 12 -46q-7 -16 -24 -21q-9 -2 -28 -6.5t-30.5 -7.5t-28.5 -9t-31 -14zM306 73q49 -24 120 -44q35 -9 28 -40 q-6 -27 -30 -36q-21 -7 -38 10q-63 66 -93 85q5 -56 25 -124q10 -32 -20 -43q-27 -9 -44 9q-13 13 -8 34q21 96 23 124q-47 -29 -93 -85q-20 -23 -46 -2q-24 19 -18 43q4 16 26 23q84 26 119 46q-51 22 -119 37q-30 5 -26 36q4 28 27 36q18 7 35 -9q67 -60 95 -80 q-7 52 -26 121q-10 34 21 45q28 9 47 -9q13 -14 7 -36q-2 -10 -9.5 -37t-11.5 -46t-6 -38q47 31 95 80q26 28 50 4q20 -21 12 -46q-6 -17 -24 -21q-9 -2 -28 -6.5t-30.5 -7.5t-28.5 -9t-31 -14zM726 73q49 -24 120 -44q35 -9 28 -40q-6 -27 -30 -36q-21 -7 -38 10 q-63 66 -93 85q5 -56 25 -124q10 -32 -20 -43q-27 -9 -44 9q-13 13 -8 34q21 96 23 124q-47 -29 -93 -85q-20 -23 -46 -2q-24 19 -18 43q4 16 26 23q84 26 119 46q-51 22 -119 37q-30 5 -26 36q4 28 27 36q18 7 35 -9q67 -60 95 -80q-7 52 -26 121q-10 34 21 45q28 9 47 -9 q13 -14 7 -36q-2 -10 -9.5 -37t-11.5 -46t-6 -38q47 31 95 80q26 28 50 4q20 -21 12 -46q-6 -17 -24 -21q-9 -2 -28 -6.5t-30.5 -7.5t-28.5 -9t-31 -14z" />
<glyph unicode="&#x2044;" d="M119 -54l241 370l223 353l40 -26l-234 -349l-231 -375z" />
<glyph unicode="&#x205f;" horiz-adv-x="196" />
<glyph unicode="&#x2070;" horiz-adv-x="308" d="M32 579q0 92 35.5 139.5t90.5 47.5q53 0 86 -48t33 -139q0 -84 -33 -127.5t-86 -43.5q-55 0 -90.5 43.5t-35.5 127.5zM103 579q0 -71 16 -104t39 -33q20 0 34.5 34t14.5 103q0 52 -7.5 88t-18 50.5t-23.5 14.5q-22 0 -38.5 -39.5t-16.5 -113.5z" />
<glyph unicode="&#x2074;" horiz-adv-x="299" d="M200 770l35 -9v-202h34v-44h-34v-100h-67v99h-132l-9 23zM168 659l-6 4l-74 -99l3 -5h77v100z" />
<glyph unicode="&#x2075;" horiz-adv-x="280" d="M53 590l16 169h142l14 22h22l-13 -84h-133l-6 -54l5 -5q8 5 25 5q46 0 82.5 -30t36.5 -80q0 -55 -41.5 -90t-97.5 -35q-37 0 -58 11.5t-21 29.5q0 30 29 30q13 0 36.5 -13.5t40.5 -13.5q47 0 47 59q0 34 -21 54.5t-51 20.5q-29 0 -44 -6z" />
<glyph unicode="&#x2076;" horiz-adv-x="296" d="M114 617l9 -4q19 21 50 21q36 0 66 -27t30 -78q0 -48 -30 -84.5t-91 -36.5q-51 0 -83 37.5t-32 105.5q0 76 50.5 141t136.5 92l10 -29q-102 -54 -116 -138zM111 568q-4 -12 -4 -46q0 -33 13 -55t30 -22q21 0 33 23.5t12 62.5q0 31 -12 47.5t-28 16.5q-30 0 -44 -27z" />
<glyph unicode="&#x2077;" horiz-adv-x="278" d="M247 759l10 -14q-85 -165 -120 -316q-6 -21 -40 -21q-22 0 -33 5t-7 16q42 116 137 263l-3 8h-125l-18 -43h-25l25 102h199z" />
<glyph unicode="&#x2078;" horiz-adv-x="307" d="M41 493q0 57 66 92v5q-56 29 -56 82q0 39 29.5 66.5t78.5 27.5q44 0 72 -22.5t28 -56.5q0 -50 -59 -85v-4q32 -18 49 -37t17 -53q0 -46 -31.5 -73t-83.5 -27q-48 0 -79 23.5t-31 61.5zM103 491q0 -21 12 -35t36 -14q23 0 37 14.5t14 38.5t-15.5 40.5t-45.5 34.5 q-38 -25 -38 -79zM114 689q0 -45 55 -72q26 26 26 69q0 21 -11 33.5t-29 12.5q-20 0 -30.5 -13t-10.5 -30z" />
<glyph unicode="&#x2079;" horiz-adv-x="296" d="M186 548l-9 4q-19 -17 -45 -17q-43 0 -73.5 29.5t-30.5 80.5q0 55 36.5 88t81.5 33q52 0 85 -39t33 -104q0 -89 -55.5 -154.5t-145.5 -75.5v32q47 9 82 42t41 81zM187 603q6 15 6 55q0 33 -13 53t-36 20q-19 0 -31 -21t-12 -61q0 -76 43 -76q24 0 43 30z" />
<glyph unicode="&#x20ac;" horiz-adv-x="672" d="M80 389h58q20 114 92.5 181.5t169.5 67.5q106 0 192 -63l-30 -126h-29q1 40 -11.5 70t-34.5 45t-44 22t-43 7q-60 0 -103 -51.5t-55 -152.5h300l-10 -41h-293q-1 -12 -1 -35v-14h284l-10 -41h-272q11 -106 56.5 -163.5t101.5 -57.5q114 0 155 125l39 -13 q-52 -161 -204 -161q-99 0 -169.5 71.5t-83.5 198.5h-65l10 41h52v13q0 24 1 36h-63z" />
<glyph unicode="&#x2117;" horiz-adv-x="793" d="M89 251q0 126 90.5 216.5t217.5 90.5q131 0 219 -89.5t88 -217.5q0 -127 -90.5 -217.5t-216.5 -90.5q-129 0 -218.5 87t-89.5 221zM148 249q0 -110 70 -183t180 -73t178.5 72.5t68.5 183.5q0 114 -70.5 187.5t-177.5 73.5q-109 0 -179 -74.5t-70 -186.5zM418 224h-37 v-108l46 -8v-24h-160v24l43 8v270l-43 8v24h153q51 0 89.5 -24.5t38.5 -72.5q0 -44 -35 -70.5t-95 -26.5zM381 382v-124h41q21 0 37 16.5t16 42.5q0 65 -57 65h-37z" />
<glyph unicode="&#x2122;" horiz-adv-x="760" d="M580 484h-7l-78 -179h-17l-74 179h-5l-15 -150l33 -6v-23h-92v23l33 6l19 193l-38 6v23h94l62 -165h7l71 165h92v-23l-35 -6l12 -193l31 -6v-23h-118v23l34 6zM100 556h210l14 -74h-20l-32 47h-38v-195l32 -6v-23h-121v23l32 6v195h-37l-32 -47h-21z" />
<glyph unicode="&#x2126;" horiz-adv-x="540" d="M269 588q-72 0 -110 -69.5t-38 -155.5q0 -133 38 -228t91 -112l-6 -23h-223l-20 146h29l43 -94h54l6 10q-43 49 -72 128t-29 162q0 114 66.5 200t171.5 86t171.5 -86t66.5 -200q0 -83 -29 -162t-72 -128l6 -10h54l43 94h29l-20 -146h-223l-6 23q53 17 91 112t38 228 q0 53 -15 102.5t-50.5 86t-84.5 36.5z" />
<glyph unicode="&#x2153;" d="M119 -54l241 370l223 353l40 -26l-234 -349l-231 -375zM85 577v33q52 1 96 28l36 -3v-306l51 -8v-32h-171v32l52 8v251q-37 -10 -64 -3zM639 249q0 -50 -67 -92v-5q33 -8 56.5 -35t23.5 -60q0 -47 -39.5 -75.5t-85.5 -28.5q-45 0 -70 14.5t-25 37.5q0 11 7.5 19t20.5 8 q17 0 34.5 -21t35.5 -21q19 0 35 16t16 46q0 23 -12.5 42t-27 26.5t-22.5 3.5l-20 -11l-17 23q88 42 88 84q0 39 -41 39q-38 0 -71 -38l-15 17q54 73 121 73q32 0 53.5 -17t21.5 -45z" />
<glyph unicode="&#x2154;" d="M119 -54l241 370l223 353l40 -26l-234 -349l-231 -375zM199 533q0 22 -13.5 37t-36.5 15q-22 0 -41 -13.5t-47 -43.5l-17 17q65 95 134 95q45 0 70.5 -22.5t25.5 -57.5q0 -40 -45 -99.5t-90 -99.5l3 -8h106l25 40l23 -7l-31 -97h-214l-6 18q52 43 103 109.5t51 116.5z M639 249q0 -50 -67 -92v-5q33 -8 56.5 -35t23.5 -60q0 -47 -39.5 -75.5t-85.5 -28.5q-45 0 -70 14.5t-25 37.5q0 11 7.5 19t20.5 8q17 0 34.5 -21t35.5 -21q19 0 35 16t16 46q0 23 -12.5 42t-27 26.5t-22.5 3.5l-20 -11l-17 23q88 42 88 84q0 39 -41 39q-38 0 -71 -38 l-15 17q54 73 121 73q32 0 53.5 -17t21.5 -45z" />
<glyph unicode="&#x2155;" d="M119 -54l241 370l223 353l40 -26l-234 -349l-231 -375zM85 577v33q52 1 96 28l36 -3v-306l51 -8v-32h-171v32l52 8v251q-37 -10 -64 -3zM460 135l16 169h142l14 22h22l-13 -84h-133l-6 -54l5 -5q8 5 25 5q46 0 82.5 -30t36.5 -80q0 -55 -41.5 -90t-97.5 -35 q-37 0 -58 11.5t-21 29.5q0 30 29 30q13 0 36.5 -13.5t40.5 -13.5q47 0 47 59q0 34 -21 54.5t-51 20.5q-29 0 -44 -6z" />
<glyph unicode="&#x2156;" d="M119 -54l241 370l223 353l40 -26l-234 -349l-231 -375zM199 533q0 22 -13.5 37t-36.5 15q-22 0 -41 -13.5t-47 -43.5l-17 17q65 95 134 95q45 0 70.5 -22.5t25.5 -57.5q0 -40 -45 -99.5t-90 -99.5l3 -8h106l25 40l23 -7l-31 -97h-214l-6 18q52 43 103 109.5t51 116.5z M460 135l16 169h142l14 22h22l-13 -84h-133l-6 -54l5 -5q8 5 25 5q46 0 82.5 -30t36.5 -80q0 -55 -41.5 -90t-97.5 -35q-37 0 -58 11.5t-21 29.5q0 30 29 30q13 0 36.5 -13.5t40.5 -13.5q47 0 47 59q0 34 -21 54.5t-51 20.5q-29 0 -44 -6z" />
<glyph unicode="&#x2157;" d="M119 -54l241 370l223 353l40 -26l-234 -349l-231 -375zM275 578q0 -50 -67 -92v-5q33 -8 56.5 -35t23.5 -60q0 -47 -39.5 -75.5t-85.5 -28.5q-45 0 -70 14.5t-25 37.5q0 11 7.5 19t20.5 8q17 0 34.5 -21t35.5 -21q19 0 35 16t16 46q0 23 -12.5 42t-27 26.5t-22.5 3.5 l-20 -11l-17 23q88 42 88 84q0 39 -41 39q-38 0 -71 -38l-15 17q54 73 121 73q32 0 53.5 -17t21.5 -45zM460 135l16 169h142l14 22h22l-13 -84h-133l-6 -54l5 -5q8 5 25 5q46 0 82.5 -30t36.5 -80q0 -55 -41.5 -90t-97.5 -35q-37 0 -58 11.5t-21 29.5q0 30 29 30 q13 0 36.5 -13.5t40.5 -13.5q47 0 47 59q0 34 -21 54.5t-51 20.5q-29 0 -44 -6z" />
<glyph unicode="&#x2158;" d="M119 -54l241 370l223 353l40 -26l-234 -349l-231 -375zM223 644l35 -9v-202h34v-44h-34v-100h-67v99h-132l-9 23zM191 533l-6 4l-74 -99l3 -5h77v100zM460 135l16 169h142l14 22h22l-13 -84h-133l-6 -54l5 -5q8 5 25 5q46 0 82.5 -30t36.5 -80q0 -55 -41.5 -90t-97.5 -35 q-37 0 -58 11.5t-21 29.5q0 30 29 30q13 0 36.5 -13.5t40.5 -13.5q47 0 47 59q0 34 -21 54.5t-51 20.5q-29 0 -44 -6z" />
<glyph unicode="&#x2159;" d="M119 -54l241 370l223 353l40 -26l-234 -349l-231 -375zM85 577v33q52 1 96 28l36 -3v-306l51 -8v-32h-171v32l52 8v251q-37 -10 -64 -3zM500 162l9 -4q19 21 50 21q36 0 66 -27t30 -78q0 -48 -30 -84.5t-91 -36.5q-51 0 -83 37.5t-32 105.5q0 76 50.5 141t136.5 92 l10 -29q-102 -54 -116 -138zM497 113q-4 -12 -4 -46q0 -33 13 -55t30 -22q21 0 33 23.5t12 62.5q0 31 -12 47.5t-28 16.5q-30 0 -44 -27z" />
<glyph unicode="&#x215a;" d="M119 -54l241 370l223 353l40 -26l-234 -349l-231 -375zM95 464l16 169h142l14 22h22l-13 -84h-133l-6 -54l5 -5q8 5 25 5q46 0 82.5 -30t36.5 -80q0 -55 -41.5 -90t-97.5 -35q-37 0 -58 11.5t-21 29.5q0 30 29 30q13 0 36.5 -13.5t40.5 -13.5q47 0 47 59q0 34 -21 54.5 t-51 20.5q-29 0 -44 -6zM500 162l9 -4q19 21 50 21q36 0 66 -27t30 -78q0 -48 -30 -84.5t-91 -36.5q-51 0 -83 37.5t-32 105.5q0 76 50.5 141t136.5 92l10 -29q-102 -54 -116 -138zM497 113q-4 -12 -4 -46q0 -33 13 -55t30 -22q21 0 33 23.5t12 62.5q0 31 -12 47.5t-28 16.5 q-30 0 -44 -27z" />
<glyph unicode="&#x215b;" d="M119 -54l241 370l223 353l40 -26l-234 -349l-231 -375zM85 577v33q52 1 96 28l36 -3v-306l51 -8v-32h-171v32l52 8v251q-37 -10 -64 -3zM448 38q0 57 66 92v5q-56 29 -56 82q0 39 29.5 66.5t78.5 27.5q44 0 72 -22.5t28 -56.5q0 -50 -59 -85v-4q32 -18 49 -37t17 -53 q0 -46 -31.5 -73t-83.5 -27q-48 0 -79 23.5t-31 61.5zM510 36q0 -21 12 -35t36 -14q23 0 37 14.5t14 38.5t-15.5 40.5t-45.5 34.5q-38 -25 -38 -79zM521 234q0 -45 55 -72q26 26 26 69q0 21 -11 33.5t-29 12.5q-20 0 -30.5 -13t-10.5 -30z" />
<glyph unicode="&#x215c;" d="M119 -54l241 370l223 353l40 -26l-234 -349l-231 -375zM275 578q0 -50 -67 -92v-5q33 -8 56.5 -35t23.5 -60q0 -47 -39.5 -75.5t-85.5 -28.5q-45 0 -70 14.5t-25 37.5q0 11 7.5 19t20.5 8q17 0 34.5 -21t35.5 -21q19 0 35 16t16 46q0 23 -12.5 42t-27 26.5t-22.5 3.5 l-20 -11l-17 23q88 42 88 84q0 39 -41 39q-38 0 -71 -38l-15 17q54 73 121 73q32 0 53.5 -17t21.5 -45zM448 38q0 57 66 92v5q-56 29 -56 82q0 39 29.5 66.5t78.5 27.5q44 0 72 -22.5t28 -56.5q0 -50 -59 -85v-4q32 -18 49 -37t17 -53q0 -46 -31.5 -73t-83.5 -27 q-48 0 -79 23.5t-31 61.5zM510 36q0 -21 12 -35t36 -14q23 0 37 14.5t14 38.5t-15.5 40.5t-45.5 34.5q-38 -25 -38 -79zM521 234q0 -45 55 -72q26 26 26 69q0 21 -11 33.5t-29 12.5q-20 0 -30.5 -13t-10.5 -30z" />
<glyph unicode="&#x215d;" d="M119 -54l241 370l223 353l40 -26l-234 -349l-231 -375zM95 464l16 169h142l14 22h22l-13 -84h-133l-6 -54l5 -5q8 5 25 5q46 0 82.5 -30t36.5 -80q0 -55 -41.5 -90t-97.5 -35q-37 0 -58 11.5t-21 29.5q0 30 29 30q13 0 36.5 -13.5t40.5 -13.5q47 0 47 59q0 34 -21 54.5 t-51 20.5q-29 0 -44 -6zM448 38q0 57 66 92v5q-56 29 -56 82q0 39 29.5 66.5t78.5 27.5q44 0 72 -22.5t28 -56.5q0 -50 -59 -85v-4q32 -18 49 -37t17 -53q0 -46 -31.5 -73t-83.5 -27q-48 0 -79 23.5t-31 61.5zM510 36q0 -21 12 -35t36 -14q23 0 37 14.5t14 38.5t-15.5 40.5 t-45.5 34.5q-38 -25 -38 -79zM521 234q0 -45 55 -72q26 26 26 69q0 21 -11 33.5t-29 12.5q-20 0 -30.5 -13t-10.5 -30z" />
<glyph unicode="&#x215e;" d="M119 -54l241 370l223 353l40 -26l-234 -349l-231 -375zM321 633l10 -14q-85 -165 -120 -316q-6 -21 -40 -21q-22 0 -33 5t-7 16q42 116 137 263l-3 8h-125l-18 -43h-25l25 102h199zM448 38q0 57 66 92v5q-56 29 -56 82q0 39 29.5 66.5t78.5 27.5q44 0 72 -22.5t28 -56.5 q0 -50 -59 -85v-4q32 -18 49 -37t17 -53q0 -46 -31.5 -73t-83.5 -27q-48 0 -79 23.5t-31 61.5zM510 36q0 -21 12 -35t36 -14q23 0 37 14.5t14 38.5t-15.5 40.5t-45.5 34.5q-38 -25 -38 -79zM521 234q0 -45 55 -72q26 26 26 69q0 21 -11 33.5t-29 12.5q-20 0 -30.5 -13 t-10.5 -30z" />
<glyph unicode="&#x2191;" horiz-adv-x="700" d="M357 605l264 -237l-46 -61l-183 163v-420h-84v420l-183 -163l-47 61l266 237h13z" />
<glyph unicode="&#x2193;" horiz-adv-x="700" d="M621 287l-264 -237h-13l-266 237l47 61l183 -163v420h84v-420l183 163z" />
<glyph unicode="&#x2202;" horiz-adv-x="540" d="M283 594q-84 0 -109 -130h-40l12 113q20 25 62 43t86 18q94 0 143 -78t49 -201q0 -179 -71 -275t-190 -96q-71 0 -121 48t-50 134q0 105 66 167t146 62q39 0 75 -18t53 -51l5 3v39q0 113 -27.5 167.5t-88.5 54.5zM381 270q-10 33 -37 55t-58 22q-55 0 -92.5 -48.5 t-37.5 -129.5q0 -60 21.5 -94.5t62.5 -34.5q57 0 99 63t42 167z" />
<glyph unicode="&#x2206;" horiz-adv-x="540" d="M530 0h-520l223 631h45zM237 494l-150 -439h320z" />
<glyph unicode="&#x220f;" horiz-adv-x="540" d="M2 626h536v-40l-78 -15v-516l78 -15v-40h-252v40l78 15v516h-188v-516l78 -15v-40h-252v40l78 15v516l-78 15v40z" />
<glyph unicode="&#x2211;" horiz-adv-x="540" d="M146 89l5 -10h250l86 111h41l-50 -190h-465l-8 15l262 270v12l-242 317l8 12h441l26 -171h-36l-89 131h-210l-5 -7l198 -256v-16z" />
<glyph unicode="&#x2212;" horiz-adv-x="540" d="M472 210h-404v62h404v-62z" />
<glyph unicode="&#x221a;" horiz-adv-x="540" d="M317 61h13l152 695l49 -10l-184 -883h-37l-195 526l-98 -35l-16 37l175 59z" />
<glyph unicode="&#x221e;" horiz-adv-x="540" d="M127 149q-60 0 -92 38.5t-32 88.5q0 54 36.5 92.5t87.5 38.5q74 0 141 -92q33 43 66.5 67.5t77.5 24.5q61 0 92.5 -38t31.5 -89q0 -54 -36.5 -92.5t-87.5 -38.5q-75 0 -141 91q-70 -91 -144 -91zM144 357q-33 0 -54 -22t-21 -59q0 -36 20.5 -57.5t50.5 -21.5q18 0 37 13 t31.5 28t33.5 43q-27 37 -49.5 56.5t-48.5 19.5zM395 199q33 0 54 22t21 59q0 35 -21 57t-50 22q-18 0 -37 -13.5t-31.5 -28t-33.5 -43.5q26 -37 48.5 -56t49.5 -19z" />
<glyph unicode="&#x222b;" horiz-adv-x="540" d="M303 497l12 -487q2 -94 -48 -154t-127 -60q-31 0 -53 17t-22 49q0 21 12.5 37.5t36.5 16.5q50 0 57 -64l26 -7q19 18 31 63.5t10 91.5l-12 487q-2 95 47.5 154t125.5 59q32 0 54.5 -16.5t22.5 -48.5q0 -21 -13 -37.5t-37 -16.5q-49 0 -56 64l-26 7q-44 -41 -41 -155z" />
<glyph unicode="&#x2248;" horiz-adv-x="540" d="M429 388l53 -22q-16 -49 -48.5 -82.5t-82.5 -33.5q-35 0 -89.5 36t-79.5 36q-24 0 -43 -10.5t-26.5 -20.5t-20.5 -31l-44 32q17 33 53.5 61t80.5 28q34 0 89 -35t81 -35q28 0 49.5 23t27.5 54zM445 229l47 -23q-14 -40 -51 -68t-78 -28q-43 0 -100.5 35.5t-80.5 35.5 q-39 0 -72 -64l-46 30q52 93 118 93q32 0 90 -35t91 -35q30 0 51.5 17t30.5 42z" />
<glyph unicode="&#x2260;" horiz-adv-x="540" d="M472 287h-143l-40 -88h183v-62h-212l-56 -123l-56 26l44 97h-124v62h153l40 88h-193v62h222l53 115l56 -26l-41 -89h114v-62z" />
<glyph unicode="&#x2264;" horiz-adv-x="540" d="M472 435l-328 -134l328 -134v-67l-404 170v62l404 170v-67zM472 0h-404v62h404v-62z" />
<glyph unicode="&#x2265;" horiz-adv-x="540" d="M396 301l-328 134v67l404 -170v-62l-404 -170v67zM472 0h-404v62h404v-62z" />
<glyph unicode="&#x25ca;" horiz-adv-x="540" d="M269 -98l-245 373l245 375l246 -375zM108 275l161 -246l162 246l-162 248z" />
<glyph unicode="&#x25fc;" horiz-adv-x="520" d="M0 520h520v-520h-520v520z" />
<glyph unicode="&#x2605;" horiz-adv-x="570" d="M127 -8l-4 3l66 186l-166 118l2 5l201 -7l57 193h6l58 -193l199 5l1 -4l-163 -117l66 -188l-3 -1l-161 118z" />
<glyph unicode="&#xf6c3;" horiz-adv-x="500" d="M204 -81q0 14 12.5 25.5t32.5 11.5q28 0 47 -22.5t19 -57.5q0 -65 -85 -112l-19 28q47 27 47 58q0 18 -27 35.5t-27 33.5z" />
<glyph unicode="&#xf8ff;" horiz-adv-x="540" d="M209 720h11l32 -121l-3 -82l68 -8l64 99l8 99h12l7 -99l-17 -129l36 -85l35 -38l1 -6l-7 -8v-18l8 -4l-1 -9l-17 -36l-36 7l-11 101l-34 56l-13 -2l26 -60l4 -99l-37 -46l3 -22l26 -37l7 -71l-64 -23l-33 16l-35 57l-75 25l-28 47l-3 42l-30 41l-2 58l4 27l-11 44z M487 244l6 -9l-3 -37l-12 -17l-5 -33l23 -8l-3 -10l-23 7l-43 -26l-5 10l39 23l5 36l-36 14l-13 31l-1 10l14 15l24 4zM270 305l36 -14l11 13l-3 14l-11 10l-30 -10zM327 64l3 -4l-7 -21l-40 -43l-68 -23l-97 14l-55 48l-18 62l34 95l11 -1l-9 -71l22 -41l37 -33l88 -16 l48 3zM142 438l9 -9l33 34l11 76h-18z" />
<glyph horiz-adv-x="520" d="M37 298q0 167 64.5 253.5t164.5 86.5q96 0 156 -87t60 -253q0 -152 -60 -231t-156 -79q-101 0 -165 78.5t-64 231.5zM142 299q0 -140 35 -204t89 -64q49 0 80.5 65t31.5 203q0 150 -31.5 223t-80.5 73q-53 0 -88.5 -76t-35.5 -220z" />
<glyph horiz-adv-x="520" d="M101 542v42q93 2 170 50l50 -5v-574l103 -15v-40h-300v40l103 15v492q-75 -18 -126 -5z" />
<glyph horiz-adv-x="520" d="M343 462q0 39 -25 67t-67 28q-40 0 -74 -24t-86 -81l-30 32q111 154 226 154q73 0 114 -41.5t41 -103.5q0 -76 -85.5 -194.5t-168.5 -194.5l6 -14h211l45 63l33 -13l-56 -140h-371l-12 32q43 34 90.5 82.5t96.5 108t80.5 124t31.5 115.5z" />
<glyph horiz-adv-x="520" d="M419 526q0 -47 -34 -88t-80 -70v-10q55 -14 96 -66t41 -116q0 -87 -65.5 -137.5t-143.5 -50.5q-81 0 -127 26t-46 68q0 19 13.5 34t38.5 15q23 0 41 -14.5t29 -32.5t30 -32.5t44 -14.5q36 0 65 29.5t29 83.5q0 49 -27.5 87.5t-58 53.5t-46.5 7l-36 -20l-23 35 q77 39 124 85.5t47 92.5q0 35 -20.5 53t-55.5 18q-82 0 -146 -87l-28 30q97 133 220 133q50 0 84.5 -31t34.5 -81z" />
<glyph horiz-adv-x="520" d="M351 646l44 -17v-377h81v-67h-81v-185h-93v184h-249l-16 37zM302 488l-11 6l-167 -232l5 -10h173v236z" />
<glyph horiz-adv-x="520" d="M106 337l28 289h240l26 39h39l-23 -129h-241l-11 -122l8 -8q21 8 65 8q77 0 137 -54t60 -145q0 -103 -72.5 -165t-189.5 -62q-48 0 -81.5 18t-33.5 46q0 22 13 36t38 14q30 0 71.5 -26t80.5 -26q37 0 64.5 32t27.5 93q0 70 -42.5 112.5t-106.5 42.5q-48 0 -79 -11z" />
<glyph horiz-adv-x="520" d="M169 368l16 -8q45 38 115 38q62 0 113.5 -48.5t51.5 -142.5q0 -39 -11.5 -76t-35.5 -70t-66.5 -53t-98.5 -20q-88 0 -143.5 68t-55.5 192q0 137 89.5 255t240.5 168l10 -35q-194 -97 -225 -268zM163 278q-7 -31 -7 -83q0 -70 29 -114t72 -44q50 0 78 47.5t28 126.5 q0 67 -27.5 101t-68.5 34q-70 0 -104 -68z" />
<glyph horiz-adv-x="520" d="M456 626l19 -26q-167 -357 -217 -575q-9 -37 -65 -37q-25 0 -39 10t-7 28q87 243 247 496l-7 14h-242l-32 -78h-45l46 168h342z" />
<glyph horiz-adv-x="520" d="M65 141q0 59 32 96t87 67v9q-48 25 -75 66.5t-27 87.5q0 70 51 120.5t136 50.5q75 0 124.5 -40t49.5 -103q0 -44 -26 -79t-81 -70v-8q56 -32 87.5 -69.5t31.5 -99.5q0 -83 -54.5 -132t-144.5 -49q-84 0 -137.5 42t-53.5 111zM141 139q0 -48 28.5 -78t86.5 -30 q54 0 86.5 31.5t32.5 82.5q0 46 -34.5 76.5t-103.5 63.5q-43 -21 -69.5 -59.5t-26.5 -86.5zM161 499q0 -47 32.5 -78.5t94.5 -56.5q74 47 74 128q0 48 -27.5 75.5t-72.5 27.5q-47 0 -74 -28.5t-27 -67.5z" />
<glyph horiz-adv-x="520" d="M355 251l-16 8q-49 -41 -105 -41q-74 0 -127 53.5t-53 147.5q0 101 64 160t143 59q91 0 147.5 -70.5t56.5 -189.5q0 -161 -98 -280t-258 -138v40q97 22 166 87.5t80 163.5zM356 341q11 46 11 100q0 69 -28 110t-82 41q-48 0 -74 -42.5t-26 -124.5q0 -156 100 -156 q32 0 55 18t44 54z" />
<glyph horiz-adv-x="423" d="M276 469q0 -27 -18.5 -46t-45.5 -19t-46 19t-19 46t19 45.5t46 18.5t45.5 -18.5t18.5 -45.5zM269 -22h-114l37 358h40z" />
<glyph horiz-adv-x="477" d="M352 469q0 -27 -18.5 -46t-45.5 -19t-46 19t-19 46t19 45.5t46 18.5t45.5 -18.5t18.5 -45.5zM310 336v-135q-168 -2 -168 -71t134 -69q68 0 68 -41q0 -20 -16.5 -33.5t-46.5 -13.5q-67 0 -123.5 44.5t-56.5 113.5q0 70 48.5 107.5t117.5 41.5v56h43z" />
<glyph horiz-adv-x="404" d="M77 278h250v-73h-250v73z" />
<glyph horiz-adv-x="574" d="M87 278h400v-73h-400v73z" />
<glyph horiz-adv-x="1110" d="M147 273h816v-63h-816v63z" />
<glyph horiz-adv-x="465" d="M110 260l182 219l33 -20l-108 -201v-15l108 -203l-33 -24l-182 221v23z" />
<glyph horiz-adv-x="465" d="M355 235l-182 -219l-33 20l108 201v15l-108 203l33 24l182 -221v-23z" />
<glyph horiz-adv-x="675" d="M110 260l182 219l33 -20l-108 -201v-15l108 -203l-33 -24l-182 221v23zM320 260l182 219l33 -20l-108 -201v-15l108 -203l-33 -24l-182 221v23z" />
<glyph horiz-adv-x="675" d="M355 235l-182 -219l-33 20l108 201v15l-108 203l33 24l182 -221v-23zM565 235l-182 -219l-33 20l108 201v15l-108 203l33 24l182 -221v-23z" />
<glyph horiz-adv-x="423" d="M147 57q0 27 18.5 46t45.5 19t46 -19t19 -46t-19 -45.5t-46 -18.5t-45.5 18.5t-18.5 45.5zM154 548h114l-37 -358h-40z" />
<glyph horiz-adv-x="423" d="M276 469q0 -27 -18.5 -46t-45.5 -19t-46 19t-19 46t19 45.5t46 18.5t45.5 -18.5t18.5 -45.5zM269 -22h-114l37 358h40z" />
<glyph horiz-adv-x="477" d="M125 57q0 27 18.5 46t45.5 19t46 -19t19 -46t-19 -45.5t-46 -18.5t-45.5 18.5t-18.5 45.5zM167 190v135q168 2 168 71t-134 69q-68 0 -68 41q0 20 16.5 33.5t46.5 13.5q67 0 123.5 -44.5t56.5 -113.5q0 -70 -48.5 -107.5t-117.5 -41.5v-56h-43z" />
<glyph horiz-adv-x="477" d="M352 469q0 -27 -18.5 -46t-45.5 -19t-46 19t-19 46t19 45.5t46 18.5t45.5 -18.5t18.5 -45.5zM310 336v-135q-168 -2 -168 -71t134 -69q68 0 68 -41q0 -20 -16.5 -33.5t-46.5 -13.5q-67 0 -123.5 44.5t-56.5 113.5q0 70 48.5 107.5t117.5 41.5v56h43z" />
<glyph horiz-adv-x="401" d="M268 247q0 -23 -14 -37.5t-39 -14.5q-42 0 -70 38t-28 100q0 69 36.5 119.5t82.5 77.5l28 -42q-80 -60 -80 -120q0 -23 13 -39t29 -24t29 -23t13 -35z" />
<glyph horiz-adv-x="401" d="M133 478q0 23 14 37.5t39 14.5q42 0 70 -38t28 -100q0 -69 -36.5 -119.5t-82.5 -77.5l-28 42q80 60 80 120q0 23 -13 39t-29 24t-29 23t-13 35z" />
<glyph horiz-adv-x="641" d="M268 247q0 -23 -14 -37.5t-39 -14.5q-42 0 -70 38t-28 100q0 69 36.5 119.5t82.5 77.5l28 -42q-80 -60 -80 -120q0 -23 13 -39t29 -24t29 -23t13 -35zM508 247q0 -23 -14 -37.5t-39 -14.5q-42 0 -70 38t-28 100q0 69 36.5 119.5t82.5 77.5l28 -42q-80 -60 -80 -120 q0 -23 13 -39t29 -24t29 -23t13 -35z" />
<glyph horiz-adv-x="641" d="M133 478q0 23 14 37.5t39 14.5q42 0 70 -38t28 -100q0 -69 -36.5 -119.5t-82.5 -77.5l-28 42q80 60 80 120q0 23 -13 39t-29 24t-29 23t-13 35zM373 478q0 23 14 37.5t39 14.5q42 0 70 -38t28 -100q0 -69 -36.5 -119.5t-82.5 -77.5l-28 42q80 60 80 120q0 23 -13 39 t-29 24t-29 23t-13 35z" />
<glyph horiz-adv-x="465" d="M110 260l182 219l33 -20l-108 -201v-15l108 -203l-33 -24l-182 221v23z" />
<glyph horiz-adv-x="465" d="M355 235l-182 -219l-33 20l108 201v15l-108 203l33 24l182 -221v-23z" />
<glyph horiz-adv-x="675" d="M110 260l182 219l33 -20l-108 -201v-15l108 -203l-33 -24l-182 221v23zM320 260l182 219l33 -20l-108 -201v-15l108 -203l-33 -24l-182 221v23z" />
<glyph horiz-adv-x="675" d="M355 235l-182 -219l-33 20l108 201v15l-108 203l33 24l182 -221v-23zM565 235l-182 -219l-33 20l108 201v15l-108 203l33 24l182 -221v-23z" />
<glyph horiz-adv-x="591" d="M63 253q0 118 66.5 196t165.5 78q103 0 168 -77.5t65 -196.5q0 -121 -65 -193.5t-168 -72.5t-167.5 74.5t-64.5 191.5zM171 253q0 -105 35.5 -160.5t88.5 -55.5q125 0 125 216q0 107 -33.5 165.5t-91.5 58.5q-55 0 -89.5 -58.5t-34.5 -165.5z" />
<glyph horiz-adv-x="445" d="M78 455v35q86 -1 164 33l40 -4v-466l92 -15v-38h-281v38l93 15v392q-68 -7 -108 10z" />
<glyph horiz-adv-x="540" d="M334 369q0 35 -23 55t-64 20q-70 0 -153 -78l-25 27q43 54 101.5 94t122.5 40q66 0 104 -33t38 -86q0 -37 -16 -74.5t-46 -72t-56.5 -60.5t-63 -58t-50.5 -46l5 -11h192l41 47l32 -10l-51 -123h-358l-12 32q6 6 64.5 56t99.5 88t79.5 94.5t38.5 98.5z" />
<glyph horiz-adv-x="486" d="M393 432q0 -73 -101 -125v-10q51 -9 89 -45.5t38 -100.5q0 -67 -61 -115.5t-161 -48.5q-71 0 -112 19.5t-41 49.5q0 19 13.5 34t38.5 15q30 0 64.5 -34.5t66.5 -34.5q36 0 64 26t28 73q0 57 -44 90.5t-80 12.5l-30 -17l-22 36q45 26 72.5 44t53 44.5t25.5 49.5 q0 56 -76 56q-68 0 -126 -62l-28 30q91 108 203 108q57 0 91.5 -26.5t34.5 -68.5z" />
<glyph horiz-adv-x="537" d="M349 526l49 -17v-307h76v-63h-76v-139h-98v139h-234l-16 32zM300 379l-11 6l-144 -173l5 -10h150v177z" />
<glyph horiz-adv-x="513" d="M93 252l28 266h245l26 39h39l-23 -127h-246l-11 -98l8 -8q27 8 89 8q75 0 131.5 -38t56.5 -122q0 -81 -66.5 -133t-170.5 -52q-57 0 -96 19.5t-39 49.5q0 20 13 34t38 14q26 0 61.5 -30t70.5 -30q41 0 72 29.5t31 76.5q0 43 -34 69t-100 26q-63 0 -105 -11z" />
<glyph horiz-adv-x="535" d="M181 313l16 -8q43 38 112 38q65 0 115 -43.5t50 -125.5q0 -74 -56.5 -130.5t-155.5 -56.5q-87 0 -143 61t-56 165q0 110 89.5 203t240.5 130l10 -35q-191 -72 -222 -198zM175 228q-7 -24 -7 -68q0 -52 28.5 -85.5t69.5 -33.5q48 0 74.5 37t26.5 98q0 54 -26 82t-65 28 q-67 0 -101 -58z" />
<glyph horiz-adv-x="491" d="M434 518l19 -26q-64 -112 -121 -242.5t-81 -225.5q-9 -37 -65 -37q-27 0 -43 10t-8 28q105 235 227 391l-7 14h-217l-32 -68h-45l46 156h327z" />
<glyph horiz-adv-x="544" d="M77 121q0 45 29 71.5t82 50.5v9q-94 42 -94 129q0 59 50.5 102.5t132.5 43.5q78 0 128 -34.5t50 -88.5q0 -77 -96 -122v-8q108 -55 108 -135q0 -70 -54.5 -111t-144.5 -41q-84 0 -137.5 36.5t-53.5 97.5zM158 119q0 -34 31 -59t81 -25t81 23.5t31 61.5q0 36 -33 58 t-108 48q-83 -34 -83 -107zM178 403q0 -67 133 -105q58 34 58 103q0 36 -26 57t-69 21q-45 0 -70.5 -23t-25.5 -53z" />
<glyph horiz-adv-x="535" d="M360 200l-16 8q-47 -41 -117 -41q-63 0 -113 44t-50 122q0 86 63 140t137 54q95 0 153 -63.5t58 -171.5q0 -121 -93 -208t-263 -104v45q89 10 159 61.5t82 113.5zM361 280q11 25 11 75q0 54 -28 87.5t-77 33.5q-44 0 -69.5 -38t-25.5 -99q0 -116 90 -116q57 0 99 57z" />
<glyph horiz-adv-x="520" d="M53 228q0 105 59.5 174t147.5 69q92 0 150 -69t58 -174q0 -109 -58.5 -174.5t-149.5 -65.5q-92 0 -149.5 67.5t-57.5 172.5zM156 228q0 -96 30.5 -145.5t73.5 -49.5q105 0 105 195q0 96 -28 147t-77 51q-46 0 -75 -51.5t-29 -146.5z" />
<glyph horiz-adv-x="520" d="M117 398v35q88 -1 169 33l35 -4v-412l92 -15v-35h-276v35l93 15v338q-72 -7 -113 10z" />
<glyph horiz-adv-x="520" d="M330 318q0 35 -23 55t-64 20q-70 0 -153 -78l-25 27q42 53 99 91t120 38q66 0 104 -33t38 -86q0 -38 -26.5 -79.5t-55.5 -67.5t-75 -63t-60 -50l5 -11h170l41 42l32 -10l-51 -113h-336l-12 32q6 5 47 35t73 56t70 61.5t60 70t22 63.5z" />
<glyph horiz-adv-x="520" d="M416 360q0 -47 -34 -88t-80 -70v-10q55 -14 96 -66t41 -116q0 -87 -65.5 -137.5t-143.5 -50.5q-81 0 -127 26t-46 68q0 19 13.5 34t38.5 15q23 0 41 -14.5t29 -32.5t30 -32.5t44 -14.5q35 0 64.5 29.5t29.5 83.5q0 49 -27.5 87.5t-58 53.5t-46.5 7l-36 -20l-23 35 q77 39 124 85.5t47 92.5q0 35 -20.5 53t-55.5 18q-82 0 -146 -87l-28 30q97 133 220 133q50 0 84.5 -31t34.5 -81z" />
<glyph horiz-adv-x="520" d="M348 480l44 -17v-377h81v-67h-81v-185h-93v184h-249l-16 37zM299 322l-11 6l-167 -232l5 -10h173v236z" />
<glyph horiz-adv-x="520" d="M105 171l28 289h240l26 39h39l-23 -129h-241l-11 -122l8 -8q21 8 65 8q77 0 137 -54t60 -145q0 -103 -72.5 -165t-189.5 -62q-48 0 -81.5 18t-33.5 46q0 22 13 36t38 14q30 0 71.5 -26t80.5 -26q37 0 64.5 32t27.5 93q0 70 -42.5 112.5t-106.5 42.5q-48 0 -79 -11z" />
<glyph horiz-adv-x="520" d="M173 368l16 -8q45 38 115 38q62 0 113.5 -48.5t51.5 -142.5q0 -39 -11.5 -76t-35.5 -70t-66.5 -53t-98.5 -20q-88 0 -143.5 68t-55.5 192q0 137 89.5 255t240.5 168l10 -35q-194 -97 -225 -268zM167 278q-7 -31 -7 -83q0 -70 29 -114t72 -44q50 0 78 47.5t28 126.5 q0 67 -27.5 101t-68.5 34q-70 0 -104 -68z" />
<glyph horiz-adv-x="520" d="M453 460l19 -26q-167 -357 -217 -575q-9 -37 -65 -37q-25 0 -39 10t-7 28q87 243 247 496l-7 14h-242l-32 -78h-45l46 168h342z" />
<glyph horiz-adv-x="520" d="M67 141q0 59 32 96t87 67v9q-48 25 -75 66.5t-27 87.5q0 70 51 120.5t136 50.5q75 0 124.5 -40t49.5 -103q0 -44 -26 -79t-81 -70v-8q56 -32 87.5 -69.5t31.5 -99.5q0 -83 -54.5 -132t-144.5 -49q-84 0 -137.5 42t-53.5 111zM143 139q0 -48 28.5 -78t86.5 -30 q54 0 86.5 31.5t32.5 82.5q0 46 -34.5 76.5t-103.5 63.5q-43 -21 -69.5 -59.5t-26.5 -86.5zM163 499q0 -47 32.5 -78.5t94.5 -56.5q74 47 74 128q0 48 -27.5 75.5t-72.5 27.5q-47 0 -74 -28.5t-27 -67.5z" />
<glyph horiz-adv-x="520" d="M355 85l-16 8q-49 -41 -105 -41q-74 0 -127 53.5t-53 147.5q0 101 64 160t143 59q91 0 147.5 -70.5t56.5 -189.5q0 -161 -98 -280t-258 -138v40q97 22 166 87.5t80 163.5zM356 175q11 46 11 100q0 69 -28 110t-82 41q-48 0 -74 -42.5t-26 -124.5q0 -156 100 -156 q32 0 55 18t44 54z" />
<glyph horiz-adv-x="503" d="M271 608v-82q46 -3 97 -24l25 11h14l12 -148h-35q-32 103 -113 115v-172q157 -53 157 -163q0 -70 -43 -110.5t-114 -46.5v-76h-37v76q-68 4 -104 29l-22 -12h-22l-11 152h39q26 -115 120 -125v192q-82 28 -117 66.5t-35 92.5q0 52 42 95.5t110 47.5v82h37zM350 125 q0 29 -17 49.5t-62 36.5v-178q38 6 58.5 30.5t20.5 61.5zM160 401q0 -49 74 -79v159q-35 -4 -54.5 -26t-19.5 -54z" />
<glyph horiz-adv-x="453" d="M252 576v-95q63 0 101 -26t38 -63q0 -38 -44 -38q-22 0 -34.5 13.5t-16 29.5t-14.5 31t-30 18v-323h13q34 0 63.5 18t46.5 44l27 -13q-20 -52 -59.5 -86t-90.5 -38v-98h-38v98q-73 10 -117 71t-44 143q0 81 44.5 141t116.5 74v99h38zM139 278q0 -115 75 -146v308 q-32 -16 -53.5 -59.5t-21.5 -102.5z" />
<glyph horiz-adv-x="509" d="M84 291h64q-25 71 -25 112q0 60 44 92t103 32q70 0 112.5 -29t42.5 -58q0 -18 -11 -29.5t-24 -11.5q-21 0 -35 14.5t-21 31.5t-23.5 31.5t-41.5 14.5q-21 0 -36.5 -18.5t-15.5 -54.5q0 -14 1.5 -27t6 -27.5t7 -23t9.5 -26t9 -23.5h113v-38h-101q7 -31 7 -57 q0 -65 -60 -94l5 -8q14 6 30 6q32 0 74 -33.5t69 -33.5t27 24q0 11 -22 27.5t-22 33.5q0 12 8.5 21.5t22.5 9.5q24 0 39 -19.5t15 -54.5q0 -42 -28.5 -65t-65.5 -23q-60 0 -115.5 19t-84.5 41h-3q-35 -60 -72 -60q-20 0 -20 18q0 42 82 71q33 45 33 79q0 37 -19 98h-78v38z " />
<glyph horiz-adv-x="532" d="M118 209h102v27l-135 231l-55 13v38h211v-38l-54 -13l96 -171h13l96 162l-70 22v38h180v-38l-58 -22l-131 -222v-27h102v-36h-102v-42h102v-36h-102v-44l64 -13v-38h-222v38l65 13v44h-102v36h102v42h-102v36z" />
<glyph horiz-adv-x="553" d="M47 306h58q16 101 82.5 161t157.5 60q89 0 158 -54l-22 -93h-27q2 51 -31.5 74t-72.5 23q-55 0 -93 -43.5t-47 -127.5h256l-8 -35h-251v-21v-14h244l-7 -35h-234q10 -79 50 -121.5t94 -42.5q38 0 68.5 21.5t46.5 61.5l34 -9q-44 -124 -172 -124q-89 0 -152 56.5 t-75 157.5h-64l7 35h54v13q0 15 1 22h-62z" />
<glyph horiz-adv-x="508" d="M96 393h88l34 163h55l-34 -163h80l34 163h55l-34 -163h79v-64h-92l-30 -141h81v-64h-94l-40 -191h-55l40 191h-80l-40 -191h-55l40 191h-73v64h86l30 141h-75v64zM226 329l-30 -141h80l30 141h-80z" />
<glyph d="M119 -54l241 370l223 353l40 -26l-234 -349l-231 -375z" />
<glyph horiz-adv-x="495" d="M258 432l-2 -1q-1 -64 -34 -105t-79 -41q-38 0 -62 26t-24 69q0 60 38.5 103.5t82.5 43.5q58 0 77 -52q9 -25 50 -25q37 0 62 27q24 50 52 50q22 0 22 -17q0 -22 -33 -46l-157 -238l-149 -245l-37 20l158 239l114 185l-2 2q-17 -9 -40 -9t-37 14zM249 82q0 60 38.5 103.5 t81.5 43.5q37 0 60 -23.5t23 -64.5q0 -68 -34.5 -111t-76.5 -43q-41 0 -66.5 26.5t-25.5 68.5zM377 188q-24 0 -46 -36t-22 -74q0 -52 36 -52q24 0 45.5 32t21.5 85q0 22 -10 33.5t-25 11.5zM186 486q-24 0 -46 -36t-22 -74q0 -52 37 -52q23 0 44.5 32t21.5 81t-35 49z" />
<glyph horiz-adv-x="724" d="M258 432l-2 -1q-1 -64 -34 -105t-79 -41q-38 0 -62 26t-24 69q0 60 38.5 103.5t82.5 43.5q58 0 77 -52q9 -25 50 -25q37 0 62 27q24 50 52 50q22 0 22 -17q0 -22 -33 -46l-157 -238l-149 -245l-37 20l158 239l114 185l-2 2q-17 -9 -40 -9t-37 14zM249 82q0 60 38.5 103.5 t81.5 43.5q37 0 60 -23.5t23 -64.5q0 -68 -34.5 -111t-76.5 -43q-41 0 -66.5 26.5t-25.5 68.5zM377 188q-24 0 -46 -36t-22 -74q0 -52 36 -52q24 0 45.5 32t21.5 85q0 22 -10 33.5t-25 11.5zM186 486q-24 0 -46 -36t-22 -74q0 -52 37 -52q23 0 44.5 32t21.5 81t-35 49z M478 82q0 60 38.5 103.5t81.5 43.5q37 0 60 -23.5t23 -64.5q0 -68 -34.5 -111t-76.5 -43q-41 0 -66.5 26.5t-25.5 68.5zM606 188q-24 0 -46 -36t-22 -74q0 -52 36 -52q24 0 45.5 32t21.5 85q0 22 -10 33.5t-25 11.5z" />
<glyph horiz-adv-x="457" d="M306 193l-30 75h-130l-27 -68l51 -17v-30h-135v30l40 17l130 318h51l129 -325l37 -10v-30h-159v30zM210 425l-50 -122h103l-48 122h-5z" />
<glyph horiz-adv-x="440" d="M30 336q0 86 55 138.5t136 52.5q83 0 136 -51.5t53 -139.5q0 -89 -54 -139t-135 -50q-82 0 -136.5 50.5t-54.5 138.5zM117 336q0 -68 30 -107t74 -39q45 0 73.5 36t28.5 110q0 72 -29 111.5t-73 39.5t-74 -40t-30 -111z" />
<glyph horiz-adv-x="387" d="M50 383q0 59 42 101.5t101 42.5t101.5 -42.5t42.5 -101.5t-42.5 -101t-101.5 -42t-101 42t-42 101zM110 383q0 -39 22.5 -65.5t59.5 -26.5t60.5 26.5t23.5 65.5t-23.5 66.5t-60.5 27.5t-59.5 -27.5t-22.5 -66.5z" />
<glyph horiz-adv-x="308" d="M32 479q0 92 35.5 139.5t90.5 47.5q53 0 86 -48t33 -139q0 -84 -33 -127.5t-86 -43.5q-55 0 -90.5 43.5t-35.5 127.5zM103 479q0 -71 16 -104t39 -33q20 0 34.5 34t14.5 103q0 52 -7.5 88t-18 50.5t-23.5 14.5q-22 0 -38.5 -39.5t-16.5 -113.5z" />
<glyph horiz-adv-x="253" d="M37 603v33q52 1 96 28l36 -3v-306l51 -8v-32h-171v32l52 8v251q-37 -10 -64 -3z" />
<glyph horiz-adv-x="307" d="M184 559q0 22 -13.5 37t-36.5 15q-22 0 -41 -13.5t-47 -43.5l-17 17q65 95 134 95q45 0 70.5 -22.5t25.5 -57.5q0 -40 -45 -99.5t-90 -99.5l3 -8h106l25 40l23 -7l-31 -97h-214l-6 18q52 43 103 109.5t51 116.5z" />
<glyph horiz-adv-x="279" d="M232 604q0 -50 -67 -92v-5q33 -8 56.5 -35t23.5 -60q0 -47 -39.5 -75.5t-85.5 -28.5q-45 0 -70 14.5t-25 37.5q0 11 7.5 19t20.5 8q17 0 34.5 -21t35.5 -21q19 0 35 16t16 46q0 23 -12.5 42t-27 26.5t-22.5 3.5l-20 -11l-17 23q88 42 88 84q0 39 -41 39q-38 0 -71 -38 l-15 17q54 73 121 73q32 0 53.5 -17t21.5 -45z" />
<glyph horiz-adv-x="299" d="M200 670l35 -9v-202h34v-44h-34v-100h-67v99h-132l-9 23zM168 559l-6 4l-74 -99l3 -5h77v100z" />
<glyph horiz-adv-x="280" d="M53 490l16 169h142l14 22h22l-13 -84h-133l-6 -54l5 -5q8 5 25 5q46 0 82.5 -30t36.5 -80q0 -55 -41.5 -90t-97.5 -35q-37 0 -58 11.5t-21 29.5q0 30 29 30q13 0 36.5 -13.5t40.5 -13.5q47 0 47 59q0 34 -21 54.5t-51 20.5q-29 0 -44 -6z" />
<glyph horiz-adv-x="296" d="M114 517l9 -4q19 21 50 21q36 0 66 -27t30 -78q0 -48 -30 -84.5t-91 -36.5q-51 0 -83 37.5t-32 105.5q0 76 50.5 141t136.5 92l10 -29q-102 -54 -116 -138zM111 468q-4 -12 -4 -46q0 -33 13 -55t30 -22q21 0 33 23.5t12 62.5q0 31 -12 47.5t-28 16.5q-30 0 -44 -27z" />
<glyph horiz-adv-x="278" d="M247 659l10 -14q-85 -165 -120 -316q-6 -21 -40 -21q-22 0 -33 5t-7 16q42 116 137 263l-3 8h-125l-18 -43h-25l25 102h199z" />
<glyph horiz-adv-x="307" d="M41 393q0 57 66 92v5q-56 29 -56 82q0 39 29.5 66.5t78.5 27.5q44 0 72 -22.5t28 -56.5q0 -50 -59 -85v-4q32 -18 49 -37t17 -53q0 -46 -31.5 -73t-83.5 -27q-48 0 -79 23.5t-31 61.5zM103 391q0 -21 12 -35t36 -14q23 0 37 14.5t14 38.5t-15.5 40.5t-45.5 34.5 q-38 -25 -38 -79zM114 589q0 -45 55 -72q26 26 26 69q0 22 -11 34t-29 12q-20 0 -30.5 -13t-10.5 -30z" />
<glyph horiz-adv-x="296" d="M186 448l-9 4q-19 -17 -45 -17q-43 0 -73.5 29.5t-30.5 80.5q0 55 36.5 88t81.5 33q52 0 85 -39t33 -104q0 -89 -55.5 -154.5t-145.5 -75.5v32q47 9 82 42t41 81zM187 503q6 15 6 55q0 33 -13 53t-36 20q-19 0 -31 -21t-12 -61q0 -76 43 -76q24 0 43 30z" />
<glyph horiz-adv-x="308" d="M32 124q0 92 35.5 139.5t90.5 47.5q53 0 86 -48t33 -139q0 -84 -33 -127.5t-86 -43.5q-55 0 -90.5 43.5t-35.5 127.5zM103 124q0 -71 16 -104t39 -33q20 0 34.5 34t14.5 103q0 52 -7.5 88t-18 50.5t-23.5 14.5q-22 0 -38.5 -39.5t-16.5 -113.5z" />
<glyph horiz-adv-x="253" d="M37 248v33q52 1 96 28l36 -3v-306l51 -8v-32h-171v32l52 8v251q-37 -10 -64 -3z" />
<glyph horiz-adv-x="307" d="M184 204q0 22 -13.5 37t-36.5 15q-22 0 -41 -13.5t-47 -43.5l-17 17q65 95 134 95q45 0 70.5 -22.5t25.5 -57.5q0 -40 -45 -99.5t-90 -99.5l3 -8h106l25 40l23 -7l-31 -97h-214l-6 18q52 43 103 109.5t51 116.5z" />
<glyph horiz-adv-x="279" d="M232 249q0 -50 -67 -92v-5q33 -8 56.5 -35t23.5 -60q0 -47 -39.5 -75.5t-85.5 -28.5q-45 0 -70 14.5t-25 37.5q0 11 7.5 19t20.5 8q17 0 34.5 -21t35.5 -21q19 0 35 16t16 46q0 23 -12.5 42t-27 26.5t-22.5 3.5l-20 -11l-17 23q88 42 88 84q0 39 -41 39q-38 0 -71 -38 l-15 17q54 73 121 73q32 0 53.5 -17t21.5 -45z" />
<glyph horiz-adv-x="299" d="M200 315l35 -9v-202h34v-44h-34v-100h-67v99h-132l-9 23zM168 204l-6 4l-74 -99l3 -5h77v100z" />
<glyph horiz-adv-x="280" d="M53 135l16 169h142l14 22h22l-13 -84h-133l-6 -54l5 -5q8 5 25 5q46 0 82.5 -30t36.5 -80q0 -55 -41.5 -90t-97.5 -35q-37 0 -58 11.5t-21 29.5q0 30 29 30q13 0 36.5 -13.5t40.5 -13.5q47 0 47 59q0 34 -21 54.5t-51 20.5q-29 0 -44 -6z" />
<glyph horiz-adv-x="296" d="M114 162l9 -4q19 21 50 21q36 0 66 -27t30 -78q0 -48 -30 -84.5t-91 -36.5q-51 0 -83 37.5t-32 105.5q0 76 50.5 141t136.5 92l10 -29q-102 -54 -116 -138zM111 113q-4 -12 -4 -46q0 -33 13 -55t30 -22q21 0 33 23.5t12 62.5q0 31 -12 47.5t-28 16.5q-30 0 -44 -27z" />
<glyph horiz-adv-x="278" d="M247 304l10 -14q-85 -165 -120 -316q-6 -21 -40 -21q-22 0 -33 5t-7 16q42 116 137 263l-3 8h-125l-18 -43h-25l25 102h199z" />
<glyph horiz-adv-x="307" d="M41 38q0 57 66 92v5q-56 29 -56 82q0 39 29.5 66.5t78.5 27.5q44 0 72 -22.5t28 -56.5q0 -50 -59 -85v-4q32 -18 49 -37t17 -53q0 -46 -31.5 -73t-83.5 -27q-48 0 -79 23.5t-31 61.5zM103 36q0 -21 12 -35t36 -14q23 0 37 14.5t14 38.5t-15.5 40.5t-45.5 34.5 q-38 -25 -38 -79zM114 234q0 -45 55 -72q26 26 26 69q0 21 -11 33.5t-29 12.5q-20 0 -30.5 -13t-10.5 -30z" />
<glyph horiz-adv-x="296" d="M186 93l-9 4q-19 -17 -45 -17q-43 0 -73.5 29.5t-30.5 80.5q0 55 36.5 88t81.5 33q52 0 85 -39t33 -104q0 -89 -55.5 -154.5t-145.5 -75.5v32q47 9 82 42t41 81zM187 148q6 15 6 55q0 33 -13 53t-36 20q-19 0 -31 -21t-12 -61q0 -76 43 -76q24 0 43 30z" />
<glyph horiz-adv-x="308" d="M32 479q0 92 35.5 139.5t90.5 47.5q53 0 86 -48t33 -139q0 -84 -33 -127.5t-86 -43.5q-55 0 -90.5 43.5t-35.5 127.5zM103 479q0 -71 16 -104t39 -33q20 0 34.5 34t14.5 103q0 52 -7.5 88t-18 50.5t-23.5 14.5q-22 0 -38.5 -39.5t-16.5 -113.5z" />
<glyph horiz-adv-x="253" d="M37 603v33q52 1 96 28l36 -3v-306l51 -8v-32h-171v32l52 8v251q-37 -10 -64 -3z" />
<glyph horiz-adv-x="307" d="M184 559q0 22 -13.5 37t-36.5 15q-22 0 -41 -13.5t-47 -43.5l-17 17q65 95 134 95q45 0 70.5 -22.5t25.5 -57.5q0 -40 -45 -99.5t-90 -99.5l3 -8h106l25 40l23 -7l-31 -97h-214l-6 18q52 43 103 109.5t51 116.5z" />
<glyph horiz-adv-x="279" d="M232 604q0 -50 -67 -92v-5q33 -8 56.5 -35t23.5 -60q0 -47 -39.5 -75.5t-85.5 -28.5q-45 0 -70 14.5t-25 37.5q0 11 7.5 19t20.5 8q17 0 34.5 -21t35.5 -21q19 0 35 16t16 46q0 23 -12.5 42t-27 26.5t-22.5 3.5l-20 -11l-17 23q88 42 88 84q0 39 -41 39q-38 0 -71 -38 l-15 17q54 73 121 73q32 0 53.5 -17t21.5 -45z" />
<glyph horiz-adv-x="299" d="M200 670l35 -9v-202h34v-44h-34v-100h-67v99h-132l-9 23zM168 559l-6 4l-74 -99l3 -5h77v100z" />
<glyph horiz-adv-x="280" d="M53 490l16 169h142l14 22h22l-13 -84h-133l-6 -54l5 -5q8 5 25 5q46 0 82.5 -30t36.5 -80q0 -55 -41.5 -90t-97.5 -35q-37 0 -58 11.5t-21 29.5q0 30 29 30q13 0 36.5 -13.5t40.5 -13.5q47 0 47 59q0 34 -21 54.5t-51 20.5q-29 0 -44 -6z" />
<glyph horiz-adv-x="296" d="M114 517l9 -4q19 21 50 21q36 0 66 -27t30 -78q0 -48 -30 -84.5t-91 -36.5q-51 0 -83 37.5t-32 105.5q0 76 50.5 141t136.5 92l10 -29q-102 -54 -116 -138zM111 468q-4 -12 -4 -46q0 -33 13 -55t30 -22q21 0 33 23.5t12 62.5q0 31 -12 47.5t-28 16.5q-30 0 -44 -27z" />
<glyph horiz-adv-x="278" d="M247 659l10 -14q-85 -165 -120 -316q-6 -21 -40 -21q-22 0 -33 5t-7 16q42 116 137 263l-3 8h-125l-18 -43h-25l25 102h199z" />
<glyph horiz-adv-x="307" d="M41 393q0 57 66 92v5q-56 29 -56 82q0 39 29.5 66.5t78.5 27.5q44 0 72 -22.5t28 -56.5q0 -50 -59 -85v-4q32 -18 49 -37t17 -53q0 -46 -31.5 -73t-83.5 -27q-48 0 -79 23.5t-31 61.5zM103 391q0 -21 12 -35t36 -14q23 0 37 14.5t14 38.5t-15.5 40.5t-45.5 34.5 q-38 -25 -38 -79zM114 589q0 -45 55 -72q26 26 26 69q0 22 -11 34t-29 12q-20 0 -30.5 -13t-10.5 -30z" />
<glyph horiz-adv-x="296" d="M186 448l-9 4q-19 -17 -45 -17q-43 0 -73.5 29.5t-30.5 80.5q0 55 36.5 88t81.5 33q52 0 85 -39t33 -104q0 -89 -55.5 -154.5t-145.5 -75.5v32q47 9 82 42t41 81zM187 503q6 15 6 55q0 33 -13 53t-36 20q-19 0 -31 -21t-12 -61q0 -76 43 -76q24 0 43 30z" />
<glyph horiz-adv-x="308" d="M32 124q0 92 35.5 139.5t90.5 47.5q53 0 86 -48t33 -139q0 -84 -33 -127.5t-86 -43.5q-55 0 -90.5 43.5t-35.5 127.5zM103 124q0 -71 16 -104t39 -33q20 0 34.5 34t14.5 103q0 52 -7.5 88t-18 50.5t-23.5 14.5q-22 0 -38.5 -39.5t-16.5 -113.5z" />
<glyph horiz-adv-x="253" d="M37 248v33q52 1 96 28l36 -3v-306l51 -8v-32h-171v32l52 8v251q-37 -10 -64 -3z" />
<glyph horiz-adv-x="307" d="M184 204q0 22 -13.5 37t-36.5 15q-22 0 -41 -13.5t-47 -43.5l-17 17q65 95 134 95q45 0 70.5 -22.5t25.5 -57.5q0 -40 -45 -99.5t-90 -99.5l3 -8h106l25 40l23 -7l-31 -97h-214l-6 18q52 43 103 109.5t51 116.5z" />
<glyph horiz-adv-x="279" d="M232 249q0 -50 -67 -92v-5q33 -8 56.5 -35t23.5 -60q0 -47 -39.5 -75.5t-85.5 -28.5q-45 0 -70 14.5t-25 37.5q0 11 7.5 19t20.5 8q17 0 34.5 -21t35.5 -21q19 0 35 16t16 46q0 23 -12.5 42t-27 26.5t-22.5 3.5l-20 -11l-17 23q88 42 88 84q0 39 -41 39q-38 0 -71 -38 l-15 17q54 73 121 73q32 0 53.5 -17t21.5 -45z" />
<glyph horiz-adv-x="299" d="M200 315l35 -9v-202h34v-44h-34v-100h-67v99h-132l-9 23zM168 204l-6 4l-74 -99l3 -5h77v100z" />
<glyph horiz-adv-x="280" d="M53 135l16 169h142l14 22h22l-13 -84h-133l-6 -54l5 -5q8 5 25 5q46 0 82.5 -30t36.5 -80q0 -55 -41.5 -90t-97.5 -35q-37 0 -58 11.5t-21 29.5q0 30 29 30q13 0 36.5 -13.5t40.5 -13.5q47 0 47 59q0 34 -21 54.5t-51 20.5q-29 0 -44 -6z" />
<glyph horiz-adv-x="296" d="M114 162l9 -4q19 21 50 21q36 0 66 -27t30 -78q0 -48 -30 -84.5t-91 -36.5q-51 0 -83 37.5t-32 105.5q0 76 50.5 141t136.5 92l10 -29q-102 -54 -116 -138zM111 113q-4 -12 -4 -46q0 -33 13 -55t30 -22q21 0 33 23.5t12 62.5q0 31 -12 47.5t-28 16.5q-30 0 -44 -27z" />
<glyph horiz-adv-x="278" d="M247 304l10 -14q-85 -165 -120 -316q-6 -21 -40 -21q-22 0 -33 5t-7 16q42 116 137 263l-3 8h-125l-18 -43h-25l25 102h199z" />
<glyph horiz-adv-x="307" d="M41 38q0 57 66 92v5q-56 29 -56 82q0 39 29.5 66.5t78.5 27.5q44 0 72 -22.5t28 -56.5q0 -50 -59 -85v-4q32 -18 49 -37t17 -53q0 -46 -31.5 -73t-83.5 -27q-48 0 -79 23.5t-31 61.5zM103 36q0 -21 12 -35t36 -14q23 0 37 14.5t14 38.5t-15.5 40.5t-45.5 34.5 q-38 -25 -38 -79zM114 234q0 -45 55 -72q26 26 26 69q0 21 -11 33.5t-29 12.5q-20 0 -30.5 -13t-10.5 -30z" />
<glyph horiz-adv-x="296" d="M186 93l-9 4q-19 -17 -45 -17q-43 0 -73.5 29.5t-30.5 80.5q0 55 36.5 88t81.5 33q52 0 85 -39t33 -104q0 -89 -55.5 -154.5t-145.5 -75.5v32q47 9 82 42t41 81zM187 148q6 15 6 55q0 33 -13 53t-36 20q-19 0 -31 -21t-12 -61q0 -76 43 -76q24 0 43 30z" />
<glyph d="M119 -54l241 370l223 353l40 -26l-234 -349l-231 -375zM85 577v33q52 1 96 28l36 -3v-306l51 -8v-32h-171v32l52 8v251q-37 -10 -64 -3zM591 204q0 22 -13.5 37t-36.5 15q-22 0 -41 -13.5t-47 -43.5l-17 17q65 95 134 95q45 0 70.5 -22.5t25.5 -57.5q0 -40 -45 -99.5 t-90 -99.5l3 -8h106l25 40l23 -7l-31 -97h-214l-6 18q52 43 103 109.5t51 116.5z" />
<glyph d="M119 -54l241 370l223 353l40 -26l-234 -349l-231 -375zM85 577v33q52 1 96 28l36 -3v-306l51 -8v-32h-171v32l52 8v251q-37 -10 -64 -3zM639 249q0 -50 -67 -92v-5q33 -8 56.5 -35t23.5 -60q0 -47 -39.5 -75.5t-85.5 -28.5q-45 0 -70 14.5t-25 37.5q0 11 7.5 19t20.5 8 q17 0 34.5 -21t35.5 -21q19 0 35 16t16 46q0 23 -12.5 42t-27 26.5t-22.5 3.5l-20 -11l-17 23q88 42 88 84q0 39 -41 39q-38 0 -71 -38l-15 17q54 73 121 73q32 0 53.5 -17t21.5 -45z" />
<glyph d="M119 -54l241 370l223 353l40 -26l-234 -349l-231 -375zM85 577v33q52 1 96 28l36 -3v-306l51 -8v-32h-171v32l52 8v251q-37 -10 -64 -3zM576 315l35 -9v-202h34v-44h-34v-100h-67v99h-132l-9 23zM544 204l-6 4l-74 -99l3 -5h77v100z" />
<glyph d="M119 -54l241 370l223 353l40 -26l-234 -349l-231 -375zM85 577v33q52 1 96 28l36 -3v-306l51 -8v-32h-171v32l52 8v251q-37 -10 -64 -3zM460 135l16 169h142l14 22h22l-13 -84h-133l-6 -54l5 -5q8 5 25 5q46 0 82.5 -30t36.5 -80q0 -55 -41.5 -90t-97.5 -35 q-37 0 -58 11.5t-21 29.5q0 30 29 30q13 0 36.5 -13.5t40.5 -13.5q47 0 47 59q0 34 -21 54.5t-51 20.5q-29 0 -44 -6z" />
<glyph d="M119 -54l241 370l223 353l40 -26l-234 -349l-231 -375zM85 577v33q52 1 96 28l36 -3v-306l51 -8v-32h-171v32l52 8v251q-37 -10 -64 -3zM500 162l9 -4q19 21 50 21q36 0 66 -27t30 -78q0 -48 -30 -84.5t-91 -36.5q-51 0 -83 37.5t-32 105.5q0 76 50.5 141t136.5 92 l10 -29q-102 -54 -116 -138zM497 113q-4 -12 -4 -46q0 -33 13 -55t30 -22q21 0 33 23.5t12 62.5q0 31 -12 47.5t-28 16.5q-30 0 -44 -27z" />
<glyph d="M119 -54l241 370l223 353l40 -26l-234 -349l-231 -375zM85 577v33q52 1 96 28l36 -3v-306l51 -8v-32h-171v32l52 8v251q-37 -10 -64 -3zM685 304l10 -14q-85 -165 -120 -316q-6 -21 -40 -21q-22 0 -33 5t-7 16q42 116 137 263l-3 8h-125l-18 -43h-25l25 102h199z" />
<glyph d="M119 -54l241 370l223 353l40 -26l-234 -349l-231 -375zM85 577v33q52 1 96 28l36 -3v-306l51 -8v-32h-171v32l52 8v251q-37 -10 -64 -3zM448 38q0 57 66 92v5q-56 29 -56 82q0 39 29.5 66.5t78.5 27.5q44 0 72 -22.5t28 -56.5q0 -50 -59 -85v-4q32 -18 49 -37t17 -53 q0 -46 -31.5 -73t-83.5 -27q-48 0 -79 23.5t-31 61.5zM510 36q0 -21 12 -35t36 -14q23 0 37 14.5t14 38.5t-15.5 40.5t-45.5 34.5q-38 -25 -38 -79zM521 234q0 -45 55 -72q26 26 26 69q0 21 -11 33.5t-29 12.5q-20 0 -30.5 -13t-10.5 -30z" />
<glyph d="M119 -54l241 370l223 353l40 -26l-234 -349l-231 -375zM85 577v33q52 1 96 28l36 -3v-306l51 -8v-32h-171v32l52 8v251q-37 -10 -64 -3zM593 93l-9 4q-19 -17 -45 -17q-43 0 -73.5 29.5t-30.5 80.5q0 55 36.5 88t81.5 33q52 0 85 -39t33 -104q0 -89 -55.5 -154.5 t-145.5 -75.5v32q47 9 82 42t41 81zM594 148q6 15 6 55q0 33 -13 53t-36 20q-19 0 -31 -21t-12 -61q0 -76 43 -76q24 0 43 30z" />
<glyph d="M119 -54l241 370l223 353l40 -26l-234 -349l-231 -375zM199 533q0 22 -13.5 37t-36.5 15q-22 0 -41 -13.5t-47 -43.5l-17 17q65 95 134 95q45 0 70.5 -22.5t25.5 -57.5q0 -40 -45 -99.5t-90 -99.5l3 -8h106l25 40l23 -7l-31 -97h-214l-6 18q52 43 103 109.5t51 116.5z M639 249q0 -50 -67 -92v-5q33 -8 56.5 -35t23.5 -60q0 -47 -39.5 -75.5t-85.5 -28.5q-45 0 -70 14.5t-25 37.5q0 11 7.5 19t20.5 8q17 0 34.5 -21t35.5 -21q19 0 35 16t16 46q0 23 -12.5 42t-27 26.5t-22.5 3.5l-20 -11l-17 23q88 42 88 84q0 39 -41 39q-38 0 -71 -38 l-15 17q54 73 121 73q32 0 53.5 -17t21.5 -45z" />
<glyph d="M119 -54l241 370l223 353l40 -26l-234 -349l-231 -375zM199 533q0 22 -13.5 37t-36.5 15q-22 0 -41 -13.5t-47 -43.5l-17 17q65 95 134 95q45 0 70.5 -22.5t25.5 -57.5q0 -40 -45 -99.5t-90 -99.5l3 -8h106l25 40l23 -7l-31 -97h-214l-6 18q52 43 103 109.5t51 116.5z M460 135l16 169h142l14 22h22l-13 -84h-133l-6 -54l5 -5q8 5 25 5q46 0 82.5 -30t36.5 -80q0 -55 -41.5 -90t-97.5 -35q-37 0 -58 11.5t-21 29.5q0 30 29 30q13 0 36.5 -13.5t40.5 -13.5q47 0 47 59q0 34 -21 54.5t-51 20.5q-29 0 -44 -6z" />
<glyph d="M119 -54l241 370l223 353l40 -26l-234 -349l-231 -375zM199 533q0 22 -13.5 37t-36.5 15q-22 0 -41 -13.5t-47 -43.5l-17 17q65 95 134 95q45 0 70.5 -22.5t25.5 -57.5q0 -40 -45 -99.5t-90 -99.5l3 -8h106l25 40l23 -7l-31 -97h-214l-6 18q52 43 103 109.5t51 116.5z M685 304l10 -14q-85 -165 -120 -316q-6 -21 -40 -21q-22 0 -33 5t-7 16q42 116 137 263l-3 8h-125l-18 -43h-25l25 102h199z" />
<glyph d="M119 -54l241 370l223 353l40 -26l-234 -349l-231 -375zM199 533q0 22 -13.5 37t-36.5 15q-22 0 -41 -13.5t-47 -43.5l-17 17q65 95 134 95q45 0 70.5 -22.5t25.5 -57.5q0 -40 -45 -99.5t-90 -99.5l3 -8h106l25 40l23 -7l-31 -97h-214l-6 18q52 43 103 109.5t51 116.5z M593 93l-9 4q-19 -17 -45 -17q-43 0 -73.5 29.5t-30.5 80.5q0 55 36.5 88t81.5 33q52 0 85 -39t33 -104q0 -89 -55.5 -154.5t-145.5 -75.5v32q47 9 82 42t41 81zM594 148q6 15 6 55q0 33 -13 53t-36 20q-19 0 -31 -21t-12 -61q0 -76 43 -76q24 0 43 30z" />
<glyph d="M119 -54l241 370l223 353l40 -26l-234 -349l-231 -375zM275 578q0 -50 -67 -92v-5q33 -8 56.5 -35t23.5 -60q0 -47 -39.5 -75.5t-85.5 -28.5q-45 0 -70 14.5t-25 37.5q0 11 7.5 19t20.5 8q17 0 34.5 -21t35.5 -21q19 0 35 16t16 46q0 23 -12.5 42t-27 26.5t-22.5 3.5 l-20 -11l-17 23q88 42 88 84q0 39 -41 39q-38 0 -71 -38l-15 17q54 73 121 73q32 0 53.5 -17t21.5 -45zM576 315l35 -9v-202h34v-44h-34v-100h-67v99h-132l-9 23zM544 204l-6 4l-74 -99l3 -5h77v100z" />
<glyph d="M119 -54l241 370l223 353l40 -26l-234 -349l-231 -375zM275 578q0 -50 -67 -92v-5q33 -8 56.5 -35t23.5 -60q0 -47 -39.5 -75.5t-85.5 -28.5q-45 0 -70 14.5t-25 37.5q0 11 7.5 19t20.5 8q17 0 34.5 -21t35.5 -21q19 0 35 16t16 46q0 23 -12.5 42t-27 26.5t-22.5 3.5 l-20 -11l-17 23q88 42 88 84q0 39 -41 39q-38 0 -71 -38l-15 17q54 73 121 73q32 0 53.5 -17t21.5 -45zM460 135l16 169h142l14 22h22l-13 -84h-133l-6 -54l5 -5q8 5 25 5q46 0 82.5 -30t36.5 -80q0 -55 -41.5 -90t-97.5 -35q-37 0 -58 11.5t-21 29.5q0 30 29 30 q13 0 36.5 -13.5t40.5 -13.5q47 0 47 59q0 34 -21 54.5t-51 20.5q-29 0 -44 -6z" />
<glyph d="M119 -54l241 370l223 353l40 -26l-234 -349l-231 -375zM275 578q0 -50 -67 -92v-5q33 -8 56.5 -35t23.5 -60q0 -47 -39.5 -75.5t-85.5 -28.5q-45 0 -70 14.5t-25 37.5q0 11 7.5 19t20.5 8q17 0 34.5 -21t35.5 -21q19 0 35 16t16 46q0 23 -12.5 42t-27 26.5t-22.5 3.5 l-20 -11l-17 23q88 42 88 84q0 39 -41 39q-38 0 -71 -38l-15 17q54 73 121 73q32 0 53.5 -17t21.5 -45zM685 304l10 -14q-85 -165 -120 -316q-6 -21 -40 -21q-22 0 -33 5t-7 16q42 116 137 263l-3 8h-125l-18 -43h-25l25 102h199z" />
<glyph d="M119 -54l241 370l223 353l40 -26l-234 -349l-231 -375zM275 578q0 -50 -67 -92v-5q33 -8 56.5 -35t23.5 -60q0 -47 -39.5 -75.5t-85.5 -28.5q-45 0 -70 14.5t-25 37.5q0 11 7.5 19t20.5 8q17 0 34.5 -21t35.5 -21q19 0 35 16t16 46q0 23 -12.5 42t-27 26.5t-22.5 3.5 l-20 -11l-17 23q88 42 88 84q0 39 -41 39q-38 0 -71 -38l-15 17q54 73 121 73q32 0 53.5 -17t21.5 -45zM448 38q0 57 66 92v5q-56 29 -56 82q0 39 29.5 66.5t78.5 27.5q44 0 72 -22.5t28 -56.5q0 -50 -59 -85v-4q32 -18 49 -37t17 -53q0 -46 -31.5 -73t-83.5 -27 q-48 0 -79 23.5t-31 61.5zM510 36q0 -21 12 -35t36 -14q23 0 37 14.5t14 38.5t-15.5 40.5t-45.5 34.5q-38 -25 -38 -79zM521 234q0 -45 55 -72q26 26 26 69q0 21 -11 33.5t-29 12.5q-20 0 -30.5 -13t-10.5 -30z" />
<glyph d="M119 -54l241 370l223 353l40 -26l-234 -349l-231 -375zM223 644l35 -9v-202h34v-44h-34v-100h-67v99h-132l-9 23zM191 533l-6 4l-74 -99l3 -5h77v100zM460 135l16 169h142l14 22h22l-13 -84h-133l-6 -54l5 -5q8 5 25 5q46 0 82.5 -30t36.5 -80q0 -55 -41.5 -90t-97.5 -35 q-37 0 -58 11.5t-21 29.5q0 30 29 30q13 0 36.5 -13.5t40.5 -13.5q47 0 47 59q0 34 -21 54.5t-51 20.5q-29 0 -44 -6z" />
<glyph d="M119 -54l241 370l223 353l40 -26l-234 -349l-231 -375zM223 644l35 -9v-202h34v-44h-34v-100h-67v99h-132l-9 23zM191 533l-6 4l-74 -99l3 -5h77v100zM685 304l10 -14q-85 -165 -120 -316q-6 -21 -40 -21q-22 0 -33 5t-7 16q42 116 137 263l-3 8h-125l-18 -43h-25l25 102 h199z" />
<glyph d="M119 -54l241 370l223 353l40 -26l-234 -349l-231 -375zM223 644l35 -9v-202h34v-44h-34v-100h-67v99h-132l-9 23zM191 533l-6 4l-74 -99l3 -5h77v100zM593 93l-9 4q-19 -17 -45 -17q-43 0 -73.5 29.5t-30.5 80.5q0 55 36.5 88t81.5 33q52 0 85 -39t33 -104 q0 -89 -55.5 -154.5t-145.5 -75.5v32q47 9 82 42t41 81zM594 148q6 15 6 55q0 33 -13 53t-36 20q-19 0 -31 -21t-12 -61q0 -76 43 -76q24 0 43 30z" />
<glyph d="M119 -54l241 370l223 353l40 -26l-234 -349l-231 -375zM95 464l16 169h142l14 22h22l-13 -84h-133l-6 -54l5 -5q8 5 25 5q46 0 82.5 -30t36.5 -80q0 -55 -41.5 -90t-97.5 -35q-37 0 -58 11.5t-21 29.5q0 30 29 30q13 0 36.5 -13.5t40.5 -13.5q47 0 47 59q0 34 -21 54.5 t-51 20.5q-29 0 -44 -6zM500 162l9 -4q19 21 50 21q36 0 66 -27t30 -78q0 -48 -30 -84.5t-91 -36.5q-51 0 -83 37.5t-32 105.5q0 76 50.5 141t136.5 92l10 -29q-102 -54 -116 -138zM497 113q-4 -12 -4 -46q0 -33 13 -55t30 -22q21 0 33 23.5t12 62.5q0 31 -12 47.5t-28 16.5 q-30 0 -44 -27z" />
<glyph d="M119 -54l241 370l223 353l40 -26l-234 -349l-231 -375zM95 464l16 169h142l14 22h22l-13 -84h-133l-6 -54l5 -5q8 5 25 5q46 0 82.5 -30t36.5 -80q0 -55 -41.5 -90t-97.5 -35q-37 0 -58 11.5t-21 29.5q0 30 29 30q13 0 36.5 -13.5t40.5 -13.5q47 0 47 59q0 34 -21 54.5 t-51 20.5q-29 0 -44 -6zM685 304l10 -14q-85 -165 -120 -316q-6 -21 -40 -21q-22 0 -33 5t-7 16q42 116 137 263l-3 8h-125l-18 -43h-25l25 102h199z" />
<glyph d="M119 -54l241 370l223 353l40 -26l-234 -349l-231 -375zM95 464l16 169h142l14 22h22l-13 -84h-133l-6 -54l5 -5q8 5 25 5q46 0 82.5 -30t36.5 -80q0 -55 -41.5 -90t-97.5 -35q-37 0 -58 11.5t-21 29.5q0 30 29 30q13 0 36.5 -13.5t40.5 -13.5q47 0 47 59q0 34 -21 54.5 t-51 20.5q-29 0 -44 -6zM448 38q0 57 66 92v5q-56 29 -56 82q0 39 29.5 66.5t78.5 27.5q44 0 72 -22.5t28 -56.5q0 -50 -59 -85v-4q32 -18 49 -37t17 -53q0 -46 -31.5 -73t-83.5 -27q-48 0 -79 23.5t-31 61.5zM510 36q0 -21 12 -35t36 -14q23 0 37 14.5t14 38.5t-15.5 40.5 t-45.5 34.5q-38 -25 -38 -79zM521 234q0 -45 55 -72q26 26 26 69q0 21 -11 33.5t-29 12.5q-20 0 -30.5 -13t-10.5 -30z" />
<glyph d="M119 -54l241 370l223 353l40 -26l-234 -349l-231 -375zM95 464l16 169h142l14 22h22l-13 -84h-133l-6 -54l5 -5q8 5 25 5q46 0 82.5 -30t36.5 -80q0 -55 -41.5 -90t-97.5 -35q-37 0 -58 11.5t-21 29.5q0 30 29 30q13 0 36.5 -13.5t40.5 -13.5q47 0 47 59q0 34 -21 54.5 t-51 20.5q-29 0 -44 -6zM593 93l-9 4q-19 -17 -45 -17q-43 0 -73.5 29.5t-30.5 80.5q0 55 36.5 88t81.5 33q52 0 85 -39t33 -104q0 -89 -55.5 -154.5t-145.5 -75.5v32q47 9 82 42t41 81zM594 148q6 15 6 55q0 33 -13 53t-36 20q-19 0 -31 -21t-12 -61q0 -76 43 -76 q24 0 43 30z" />
<glyph d="M119 -54l241 370l223 353l40 -26l-234 -349l-231 -375zM140 491l9 -4q19 21 50 21q36 0 66 -27t30 -78q0 -48 -30 -84.5t-91 -36.5q-51 0 -83 37.5t-32 105.5q0 76 50.5 141t136.5 92l10 -29q-102 -54 -116 -138zM137 442q-4 -12 -4 -46q0 -33 13 -55t30 -22 q21 0 33 23.5t12 62.5q0 31 -12 47.5t-28 16.5q-30 0 -44 -27zM685 304l10 -14q-85 -165 -120 -316q-6 -21 -40 -21q-22 0 -33 5t-7 16q42 116 137 263l-3 8h-125l-18 -43h-25l25 102h199z" />
<glyph d="M119 -54l241 370l223 353l40 -26l-234 -349l-231 -375zM321 633l10 -14q-85 -165 -120 -316q-6 -21 -40 -21q-22 0 -33 5t-7 16q42 116 137 263l-3 8h-125l-18 -43h-25l25 102h199zM448 38q0 57 66 92v5q-56 29 -56 82q0 39 29.5 66.5t78.5 27.5q44 0 72 -22.5t28 -56.5 q0 -50 -59 -85v-4q32 -18 49 -37t17 -53q0 -46 -31.5 -73t-83.5 -27q-48 0 -79 23.5t-31 61.5zM510 36q0 -21 12 -35t36 -14q23 0 37 14.5t14 38.5t-15.5 40.5t-45.5 34.5q-38 -25 -38 -79zM521 234q0 -45 55 -72q26 26 26 69q0 21 -11 33.5t-29 12.5q-20 0 -30.5 -13 t-10.5 -30z" />
<glyph d="M119 -54l241 370l223 353l40 -26l-234 -349l-231 -375zM321 633l10 -14q-85 -165 -120 -316q-6 -21 -40 -21q-22 0 -33 5t-7 16q42 116 137 263l-3 8h-125l-18 -43h-25l25 102h199zM593 93l-9 4q-19 -17 -45 -17q-43 0 -73.5 29.5t-30.5 80.5q0 55 36.5 88t81.5 33 q52 0 85 -39t33 -104q0 -89 -55.5 -154.5t-145.5 -75.5v32q47 9 82 42t41 81zM594 148q6 15 6 55q0 33 -13 53t-36 20q-19 0 -31 -21t-12 -61q0 -76 43 -76q24 0 43 30z" />
<glyph d="M119 -54l241 370l223 353l40 -26l-234 -349l-231 -375zM76 367q0 57 66 92v5q-56 29 -56 82q0 39 29.5 66.5t78.5 27.5q44 0 72 -22.5t28 -56.5q0 -50 -59 -85v-4q32 -18 49 -37t17 -53q0 -46 -31.5 -73t-83.5 -27q-48 0 -79 23.5t-31 61.5zM138 365q0 -21 12 -35t36 -14 q23 0 37 14.5t14 38.5t-15.5 40.5t-45.5 34.5q-38 -25 -38 -79zM149 563q0 -45 55 -72q26 26 26 69q0 22 -11 34t-29 12q-20 0 -30.5 -13t-10.5 -30zM593 93l-9 4q-19 -17 -45 -17q-43 0 -73.5 29.5t-30.5 80.5q0 55 36.5 88t81.5 33q52 0 85 -39t33 -104 q0 -89 -55.5 -154.5t-145.5 -75.5v32q47 9 82 42t41 81zM594 148q6 15 6 55q0 33 -13 53t-36 20q-19 0 -31 -21t-12 -61q0 -76 43 -76q24 0 43 30z" />
<glyph horiz-adv-x="308" d="M32 4q0 92 35.5 139.5t90.5 47.5q53 0 86 -48t33 -139q0 -84 -33 -127.5t-86 -43.5q-55 0 -90.5 43.5t-35.5 127.5zM103 4q0 -71 16 -104t39 -33q20 0 34.5 34t14.5 103q0 52 -7.5 88t-18 50.5t-23.5 14.5q-22 0 -38.5 -39.5t-16.5 -113.5z" />
<glyph horiz-adv-x="253" d="M37 128v33q52 1 96 28l36 -3v-306l51 -8v-32h-171v32l52 8v251q-37 -10 -64 -3z" />
<glyph horiz-adv-x="307" d="M184 84q0 22 -13.5 37t-36.5 15q-22 0 -41 -13.5t-47 -43.5l-17 17q65 95 134 95q45 0 70.5 -22.5t25.5 -57.5q0 -40 -45 -99.5t-90 -99.5l3 -8h106l25 40l23 -7l-31 -97h-214l-6 18q52 43 103 109.5t51 116.5z" />
<glyph horiz-adv-x="279" d="M232 129q0 -50 -67 -92v-5q33 -8 56.5 -35t23.5 -60q0 -47 -39.5 -75.5t-85.5 -28.5q-45 0 -70 14.5t-25 37.5q0 11 7.5 19t20.5 8q17 0 34.5 -21t35.5 -21q19 0 35 16t16 46q0 23 -12.5 42t-27 26.5t-22.5 3.5l-20 -11l-17 23q88 42 88 84q0 39 -41 39q-38 0 -71 -38 l-15 17q54 73 121 73q32 0 53.5 -17t21.5 -45z" />
<glyph horiz-adv-x="299" d="M200 195l35 -9v-202h34v-44h-34v-100h-67v99h-132l-9 23zM168 84l-6 4l-74 -99l3 -5h77v100z" />
<glyph horiz-adv-x="280" d="M53 15l16 169h142l14 22h22l-13 -84h-133l-6 -54l5 -5q8 5 25 5q46 0 82.5 -30t36.5 -80q0 -55 -41.5 -90t-97.5 -35q-37 0 -58 11.5t-21 29.5q0 30 29 30q13 0 36.5 -13.5t40.5 -13.5q47 0 47 59q0 34 -21 54.5t-51 20.5q-29 0 -44 -6z" />
<glyph horiz-adv-x="296" d="M114 42l9 -4q19 21 50 21q36 0 66 -27t30 -78q0 -48 -30 -84.5t-91 -36.5q-51 0 -83 37.5t-32 105.5q0 76 50.5 141t136.5 92l10 -29q-102 -54 -116 -138zM111 -7q-4 -12 -4 -46q0 -33 13 -55t30 -22q21 0 33 23.5t12 62.5q0 31 -12 47.5t-28 16.5q-30 0 -44 -27z" />
<glyph horiz-adv-x="278" d="M247 184l10 -14q-85 -165 -120 -316q-6 -21 -40 -21q-22 0 -33 5t-7 16q42 116 137 263l-3 8h-125l-18 -43h-25l25 102h199z" />
<glyph horiz-adv-x="307" d="M41 -82q0 57 66 92v5q-56 29 -56 82q0 39 29.5 66.5t78.5 27.5q44 0 72 -22.5t28 -56.5q0 -50 -59 -85v-4q32 -18 49 -37t17 -53q0 -46 -31.5 -73t-83.5 -27q-48 0 -79 23.5t-31 61.5zM103 -84q0 -21 12 -35t36 -14q23 0 37 14.5t14 38.5t-15.5 40.5t-45.5 34.5 q-38 -25 -38 -79zM114 114q0 -45 55 -72q26 26 26 69q0 21 -11 33.5t-29 12.5q-20 0 -30.5 -13t-10.5 -30z" />
<glyph horiz-adv-x="296" d="M186 -27l-9 4q-19 -17 -45 -17q-43 0 -73.5 29.5t-30.5 80.5q0 55 36.5 88t81.5 33q52 0 85 -39t33 -104q0 -89 -55.5 -154.5t-145.5 -75.5v32q47 9 82 42t41 81zM187 28q6 15 6 55q0 33 -13 53t-36 20q-19 0 -31 -21t-12 -61q0 -76 43 -76q24 0 43 30z" />
<glyph horiz-adv-x="500" d="M190 488v8l86 164h94v-10l-129 -162h-51z" />
<glyph horiz-adv-x="500" d="M310 496v-8h-51l-129 162v10h94z" />
<glyph horiz-adv-x="500" d="M395 496v-8h-46l-99 99l-99 -99h-46v8l121 164h48z" />
<glyph horiz-adv-x="500" d="M250 493q-50 0 -85 39t-35 113h40q0 -35 22.5 -61.5t57.5 -26.5q32 0 56 25.5t24 62.5h40q0 -74 -35 -113t-85 -39z" />
<glyph horiz-adv-x="500" d="M395 660v-8l-121 -164h-48l-121 164v8h46l99 -99l99 99h46z" />
<glyph horiz-adv-x="500" d="M280 488v8l86 164h94v-10l-139 -162h-41zM140 488v8l86 164h94v-10l-139 -162h-41z" />
<glyph horiz-adv-x="430" d="M49 555h692v-55h-692v55z" />
<glyph horiz-adv-x="430" d="M49 545h292v-50h-292v50z" />
<glyph horiz-adv-x="404" d="M77 278h250v-73h-250v73z" />
<glyph horiz-adv-x="422" d="M361 -143l-29 -34q-101 91 -161 196t-60 244q0 87 30.5 164.5t75.5 132.5t114 117l30 -39q-160 -161 -160 -375q0 -256 160 -406z" />
<glyph horiz-adv-x="422" d="M90 -177l-29 34q160 150 160 406q0 214 -160 375l30 39q69 -62 114 -117t75.5 -132.5t30.5 -164.5q0 -139 -60 -244t-161 -196z" />
<glyph horiz-adv-x="425" d="M350 640v-48q-76 -15 -150 -5v-672q68 6 156 -6v-51q-40 6 -111.5 6.5t-122.5 -5.5v780q51 -5 123 -5t105 6z" />
<glyph horiz-adv-x="425" d="M75 592v48q33 -6 105 -6t123 5v-780q-51 6 -122.5 5.5t-111.5 -6.5v51q88 12 156 6v672q-74 -10 -150 5z" />
<glyph horiz-adv-x="515" d="M172 278v-16q56 -9 96 -45.5t40 -90.5q0 -19 -15 -65.5t-15 -72.5q0 -79 146 -79v-42q-131 0 -179.5 31.5t-48.5 99.5q0 24 14 70t14 66q0 50 -39.5 75.5t-103.5 25.5v66q60 0 101.5 29.5t41.5 67.5q0 24 -13 66t-13 64q0 62 50 88.5t170 26.5v-42q-140 0 -140 -64 q0 -28 15 -72.5t15 -61.5q0 -46 -40 -81t-96 -44z" />
<glyph horiz-adv-x="515" d="M343 262v16q-56 9 -96 44t-40 81q0 17 15 61.5t15 72.5q0 64 -140 64v42q120 0 170 -26.5t50 -88.5q0 -22 -13 -64t-13 -66q0 -38 41.5 -67.5t101.5 -29.5v-66q-64 0 -103.5 -25.5t-39.5 -75.5q0 -20 14 -66t14 -70q0 -68 -48.5 -99.5t-179.5 -31.5v42q146 0 146 79 q0 26 -15 72.5t-15 65.5q0 54 40 90.5t96 45.5z" />
<glyph horiz-adv-x="500" d="M185 594q0 27 18.5 46t45.5 19t46.5 -19t19.5 -46t-19.5 -45.5t-46.5 -18.5t-45.5 18.5t-18.5 45.5z" />
<glyph horiz-adv-x="591" d="M63 253q0 118 66.5 196t165.5 78q103 0 168 -77.5t65 -196.5q0 -121 -65 -193.5t-168 -72.5t-167.5 74.5t-64.5 191.5zM171 253q0 -105 35.5 -160.5t88.5 -55.5q125 0 125 216q0 107 -33.5 165.5t-91.5 58.5q-55 0 -89.5 -58.5t-34.5 -165.5z" />
<glyph horiz-adv-x="445" d="M78 455v35q86 -1 164 33l40 -4v-466l92 -15v-38h-281v38l93 15v392q-68 -7 -108 10z" />
<glyph horiz-adv-x="540" d="M334 369q0 35 -23 55t-64 20q-70 0 -153 -78l-25 27q43 54 101.5 94t122.5 40q66 0 104 -33t38 -86q0 -37 -16 -74.5t-46 -72t-56.5 -60.5t-63 -58t-50.5 -46l5 -11h192l41 47l32 -10l-51 -123h-358l-12 32q6 6 64.5 56t99.5 88t79.5 94.5t38.5 98.5z" />
<glyph horiz-adv-x="486" d="M393 432q0 -73 -101 -125v-10q51 -9 89 -45.5t38 -100.5q0 -67 -61 -115.5t-161 -48.5q-71 0 -112 19.5t-41 49.5q0 19 13.5 34t38.5 15q30 0 64.5 -34.5t66.5 -34.5q36 0 64 26t28 73q0 57 -44 90.5t-80 12.5l-30 -17l-22 36q45 26 72.5 44t53 44.5t25.5 49.5 q0 56 -76 56q-68 0 -126 -62l-28 30q91 108 203 108q57 0 91.5 -26.5t34.5 -68.5z" />
<glyph horiz-adv-x="537" d="M349 526l49 -17v-307h76v-63h-76v-139h-98v139h-234l-16 32zM300 379l-11 6l-144 -173l5 -10h150v177z" />
<glyph horiz-adv-x="513" d="M93 252l28 266h245l26 39h39l-23 -127h-246l-11 -98l8 -8q27 8 89 8q75 0 131.5 -38t56.5 -122q0 -81 -66.5 -133t-170.5 -52q-57 0 -96 19.5t-39 49.5q0 20 13 34t38 14q26 0 61.5 -30t70.5 -30q41 0 72 29.5t31 76.5q0 43 -34 69t-100 26q-63 0 -105 -11z" />
<glyph horiz-adv-x="535" d="M181 313l16 -8q43 38 112 38q65 0 115 -43.5t50 -125.5q0 -74 -56.5 -130.5t-155.5 -56.5q-87 0 -143 61t-56 165q0 110 89.5 203t240.5 130l10 -35q-191 -72 -222 -198zM175 228q-7 -24 -7 -68q0 -52 28.5 -85.5t69.5 -33.5q48 0 74.5 37t26.5 98q0 54 -26 82t-65 28 q-67 0 -101 -58z" />
<glyph horiz-adv-x="491" d="M434 518l19 -26q-64 -112 -121 -242.5t-81 -225.5q-9 -37 -65 -37q-27 0 -43 10t-8 28q105 235 227 391l-7 14h-217l-32 -68h-45l46 156h327z" />
<glyph horiz-adv-x="544" d="M77 121q0 45 29 71.5t82 50.5v9q-94 42 -94 129q0 59 50.5 102.5t132.5 43.5q78 0 128 -34.5t50 -88.5q0 -77 -96 -122v-8q108 -55 108 -135q0 -70 -54.5 -111t-144.5 -41q-84 0 -137.5 36.5t-53.5 97.5zM158 119q0 -34 31 -59t81 -25t81 23.5t31 61.5q0 36 -33 58 t-108 48q-83 -34 -83 -107zM178 403q0 -67 133 -105q58 34 58 103q0 36 -26 57t-69 21q-45 0 -70.5 -23t-25.5 -53z" />
<glyph horiz-adv-x="535" d="M360 200l-16 8q-47 -41 -117 -41q-63 0 -113 44t-50 122q0 86 63 140t137 54q95 0 153 -63.5t58 -171.5q0 -121 -93 -208t-263 -104v45q89 10 159 61.5t82 113.5zM361 280q11 25 11 75q0 54 -28 87.5t-77 33.5q-44 0 -69.5 -38t-25.5 -99q0 -116 90 -116q57 0 99 57z" />
<glyph horiz-adv-x="422" d="M361 -143l-29 -34q-101 91 -161 196t-60 244q0 87 30.5 164.5t75.5 132.5t114 117l30 -39q-160 -161 -160 -375q0 -256 160 -406z" />
<glyph horiz-adv-x="422" d="M90 -177l-29 34q160 150 160 406q0 214 -160 375l30 39q69 -62 114 -117t75.5 -132.5t30.5 -164.5q0 -139 -60 -244t-161 -196z" />
<glyph horiz-adv-x="425" d="M350 640v-48q-76 -15 -150 -5v-672q68 6 156 -6v-51q-40 6 -111.5 6.5t-122.5 -5.5v780q51 -5 123 -5t105 6z" />
<glyph horiz-adv-x="425" d="M75 592v48q33 -6 105 -6t123 5v-780q-51 6 -122.5 5.5t-111.5 -6.5v51q88 12 156 6v672q-74 -10 -150 5z" />
<glyph horiz-adv-x="515" d="M172 278v-16q56 -9 96 -45.5t40 -90.5q0 -19 -15 -65.5t-15 -72.5q0 -79 146 -79v-42q-131 0 -179.5 31.5t-48.5 99.5q0 24 14 70t14 66q0 50 -39.5 75.5t-103.5 25.5v66q60 0 101.5 29.5t41.5 67.5q0 24 -13 66t-13 64q0 62 50 88.5t170 26.5v-42q-140 0 -140 -64 q0 -28 15 -72.5t15 -61.5q0 -46 -40 -81t-96 -44z" />
<glyph horiz-adv-x="515" d="M343 262v16q-56 9 -96 44t-40 81q0 17 15 61.5t15 72.5q0 64 -140 64v42q120 0 170 -26.5t50 -88.5q0 -22 -13 -64t-13 -66q0 -38 41.5 -67.5t101.5 -29.5v-66q-64 0 -103.5 -25.5t-39.5 -75.5q0 -20 14 -66t14 -70q0 -68 -48.5 -99.5t-179.5 -31.5v42q146 0 146 79 q0 26 -15 72.5t-15 65.5q0 54 40 90.5t96 45.5z" />
<glyph horiz-adv-x="716" d="M447 430q0 -66 -112 -123q68 -58 127 -128q34 46 66 106l-57 11v38h175v-38l-61 -11q-48 -84 -95 -143q28 -37 62 -93q9 -14 19 -14q9 0 17 7.5t23 28.5l29 -19q-36 -65 -95 -65q-33 0 -58 27q-50 61 -53 65q-93 -92 -179 -92q-69 0 -121 45t-52 101q0 62 33 98t114 70 q-64 64 -64 112q0 33 54 73.5t101 40.5q43 0 85 -35t42 -62zM407 114q-83 106 -147 161q-40 -19 -58 -44t-18 -60q0 -57 35 -89t71 -32q50 0 117 64zM247 432q0 -37 56 -95q55 36 55 85q0 25 -16 47t-35 22t-39.5 -19t-20.5 -40z" />
<glyph horiz-adv-x="550" d="M463 614l-300 -736h-76l300 736h76z" />
<glyph horiz-adv-x="844" d="M670 347q0 28 -8 57.5t-26 60.5t-54.5 50.5t-86.5 19.5q-85 0 -159.5 -59t-117 -150.5t-42.5 -188.5q0 -95 38.5 -142t107.5 -47q81 0 148 52l18 -40q-39 -29 -86 -45t-86 -16q-103 0 -157 63t-54 176q0 102 51.5 203t144 168.5t198.5 67.5q109 0 174.5 -63.5 t65.5 -166.5q0 -69 -28.5 -127t-71 -92t-85 -52.5t-76.5 -18.5q-58 0 -13 104l-11 8q-81 -114 -148 -114q-25 0 -38 20t-13 47q0 67 49 151q39 64 92 106t102 42q25 0 34 -23h4q6 13 14 18t31 5q15 0 21 -3.5t4 -9.5l-88 -269q-6 -25 11 -25q37 0 89 66.5t52 166.5zM330 155 q0 -37 21 -37q28 0 77.5 63.5t84.5 146.5q7 53 -24 53q-27 0 -58 -26.5t-56 -68.5q-45 -76 -45 -131z" />
<glyph horiz-adv-x="549" d="M454 173q0 -63 -60 -115q46 -43 46 -93q0 -57 -50 -87.5t-114 -30.5q-38 0 -86 12t-82 32v119h35q16 -62 54 -89t84 -27q34 0 55 16t21 44q0 27 -27 50.5t-65.5 42.5t-77 40t-65.5 51t-27 67q0 65 64 112q-49 41 -49 96q0 43 42.5 78.5t116.5 35.5q94 0 160 -44v-119h-35 q-33 116 -127 116q-35 0 -56.5 -17.5t-21.5 -42.5q0 -24 27.5 -46t66.5 -41t77.5 -39.5t66 -51.5t27.5 -69zM168 226q0 -24 25.5 -45t81 -49.5t79.5 -43.5q24 25 24 56q0 25 -19 46.5t-40 34t-61.5 33t-59.5 32.5q-30 -26 -30 -64z" />
<glyph horiz-adv-x="627" d="M552 518v-50q-26 0 -40 -19.5t-14 -48.5v-551h-61v619h-52v-619h-61v302q-112 0 -174.5 49t-62.5 135q0 83 63 133t162 50h240zM324 201v267q-56 0 -90 -37t-34 -98q0 -60 33 -96t91 -36z" />
<glyph horiz-adv-x="269" d="M83 256l18 236q2 37 15.5 55.5t41.5 12.5l23 -5q21 -5 26 -28t-8 -60l-78 -220z" />
<glyph horiz-adv-x="448" d="M83 256l18 236q2 37 15.5 55.5t41.5 12.5l23 -5q21 -5 26 -28t-8 -60l-78 -220zM262 256l18 236q2 37 15.5 55.5t41.5 12.5l23 -5q21 -5 26 -28t-8 -60l-78 -220z" />
<glyph horiz-adv-x="310" d="M73 286l70 266l96 -34l-114 -250z" />
<glyph horiz-adv-x="500" d="M73 286l70 266l96 -34l-114 -250zM263 286l70 266l96 -34l-114 -250z" />
<glyph horiz-adv-x="566" d="M306 373q49 -24 120 -44q35 -9 28 -40q-6 -27 -30 -36q-21 -7 -38 10q-63 66 -93 85q5 -56 25 -124q10 -32 -20 -43q-27 -9 -44 9q-13 13 -8 34q21 96 23 124q-47 -29 -93 -85q-20 -23 -46 -2q-24 19 -18 43q4 16 26 23q84 26 119 46q-51 22 -119 37q-30 5 -26 36 q4 28 27 36q18 7 35 -9q67 -60 95 -80q-7 52 -26 121q-10 34 21 45q28 9 47 -9q13 -14 7 -36q-2 -10 -9.5 -37t-11.5 -46t-6 -38q47 31 95 80q26 28 50 4q20 -21 12 -46q-7 -16 -24 -21q-9 -2 -28 -6.5t-30.5 -7.5t-28.5 -9t-31 -14z" />
<glyph horiz-adv-x="550" d="M387 -122l-300 736h76l300 -736h-76z" />
<glyph horiz-adv-x="793" d="M89 251q0 126 90.5 216.5t217.5 90.5q131 0 219 -89.5t88 -217.5q0 -127 -90.5 -217.5t-216.5 -90.5q-129 0 -218.5 87t-89.5 221zM148 249q0 -110 70 -183t180 -73t178.5 72.5t68.5 183.5q0 114 -70.5 187.5t-177.5 73.5q-109 0 -179 -74.5t-70 -186.5zM405 121 q41 0 64 17.5t36 56.5h26v-74q-63 -39 -128 -39q-74 0 -124 45.5t-50 124.5q0 76 50 123t124 47q60 0 124 -35v-77h-28q-26 75 -96 75q-46 0 -73.5 -32t-27.5 -100q0 -64 31 -98t72 -34z" />
<glyph horiz-adv-x="793" d="M89 251q0 126 90.5 216.5t217.5 90.5q131 0 219 -89.5t88 -217.5q0 -127 -90.5 -217.5t-216.5 -90.5q-129 0 -218.5 87t-89.5 221zM148 249q0 -110 70 -183t180 -73t178.5 72.5t68.5 183.5q0 114 -70.5 187.5t-177.5 73.5q-109 0 -179 -74.5t-70 -186.5zM418 224h-37 v-108l46 -8v-24h-160v24l43 8v270l-43 8v24h153q51 0 89.5 -24.5t38.5 -72.5q0 -44 -35 -70.5t-95 -26.5zM381 382v-124h41q21 0 37 16.5t16 42.5q0 65 -57 65h-37z" />
<glyph horiz-adv-x="716" d="M447 430q0 -66 -112 -123q68 -58 127 -128q34 46 66 106l-57 11v38h175v-38l-61 -11q-48 -84 -95 -143q28 -37 62 -93q9 -14 19 -14q9 0 17 7.5t23 28.5l29 -19q-36 -65 -95 -65q-33 0 -58 27q-50 61 -53 65q-93 -92 -179 -92q-69 0 -121 45t-52 101q0 62 33 98t114 70 q-64 64 -64 112q0 33 54 73.5t101 40.5q43 0 85 -35t42 -62zM407 114q-83 106 -147 161q-40 -19 -58 -44t-18 -60q0 -57 35 -89t71 -32q50 0 117 64zM247 432q0 -37 56 -95q55 36 55 85q0 25 -16 47t-35 22t-39.5 -19t-20.5 -40z" />
<glyph horiz-adv-x="510" d="M42 253q0 118 61 196t151 78q94 0 153.5 -77.5t59.5 -196.5q0 -121 -59.5 -193.5t-153.5 -72.5t-153 74.5t-59 191.5zM150 253q0 -105 30.5 -160.5t73.5 -55.5q105 0 105 216q0 107 -28 165.5t-77 58.5q-45 0 -74.5 -59t-29.5 -165z" />
<glyph horiz-adv-x="510" d="M115 455v35q86 -1 164 33l40 -4v-466l92 -15v-38h-281v38l93 15v392q-68 -7 -108 10z" />
<glyph horiz-adv-x="510" d="M324 369q0 35 -23 55t-64 20q-70 0 -153 -78l-25 27q43 54 101.5 94t122.5 40q66 0 104 -33t38 -86q0 -37 -16 -74.5t-46 -72t-56.5 -60.5t-63 -58t-50.5 -46l5 -11h192l41 47l32 -10l-51 -123h-358l-12 32q6 6 64.5 56t99.5 88t79.5 94.5t38.5 98.5z" />
<glyph horiz-adv-x="510" d="M411 432q0 -73 -101 -125v-10q51 -9 89 -45.5t38 -100.5q0 -67 -61 -115.5t-161 -48.5q-71 0 -112 19.5t-41 49.5q0 19 13.5 34t38.5 15q30 0 64.5 -34.5t66.5 -34.5q36 0 64 26t28 73q0 57 -44 90.5t-80 12.5l-30 -17l-22 36q45 26 72.5 44t53 44.5t25.5 49.5 q0 56 -76 56q-68 0 -126 -62l-28 30q91 108 203 108q57 0 91.5 -26.5t34.5 -68.5z" />
<glyph horiz-adv-x="510" d="M342 526l49 -17v-307h76v-63h-76v-139h-98v139h-234l-16 32zM293 379l-11 6l-144 -173l5 -10h150v177z" />
<glyph horiz-adv-x="510" d="M96 252l28 266h245l26 39h39l-23 -127h-246l-11 -98l8 -8q27 8 89 8q75 0 131.5 -38t56.5 -122q0 -81 -66.5 -133t-170.5 -52q-57 0 -96 19.5t-39 49.5q0 20 13 34t38 14q26 0 61.5 -30t70.5 -30q41 0 72 29.5t31 76.5q0 43 -34 69t-100 26q-63 0 -105 -11z" />
<glyph horiz-adv-x="510" d="M174 313l16 -8q43 38 112 38q65 0 115 -43.5t50 -125.5q0 -74 -56.5 -130.5t-155.5 -56.5q-87 0 -143 61t-56 165q0 110 89.5 203t240.5 130l10 -35q-191 -72 -222 -198zM168 228q-7 -24 -7 -68q0 -52 28.5 -85.5t69.5 -33.5q48 0 74.5 37t26.5 98q0 54 -26 82t-65 28 q-67 0 -101 -58z" />
<glyph horiz-adv-x="510" d="M447 518l19 -26q-64 -112 -121 -242.5t-81 -225.5q-9 -37 -65 -37q-27 0 -43 10t-8 28q105 235 227 391l-7 14h-217l-32 -68h-45l46 156h327z" />
<glyph horiz-adv-x="510" d="M60 121q0 45 29 71.5t82 50.5v9q-94 42 -94 129q0 59 50.5 102.5t132.5 43.5q78 0 128 -34.5t50 -88.5q0 -77 -96 -122v-8q108 -55 108 -135q0 -70 -54.5 -111t-144.5 -41q-84 0 -137.5 36.5t-53.5 97.5zM141 119q0 -34 31 -59t81 -25t81 23.5t31 61.5q0 36 -33 58 t-108 48q-83 -34 -83 -107zM161 403q0 -67 133 -105q58 34 58 103q0 36 -26 57t-69 21q-45 0 -70.5 -23t-25.5 -53z" />
<glyph horiz-adv-x="510" d="M347 200l-16 8q-47 -41 -117 -41q-63 0 -113 44t-50 122q0 86 63 140t137 54q95 0 153 -63.5t58 -171.5q0 -121 -93 -208t-263 -104v45q89 10 159 61.5t82 113.5zM348 280q11 25 11 75q0 54 -28 87.5t-77 33.5q-44 0 -69.5 -38t-25.5 -99q0 -116 90 -116q57 0 99 57z" />
<glyph horiz-adv-x="503" d="M271 608v-82q46 -3 97 -24l25 11h14l12 -148h-35q-32 103 -113 115v-172q157 -53 157 -163q0 -70 -43 -110.5t-114 -46.5v-76h-37v76q-68 4 -104 29l-22 -12h-22l-11 152h39q26 -115 120 -125v192q-82 28 -117 66.5t-35 92.5q0 52 42 95.5t110 47.5v82h37zM350 125 q0 29 -17 49.5t-62 36.5v-178q38 6 58.5 30.5t20.5 61.5zM160 401q0 -49 74 -79v159q-35 -4 -54.5 -26t-19.5 -54z" />
<glyph horiz-adv-x="453" d="M252 576v-95q63 0 101 -26t38 -63q0 -38 -44 -38q-22 0 -34.5 13.5t-16 29.5t-14.5 31t-30 18v-323h13q34 0 63.5 18t46.5 44l27 -13q-20 -52 -59.5 -86t-90.5 -38v-98h-38v98q-73 10 -117 71t-44 143q0 81 44.5 141t116.5 74v99h38zM139 278q0 -115 75 -146v308 q-32 -16 -53.5 -59.5t-21.5 -102.5z" />
<glyph horiz-adv-x="509" d="M84 291h64q-25 71 -25 112q0 60 44 92t103 32q70 0 112.5 -29t42.5 -58q0 -18 -11 -29.5t-24 -11.5q-21 0 -35 14.5t-21 31.5t-23.5 31.5t-41.5 14.5q-21 0 -36.5 -18.5t-15.5 -54.5q0 -14 1.5 -27t6 -27.5t7 -23t9.5 -26t9 -23.5h113v-38h-101q7 -31 7 -57 q0 -65 -60 -94l5 -8q14 6 30 6q32 0 74 -33.5t69 -33.5t27 24q0 11 -22 27.5t-22 33.5q0 12 8.5 21.5t22.5 9.5q24 0 39 -19.5t15 -54.5q0 -42 -28.5 -65t-65.5 -23q-60 0 -115.5 19t-84.5 41h-3q-35 -60 -72 -60q-20 0 -20 18q0 42 82 71q33 45 33 79q0 37 -19 98h-78v38z " />
<glyph horiz-adv-x="532" d="M118 209h102v27l-135 231l-55 13v38h211v-38l-54 -13l96 -171h13l96 162l-70 22v38h180v-38l-58 -22l-131 -222v-27h102v-36h-102v-42h102v-36h-102v-44l64 -13v-38h-222v38l65 13v44h-102v36h102v42h-102v36z" />
<glyph horiz-adv-x="553" d="M47 306h58q16 101 82.5 161t157.5 60q89 0 158 -54l-22 -93h-27q2 51 -31.5 74t-72.5 23q-55 0 -93 -43.5t-47 -127.5h256l-8 -35h-251v-21v-14h244l-7 -35h-234q10 -79 50 -121.5t94 -42.5q38 0 68.5 21.5t46.5 61.5l34 -9q-44 -124 -172 -124q-89 0 -152 56.5 t-75 157.5h-64l7 35h54v13q0 15 1 22h-62z" />
<glyph horiz-adv-x="508" d="M96 393h88l34 163h55l-34 -163h80l34 163h55l-34 -163h79v-64h-92l-30 -141h81v-64h-94l-40 -191h-55l40 191h-80l-40 -191h-55l40 191h-73v64h86l30 141h-75v64zM226 329l-30 -141h80l30 141h-80z" />
<glyph horiz-adv-x="495" d="M258 432l-2 -1q-1 -64 -34 -105t-79 -41q-38 0 -62 26t-24 69q0 60 38.5 103.5t82.5 43.5q58 0 77 -52q9 -25 50 -25q37 0 62 27q24 50 52 50q22 0 22 -17q0 -22 -33 -46l-157 -238l-149 -245l-37 20l158 239l114 185l-2 2q-17 -9 -40 -9t-37 14zM249 82q0 60 38.5 103.5 t81.5 43.5q37 0 60 -23.5t23 -64.5q0 -68 -34.5 -111t-76.5 -43q-41 0 -66.5 26.5t-25.5 68.5zM377 188q-24 0 -46 -36t-22 -74q0 -52 36 -52q24 0 45.5 32t21.5 85q0 22 -10 33.5t-25 11.5zM186 486q-24 0 -46 -36t-22 -74q0 -52 37 -52q23 0 44.5 32t21.5 81t-35 49z" />
<glyph horiz-adv-x="724" d="M258 432l-2 -1q-1 -64 -34 -105t-79 -41q-38 0 -62 26t-24 69q0 60 38.5 103.5t82.5 43.5q58 0 77 -52q9 -25 50 -25q37 0 62 27q24 50 52 50q22 0 22 -17q0 -22 -33 -46l-157 -238l-149 -245l-37 20l158 239l114 185l-2 2q-17 -9 -40 -9t-37 14zM249 82q0 60 38.5 103.5 t81.5 43.5q37 0 60 -23.5t23 -64.5q0 -68 -34.5 -111t-76.5 -43q-41 0 -66.5 26.5t-25.5 68.5zM377 188q-24 0 -46 -36t-22 -74q0 -52 36 -52q24 0 45.5 32t21.5 85q0 22 -10 33.5t-25 11.5zM186 486q-24 0 -46 -36t-22 -74q0 -52 37 -52q23 0 44.5 32t21.5 81t-35 49z M478 82q0 60 38.5 103.5t81.5 43.5q37 0 60 -23.5t23 -64.5q0 -68 -34.5 -111t-76.5 -43q-41 0 -66.5 26.5t-25.5 68.5zM606 188q-24 0 -46 -36t-22 -74q0 -52 36 -52q24 0 45.5 32t21.5 85q0 22 -10 33.5t-25 11.5z" />
<glyph horiz-adv-x="457" d="M306 193l-30 75h-130l-27 -68l51 -17v-30h-135v30l40 17l130 318h51l129 -325l37 -10v-30h-159v30zM210 425l-50 -122h103l-48 122h-5z" />
<glyph horiz-adv-x="440" d="M30 336q0 86 55 138.5t136 52.5q83 0 136 -51.5t53 -139.5q0 -89 -54 -139t-135 -50q-82 0 -136.5 50.5t-54.5 138.5zM117 336q0 -68 30 -107t74 -39q45 0 73.5 36t28.5 110q0 72 -29 111.5t-73 39.5t-74 -40t-30 -111z" />
<glyph horiz-adv-x="387" d="M50 383q0 59 42 101.5t101 42.5t101.5 -42.5t42.5 -101.5t-42.5 -101t-101.5 -42t-101 42t-42 101zM110 383q0 -39 22.5 -65.5t59.5 -26.5t60.5 26.5t23.5 65.5t-23.5 66.5t-60.5 27.5t-59.5 -27.5t-22.5 -66.5z" />
<glyph horiz-adv-x="331" d="M103 478q0 23 14 37.5t39 14.5q35 0 61.5 -36.5t26.5 -96.5q0 -100 -109 -162l-23 37q67 47 67 92q0 22 -19 39t-38 34.5t-19 40.5z" />
<glyph horiz-adv-x="331" d="M228 287q0 -23 -14 -37.5t-39 -14.5q-35 0 -61.5 36.5t-26.5 96.5q0 100 109 162l23 -37q-67 -47 -67 -92q0 -22 19 -39t38 -34.5t19 -40.5z" />
<glyph horiz-adv-x="531" d="M228 287q0 -23 -14 -37.5t-39 -14.5q-35 0 -61.5 36.5t-26.5 96.5q0 100 109 162l23 -37q-67 -47 -67 -92q0 -22 19 -39t38 -34.5t19 -40.5zM428 287q0 -23 -14 -37.5t-39 -14.5q-35 0 -61.5 36.5t-26.5 96.5q0 100 109 162l23 -37q-67 -47 -67 -92q0 -22 19 -39 t38 -34.5t19 -40.5z" />
<glyph horiz-adv-x="531" d="M103 478q0 23 14 37.5t39 14.5q35 0 61.5 -36.5t26.5 -96.5q0 -100 -109 -162l-23 37q67 47 67 92q0 22 -19 39t-38 34.5t-19 40.5zM303 478q0 23 14 37.5t39 14.5q35 0 61.5 -36.5t26.5 -96.5q0 -100 -109 -162l-23 37q67 47 67 92q0 22 -19 39t-38 34.5t-19 40.5z" />
<glyph horiz-adv-x="331" d="M103 73q0 23 14 37.5t39 14.5q35 0 61.5 -36.5t26.5 -96.5q0 -100 -109 -162l-23 37q67 47 67 92q0 22 -19 39t-38 34.5t-19 40.5z" />
<glyph horiz-adv-x="531" d="M103 73q0 23 14 37.5t39 14.5q35 0 61.5 -36.5t26.5 -96.5q0 -100 -109 -162l-23 37q67 47 67 92q0 22 -19 39t-38 34.5t-19 40.5zM303 73q0 23 14 37.5t39 14.5q35 0 61.5 -36.5t26.5 -96.5q0 -100 -109 -162l-23 37q67 47 67 92q0 22 -19 39t-38 34.5t-19 40.5z" />
<glyph horiz-adv-x="811" d="M79 518h242v-38l-71 -15v-412l71 -15v-38h-242v38l72 15v412l-72 15v38zM140 568v8l86 164h94v-10l-129 -162h-51zM572 -51v516l-77 15v38h247v-38l-71 -15v-428q0 -90 -62.5 -160.5t-129.5 -70.5q-35 0 -57 14.5t-22 43.5q0 23 13 36t33 13q17 0 37 -15.5t35 -15.5 q54 0 54 67zM562 568v8l86 164h94v-10l-129 -162h-51z" />
<glyph horiz-adv-x="811" d="M79 518h242v-38l-71 -15v-412l71 -15v-38h-242v38l72 15v412l-72 15v38zM140 568v8l86 164h94v-10l-129 -162h-51zM572 -51v516l-77 15v38h247v-38l-71 -15v-428q0 -90 -62.5 -160.5t-129.5 -70.5q-35 0 -57 14.5t-22 43.5q0 23 13 36t33 13q17 0 37 -15.5t35 -15.5 q54 0 54 67zM562 568v8l86 164h94v-10l-129 -162h-51z" />
<glyph horiz-adv-x="500" d="M220 488v8l36 164h94v-10l-79 -162h-51z" />
<glyph horiz-adv-x="500" d="M220 488v8l36 129h94v-10l-79 -127h-51z" />
<glyph horiz-adv-x="400" d="M79 518h242v-38l-71 -15v-412l71 -15v-38h-242v38l72 15v412l-72 15v38z" />
<glyph horiz-adv-x="591" d="M63 253q0 118 66.5 196t165.5 78q103 0 168 -77.5t65 -196.5q0 -121 -65 -193.5t-168 -72.5t-167.5 74.5t-64.5 191.5zM171 253q0 -105 35.5 -160.5t88.5 -55.5q125 0 125 216q0 107 -33.5 165.5t-91.5 58.5q-55 0 -89.5 -58.5t-34.5 -165.5z" />
<glyph horiz-adv-x="445" d="M78 455v35q86 -1 164 33l40 -4v-466l92 -15v-38h-281v38l93 15v392q-68 -7 -108 10z" />
<glyph horiz-adv-x="540" d="M334 369q0 35 -23 55t-64 20q-70 0 -153 -78l-25 27q43 54 101.5 94t122.5 40q66 0 104 -33t38 -86q0 -37 -16 -74.5t-46 -72t-56.5 -60.5t-63 -58t-50.5 -46l5 -11h192l41 47l32 -10l-51 -123h-358l-12 32q6 6 64.5 56t99.5 88t79.5 94.5t38.5 98.5z" />
<glyph horiz-adv-x="486" d="M393 432q0 -73 -101 -125v-10q51 -9 89 -45.5t38 -100.5q0 -67 -61 -115.5t-161 -48.5q-71 0 -112 19.5t-41 49.5q0 19 13.5 34t38.5 15q30 0 64.5 -34.5t66.5 -34.5q36 0 64 26t28 73q0 57 -44 90.5t-80 12.5l-30 -17l-22 36q45 26 72.5 44t53 44.5t25.5 49.5 q0 56 -76 56q-68 0 -126 -62l-28 30q91 108 203 108q57 0 91.5 -26.5t34.5 -68.5z" />
<glyph horiz-adv-x="537" d="M349 526l49 -17v-307h76v-63h-76v-139h-98v139h-234l-16 32zM300 379l-11 6l-144 -173l5 -10h150v177z" />
<glyph horiz-adv-x="513" d="M93 252l28 266h245l26 39h39l-23 -127h-246l-11 -98l8 -8q27 8 89 8q75 0 131.5 -38t56.5 -122q0 -81 -66.5 -133t-170.5 -52q-57 0 -96 19.5t-39 49.5q0 20 13 34t38 14q26 0 61.5 -30t70.5 -30q41 0 72 29.5t31 76.5q0 43 -34 69t-100 26q-63 0 -105 -11z" />
<glyph horiz-adv-x="535" d="M181 313l16 -8q43 38 112 38q65 0 115 -43.5t50 -125.5q0 -74 -56.5 -130.5t-155.5 -56.5q-87 0 -143 61t-56 165q0 110 89.5 203t240.5 130l10 -35q-191 -72 -222 -198zM175 228q-7 -24 -7 -68q0 -52 28.5 -85.5t69.5 -33.5q48 0 74.5 37t26.5 98q0 54 -26 82t-65 28 q-67 0 -101 -58z" />
<glyph horiz-adv-x="491" d="M434 518l19 -26q-64 -112 -121 -242.5t-81 -225.5q-9 -37 -65 -37q-27 0 -43 10t-8 28q105 235 227 391l-7 14h-217l-32 -68h-45l46 156h327z" />
<glyph horiz-adv-x="544" d="M77 121q0 45 29 71.5t82 50.5v9q-94 42 -94 129q0 59 50.5 102.5t132.5 43.5q78 0 128 -34.5t50 -88.5q0 -77 -96 -122v-8q108 -55 108 -135q0 -70 -54.5 -111t-144.5 -41q-84 0 -137.5 36.5t-53.5 97.5zM158 119q0 -34 31 -59t81 -25t81 23.5t31 61.5q0 36 -33 58 t-108 48q-83 -34 -83 -107zM178 403q0 -67 133 -105q58 34 58 103q0 36 -26 57t-69 21q-45 0 -70.5 -23t-25.5 -53z" />
<glyph horiz-adv-x="535" d="M360 200l-16 8q-47 -41 -117 -41q-63 0 -113 44t-50 122q0 86 63 140t137 54q95 0 153 -63.5t58 -171.5q0 -121 -93 -208t-263 -104v45q89 10 159 61.5t82 113.5zM361 280q11 25 11 75q0 54 -28 87.5t-77 33.5q-44 0 -69.5 -38t-25.5 -99q0 -116 90 -116q57 0 99 57z" />
<glyph horiz-adv-x="540" d="M42 343q0 182 66 278.5t168 96.5q98 0 159.5 -97t61.5 -278q0 -172 -61.5 -263.5t-159.5 -91.5q-102 0 -168 91t-66 264zM152 344q0 -162 35 -235t89 -73q50 0 81 74t31 234q0 167 -30 246.5t-77 79.5q-55 0 -92 -84.5t-37 -241.5z" />
<glyph horiz-adv-x="540" d="M108 620v42q95 1 173 50l50 -5v-652l100 -15v-40h-300v40l101 15v570q-74 -18 -124 -5z" />
<glyph horiz-adv-x="540" d="M346 524q0 52 -26 80t-71 28q-43 0 -78.5 -24t-91.5 -81l-30 32q116 159 236 159q75 0 120 -40t45 -109q0 -68 -50.5 -164t-108.5 -169t-112 -127l6 -14h228l45 63l33 -13l-56 -145h-391l-12 32q76 69 143 147t119 174.5t52 170.5z" />
<glyph horiz-adv-x="540" d="M436 586q0 -52 -34.5 -99t-79.5 -79v-10q55 -14 96 -71t41 -126q0 -94 -67.5 -153.5t-160.5 -59.5q-79 0 -126.5 26.5t-47.5 67.5q0 19 13.5 34t38.5 15q24 0 43.5 -14t31 -30.5t32 -30.5t47.5 -14q37 0 68 35t31 98q0 42 -17 77.5t-40 54.5t-45.5 28t-34.5 3l-36 -20 l-26 39q80 42 129.5 92.5t49.5 101.5q0 41 -22 63.5t-59 22.5q-88 0 -156 -82l-28 30q40 53 97.5 93t127.5 40q56 0 95 -36.5t39 -95.5z" />
<glyph horiz-adv-x="540" d="M356 713l49 -17v-444h86v-66h-86v-186h-98v185h-259l-16 36zM307 530l-11 6l-177 -274l5 -10h183v278z" />
<glyph horiz-adv-x="540" d="M109 382l28 324h265l19 25h39l-21 -120h-261l-11 -147l8 -8q24 8 75 8q80 0 143.5 -58.5t63.5 -155.5q0 -119 -78 -190.5t-204 -71.5q-48 0 -81.5 18t-33.5 46q0 50 59 50q28 0 68.5 -23.5t76.5 -23.5q44 0 75 40t31 115q0 74 -44 119.5t-110 45.5q-47 0 -89 -11z" />
<glyph horiz-adv-x="540" d="M176 398l9 -3q48 43 125 43q66 0 120.5 -53t54.5 -158q0 -43 -12 -83t-37 -76t-69.5 -58t-103.5 -22q-92 0 -150.5 73.5t-58.5 206.5q0 150 85.5 271t254.5 187l10 -35q-88 -47 -150 -122.5t-78 -170.5zM168 318q-7 -45 -7 -103q0 -77 30.5 -125t75.5 -48q52 0 81.5 51.5 t29.5 137.5q0 73 -29 111.5t-72 38.5q-32 0 -62 -16t-47 -47z" />
<glyph horiz-adv-x="540" d="M474 706l19 -26q-68 -144 -132.5 -331t-94.5 -324q-9 -37 -65 -37q-27 0 -43 10t-8 28q46 146 117 300t140 271l-7 14h-257l-32 -73h-45l46 168h362z" />
<glyph horiz-adv-x="540" d="M65 161q0 67 34 107.5t95 74.5v9q-52 27 -82 75t-30 100q0 79 53.5 135t143.5 56q80 0 132 -45.5t52 -117.5q0 -49 -28 -87t-89 -80v-8q61 -36 95 -80t34 -116q0 -90 -57 -143t-152 -53q-88 0 -144.5 47.5t-56.5 125.5zM146 159q0 -55 29.5 -89t90.5 -34q56 0 90 35.5 t34 93.5q0 52 -36.5 87.5t-106.5 71.5q-45 -24 -73 -67.5t-28 -97.5zM166 559q0 -95 132 -153q42 28 60.5 62.5t18.5 83.5q0 54 -28.5 86t-76.5 32q-49 0 -77.5 -32.5t-28.5 -78.5z" />
<glyph horiz-adv-x="540" d="M370 296l-11 8q-53 -41 -115 -41q-78 0 -134 60.5t-56 165.5t67 167t150 62q95 0 154.5 -73t59.5 -197q0 -89 -24 -166.5t-70 -139.5t-118.5 -102t-163.5 -50v40q103 25 176.5 93.5t84.5 172.5zM371 391q11 40 11 120q0 71 -29.5 113.5t-85.5 42.5q-50 0 -77.5 -44 t-27.5 -128q0 -176 105 -176q60 0 104 72z" />
<glyph horiz-adv-x="844" d="M670 347q0 28 -8 57.5t-26 60.5t-54.5 50.5t-86.5 19.5q-85 0 -159.5 -59t-117 -150.5t-42.5 -188.5q0 -95 38.5 -142t107.5 -47q81 0 148 52l18 -40q-39 -29 -86 -45t-86 -16q-103 0 -157 63t-54 176q0 102 51.5 203t144 168.5t198.5 67.5q109 0 174.5 -63.5 t65.5 -166.5q0 -69 -28.5 -127t-71 -92t-85 -52.5t-76.5 -18.5q-58 0 -13 104l-11 8q-81 -114 -148 -114q-25 0 -38 20t-13 47q0 67 49 151q39 64 92 106t102 42q25 0 34 -23h4q6 13 14 18t31 5q15 0 21 -3.5t4 -9.5l-88 -269q-6 -25 11 -25q37 0 89 66.5t52 166.5zM330 155 q0 -37 21 -37q28 0 77.5 63.5t84.5 146.5q7 53 -24 53q-27 0 -58 -26.5t-56 -68.5q-45 -76 -45 -131z" />
<glyph horiz-adv-x="503" d="M271 608v-82q46 -3 97 -24l25 11h14l12 -148h-35q-32 103 -113 115v-172q157 -53 157 -163q0 -70 -43 -110.5t-114 -46.5v-76h-37v76q-68 4 -104 29l-22 -12h-22l-11 152h39q26 -115 120 -125v192q-82 28 -117 66.5t-35 92.5q0 52 42 95.5t110 47.5v82h37zM350 125 q0 29 -17 49.5t-62 36.5v-178q38 6 58.5 30.5t20.5 61.5zM160 401q0 -49 74 -79v159q-35 -4 -54.5 -26t-19.5 -54z" />
<glyph horiz-adv-x="453" d="M252 576v-95q63 0 101 -26t38 -63q0 -38 -44 -38q-22 0 -34.5 13.5t-16 29.5t-14.5 31t-30 18v-323h13q34 0 63.5 18t46.5 44l27 -13q-20 -52 -59.5 -86t-90.5 -38v-98h-38v98q-73 10 -117 71t-44 143q0 81 44.5 141t116.5 74v99h38zM139 278q0 -115 75 -146v308 q-32 -16 -53.5 -59.5t-21.5 -102.5z" />
<glyph horiz-adv-x="509" d="M84 291h64q-25 71 -25 112q0 60 44 92t103 32q70 0 112.5 -29t42.5 -58q0 -18 -11 -29.5t-24 -11.5q-21 0 -35 14.5t-21 31.5t-23.5 31.5t-41.5 14.5q-21 0 -36.5 -18.5t-15.5 -54.5q0 -14 1.5 -27t6 -27.5t7 -23t9.5 -26t9 -23.5h113v-38h-101q7 -31 7 -57 q0 -65 -60 -94l5 -8q14 6 30 6q32 0 74 -33.5t69 -33.5t27 24q0 11 -22 27.5t-22 33.5q0 12 8.5 21.5t22.5 9.5q24 0 39 -19.5t15 -54.5q0 -42 -28.5 -65t-65.5 -23q-60 0 -115.5 19t-84.5 41h-3q-35 -60 -72 -60q-20 0 -20 18q0 42 82 71q33 45 33 79q0 37 -19 98h-78v38z " />
<glyph horiz-adv-x="532" d="M118 209h102v27l-135 231l-55 13v38h211v-38l-54 -13l96 -171h13l96 162l-70 22v38h180v-38l-58 -22l-131 -222v-27h102v-36h-102v-42h102v-36h-102v-44l64 -13v-38h-222v38l65 13v44h-102v36h102v42h-102v36z" />
<glyph horiz-adv-x="553" d="M47 306h58q16 101 82.5 161t157.5 60q89 0 158 -54l-22 -93h-27q2 51 -31.5 74t-72.5 23q-55 0 -93 -43.5t-47 -127.5h256l-8 -35h-251v-21v-14h244l-7 -35h-234q10 -79 50 -121.5t94 -42.5q38 0 68.5 21.5t46.5 61.5l34 -9q-44 -124 -172 -124q-89 0 -152 56.5 t-75 157.5h-64l7 35h54v13q0 15 1 22h-62z" />
<glyph horiz-adv-x="508" d="M96 393h88l34 163h55l-34 -163h80l34 163h55l-34 -163h79v-64h-92l-30 -141h81v-64h-94l-40 -191h-55l40 191h-80l-40 -191h-55l40 191h-73v64h86l30 141h-75v64zM226 329l-30 -141h80l30 141h-80z" />
<glyph horiz-adv-x="495" d="M258 432l-2 -1q-1 -64 -34 -105t-79 -41q-38 0 -62 26t-24 69q0 60 38.5 103.5t82.5 43.5q58 0 77 -52q9 -25 50 -25q37 0 62 27q24 50 52 50q22 0 22 -17q0 -22 -33 -46l-157 -238l-149 -245l-37 20l158 239l114 185l-2 2q-17 -9 -40 -9t-37 14zM249 82q0 60 38.5 103.5 t81.5 43.5q37 0 60 -23.5t23 -64.5q0 -68 -34.5 -111t-76.5 -43q-41 0 -66.5 26.5t-25.5 68.5zM377 188q-24 0 -46 -36t-22 -74q0 -52 36 -52q24 0 45.5 32t21.5 85q0 22 -10 33.5t-25 11.5zM186 486q-24 0 -46 -36t-22 -74q0 -52 37 -52q23 0 44.5 32t21.5 81t-35 49z" />
<glyph horiz-adv-x="724" d="M258 432l-2 -1q-1 -64 -34 -105t-79 -41q-38 0 -62 26t-24 69q0 60 38.5 103.5t82.5 43.5q58 0 77 -52q9 -25 50 -25q37 0 62 27q24 50 52 50q22 0 22 -17q0 -22 -33 -46l-157 -238l-149 -245l-37 20l158 239l114 185l-2 2q-17 -9 -40 -9t-37 14zM249 82q0 60 38.5 103.5 t81.5 43.5q37 0 60 -23.5t23 -64.5q0 -68 -34.5 -111t-76.5 -43q-41 0 -66.5 26.5t-25.5 68.5zM377 188q-24 0 -46 -36t-22 -74q0 -52 36 -52q24 0 45.5 32t21.5 85q0 22 -10 33.5t-25 11.5zM186 486q-24 0 -46 -36t-22 -74q0 -52 37 -52q23 0 44.5 32t21.5 81t-35 49z M478 82q0 60 38.5 103.5t81.5 43.5q37 0 60 -23.5t23 -64.5q0 -68 -34.5 -111t-76.5 -43q-41 0 -66.5 26.5t-25.5 68.5zM606 188q-24 0 -46 -36t-22 -74q0 -52 36 -52q24 0 45.5 32t21.5 85q0 22 -10 33.5t-25 11.5z" />
<glyph horiz-adv-x="457" d="M306 193l-30 75h-130l-27 -68l51 -17v-30h-135v30l40 17l130 318h51l129 -325l37 -10v-30h-159v30zM210 425l-50 -122h103l-48 122h-5z" />
<glyph horiz-adv-x="440" d="M30 336q0 86 55 138.5t136 52.5q83 0 136 -51.5t53 -139.5q0 -89 -54 -139t-135 -50q-82 0 -136.5 50.5t-54.5 138.5zM117 336q0 -68 30 -107t74 -39q45 0 73.5 36t28.5 110q0 72 -29 111.5t-73 39.5t-74 -40t-30 -111z" />
<glyph horiz-adv-x="387" d="M50 383q0 59 42 101.5t101 42.5t101.5 -42.5t42.5 -101.5t-42.5 -101t-101.5 -42t-101 42t-42 101zM110 383q0 -39 22.5 -65.5t59.5 -26.5t60.5 26.5t23.5 65.5t-23.5 66.5t-60.5 27.5t-59.5 -27.5t-22.5 -66.5z" />
<glyph horiz-adv-x="308" d="M32 479q0 92 35.5 139.5t90.5 47.5q53 0 86 -48t33 -139q0 -84 -33 -127.5t-86 -43.5q-55 0 -90.5 43.5t-35.5 127.5zM103 479q0 -71 16 -104t39 -33q20 0 34.5 34t14.5 103q0 52 -7.5 88t-18 50.5t-23.5 14.5q-22 0 -38.5 -39.5t-16.5 -113.5z" />
<glyph horiz-adv-x="253" d="M37 603v33q52 1 96 28l36 -3v-306l51 -8v-32h-171v32l52 8v251q-37 -10 -64 -3z" />
<glyph horiz-adv-x="307" d="M184 559q0 22 -13.5 37t-36.5 15q-22 0 -41 -13.5t-47 -43.5l-17 17q65 95 134 95q45 0 70.5 -22.5t25.5 -57.5q0 -40 -45 -99.5t-90 -99.5l3 -8h106l25 40l23 -7l-31 -97h-214l-6 18q52 43 103 109.5t51 116.5z" />
<glyph horiz-adv-x="279" d="M232 604q0 -50 -67 -92v-5q33 -8 56.5 -35t23.5 -60q0 -47 -39.5 -75.5t-85.5 -28.5q-45 0 -70 14.5t-25 37.5q0 11 7.5 19t20.5 8q17 0 34.5 -21t35.5 -21q19 0 35 16t16 46q0 23 -12.5 42t-27 26.5t-22.5 3.5l-20 -11l-17 23q88 42 88 84q0 39 -41 39q-38 0 -71 -38 l-15 17q54 73 121 73q32 0 53.5 -17t21.5 -45z" />
<glyph horiz-adv-x="299" d="M200 670l35 -9v-202h34v-44h-34v-100h-67v99h-132l-9 23zM168 559l-6 4l-74 -99l3 -5h77v100z" />
<glyph horiz-adv-x="280" d="M53 490l16 169h142l14 22h22l-13 -84h-133l-6 -54l5 -5q8 5 25 5q46 0 82.5 -30t36.5 -80q0 -55 -41.5 -90t-97.5 -35q-37 0 -58 11.5t-21 29.5q0 30 29 30q13 0 36.5 -13.5t40.5 -13.5q47 0 47 59q0 34 -21 54.5t-51 20.5q-29 0 -44 -6z" />
<glyph horiz-adv-x="296" d="M114 517l9 -4q19 21 50 21q36 0 66 -27t30 -78q0 -48 -30 -84.5t-91 -36.5q-51 0 -83 37.5t-32 105.5q0 76 50.5 141t136.5 92l10 -29q-102 -54 -116 -138zM111 468q-4 -12 -4 -46q0 -33 13 -55t30 -22q21 0 33 23.5t12 62.5q0 31 -12 47.5t-28 16.5q-30 0 -44 -27z" />
<glyph horiz-adv-x="278" d="M247 659l10 -14q-85 -165 -120 -316q-6 -21 -40 -21q-22 0 -33 5t-7 16q42 116 137 263l-3 8h-125l-18 -43h-25l25 102h199z" />
<glyph horiz-adv-x="307" d="M41 393q0 57 66 92v5q-56 29 -56 82q0 39 29.5 66.5t78.5 27.5q44 0 72 -22.5t28 -56.5q0 -50 -59 -85v-4q32 -18 49 -37t17 -53q0 -46 -31.5 -73t-83.5 -27q-48 0 -79 23.5t-31 61.5zM103 391q0 -21 12 -35t36 -14q23 0 37 14.5t14 38.5t-15.5 40.5t-45.5 34.5 q-38 -25 -38 -79zM114 589q0 -45 55 -72q26 26 26 69q0 22 -11 34t-29 12q-20 0 -30.5 -13t-10.5 -30z" />
<glyph horiz-adv-x="296" d="M186 448l-9 4q-19 -17 -45 -17q-43 0 -73.5 29.5t-30.5 80.5q0 55 36.5 88t81.5 33q52 0 85 -39t33 -104q0 -89 -55.5 -154.5t-145.5 -75.5v32q47 9 82 42t41 81zM187 503q6 15 6 55q0 33 -13 53t-36 20q-19 0 -31 -21t-12 -61q0 -76 43 -76q24 0 43 30z" />
<glyph horiz-adv-x="308" d="M32 124q0 92 35.5 139.5t90.5 47.5q53 0 86 -48t33 -139q0 -84 -33 -127.5t-86 -43.5q-55 0 -90.5 43.5t-35.5 127.5zM103 124q0 -71 16 -104t39 -33q20 0 34.5 34t14.5 103q0 52 -7.5 88t-18 50.5t-23.5 14.5q-22 0 -38.5 -39.5t-16.5 -113.5z" />
<glyph horiz-adv-x="253" d="M37 248v33q52 1 96 28l36 -3v-306l51 -8v-32h-171v32l52 8v251q-37 -10 -64 -3z" />
<glyph horiz-adv-x="307" d="M184 204q0 22 -13.5 37t-36.5 15q-22 0 -41 -13.5t-47 -43.5l-17 17q65 95 134 95q45 0 70.5 -22.5t25.5 -57.5q0 -40 -45 -99.5t-90 -99.5l3 -8h106l25 40l23 -7l-31 -97h-214l-6 18q52 43 103 109.5t51 116.5z" />
<glyph horiz-adv-x="279" d="M232 249q0 -50 -67 -92v-5q33 -8 56.5 -35t23.5 -60q0 -47 -39.5 -75.5t-85.5 -28.5q-45 0 -70 14.5t-25 37.5q0 11 7.5 19t20.5 8q17 0 34.5 -21t35.5 -21q19 0 35 16t16 46q0 23 -12.5 42t-27 26.5t-22.5 3.5l-20 -11l-17 23q88 42 88 84q0 39 -41 39q-38 0 -71 -38 l-15 17q54 73 121 73q32 0 53.5 -17t21.5 -45z" />
<glyph horiz-adv-x="299" d="M200 315l35 -9v-202h34v-44h-34v-100h-67v99h-132l-9 23zM168 204l-6 4l-74 -99l3 -5h77v100z" />
<glyph horiz-adv-x="280" d="M53 135l16 169h142l14 22h22l-13 -84h-133l-6 -54l5 -5q8 5 25 5q46 0 82.5 -30t36.5 -80q0 -55 -41.5 -90t-97.5 -35q-37 0 -58 11.5t-21 29.5q0 30 29 30q13 0 36.5 -13.5t40.5 -13.5q47 0 47 59q0 34 -21 54.5t-51 20.5q-29 0 -44 -6z" />
<glyph horiz-adv-x="296" d="M114 162l9 -4q19 21 50 21q36 0 66 -27t30 -78q0 -48 -30 -84.5t-91 -36.5q-51 0 -83 37.5t-32 105.5q0 76 50.5 141t136.5 92l10 -29q-102 -54 -116 -138zM111 113q-4 -12 -4 -46q0 -33 13 -55t30 -22q21 0 33 23.5t12 62.5q0 31 -12 47.5t-28 16.5q-30 0 -44 -27z" />
<glyph horiz-adv-x="278" d="M247 304l10 -14q-85 -165 -120 -316q-6 -21 -40 -21q-22 0 -33 5t-7 16q42 116 137 263l-3 8h-125l-18 -43h-25l25 102h199z" />
<glyph horiz-adv-x="307" d="M41 38q0 57 66 92v5q-56 29 -56 82q0 39 29.5 66.5t78.5 27.5q44 0 72 -22.5t28 -56.5q0 -50 -59 -85v-4q32 -18 49 -37t17 -53q0 -46 -31.5 -73t-83.5 -27q-48 0 -79 23.5t-31 61.5zM103 36q0 -21 12 -35t36 -14q23 0 37 14.5t14 38.5t-15.5 40.5t-45.5 34.5 q-38 -25 -38 -79zM114 234q0 -45 55 -72q26 26 26 69q0 21 -11 33.5t-29 12.5q-20 0 -30.5 -13t-10.5 -30z" />
<glyph horiz-adv-x="296" d="M186 93l-9 4q-19 -17 -45 -17q-43 0 -73.5 29.5t-30.5 80.5q0 55 36.5 88t81.5 33q52 0 85 -39t33 -104q0 -89 -55.5 -154.5t-145.5 -75.5v32q47 9 82 42t41 81zM187 148q6 15 6 55q0 33 -13 53t-36 20q-19 0 -31 -21t-12 -61q0 -76 43 -76q24 0 43 30z" />
<glyph d="M119 -54l241 370l223 353l40 -26l-234 -349l-231 -375z" />
<glyph horiz-adv-x="986" d="M516 443q49 -24 120 -44q35 -9 28 -40q-6 -27 -30 -36q-21 -7 -38 10q-63 66 -93 85q5 -56 25 -124q10 -32 -20 -43q-27 -9 -44 9q-12 14 -8 34q21 96 23 124q-47 -29 -93 -85q-20 -23 -46 -2q-24 19 -18 43q4 16 26 23q84 26 119 46q-51 22 -119 37q-30 5 -26 36 q4 28 27 36q18 7 35 -9q67 -60 95 -80q-7 52 -26 121q-10 34 21 45q28 9 47 -9q13 -14 7 -36q-2 -10 -9.5 -37t-11.5 -46t-6 -38q47 31 95 80q26 28 50 4q20 -21 12 -46q-7 -16 -24 -21q-9 -2 -28 -6.5t-30.5 -7.5t-28.5 -9t-31 -14zM306 73q49 -24 120 -44q35 -9 28 -40 q-6 -27 -30 -36q-21 -7 -38 10q-63 66 -93 85q5 -56 25 -124q10 -32 -20 -43q-27 -9 -44 9q-13 13 -8 34q21 96 23 124q-47 -29 -93 -85q-20 -23 -46 -2q-24 19 -18 43q4 16 26 23q84 26 119 46q-51 22 -119 37q-30 5 -26 36q4 28 27 36q18 7 35 -9q67 -60 95 -80 q-7 52 -26 121q-10 34 21 45q28 9 47 -9q13 -14 7 -36q-2 -10 -9.5 -37t-11.5 -46t-6 -38q47 31 95 80q26 28 50 4q20 -21 12 -46q-6 -17 -24 -21q-9 -2 -28 -6.5t-30.5 -7.5t-28.5 -9t-31 -14zM726 73q49 -24 120 -44q35 -9 28 -40q-6 -27 -30 -36q-21 -7 -38 10 q-63 66 -93 85q5 -56 25 -124q10 -32 -20 -43q-27 -9 -44 9q-13 13 -8 34q21 96 23 124q-47 -29 -93 -85q-20 -23 -46 -2q-24 19 -18 43q4 16 26 23q84 26 119 46q-51 22 -119 37q-30 5 -26 36q4 28 27 36q18 7 35 -9q67 -60 95 -80q-7 52 -26 121q-10 34 21 45q28 9 47 -9 q13 -14 7 -36q-2 -10 -9.5 -37t-11.5 -46t-6 -38q47 31 95 80q26 28 50 4q20 -21 12 -46q-6 -17 -24 -21q-9 -2 -28 -6.5t-30.5 -7.5t-28.5 -9t-31 -14z" />
<glyph horiz-adv-x="598" d="M85 393q0 88 63 151t151 63q91 0 152.5 -62.5t61.5 -151.5q0 -88 -63 -151t-151 -63q-89 0 -151.5 61t-62.5 153zM129 392q0 -76 48 -125.5t123 -49.5q70 0 119.5 50.5t49.5 124.5q0 77 -49 126.5t-121 49.5q-78 0 -124 -49.5t-46 -126.5zM332 398v-8q14 -6 38 -39.5 t37 -42.5l15 -7v-20h-55q-14 10 -41.5 52t-47.5 50h-13v-75l37 -7v-20h-114v20l27 7v183l-27 7v20h116q29 0 57 -14t28 -48q0 -20 -15.5 -36.5t-41.5 -21.5zM265 491v-82h26q23 0 34.5 13.5t11.5 31.5q0 37 -40 37h-32z" />
<glyph horiz-adv-x="760" d="M580 484h-7l-78 -179h-17l-74 179h-5l-15 -150l33 -6v-23h-92v23l33 6l19 193l-38 6v23h94l62 -165h7l71 165h92v-23l-35 -6l12 -193l31 -6v-23h-118v23l34 6zM100 556h210l14 -74h-20l-32 47h-38v-195l32 -6v-23h-121v23l32 6v195h-37l-32 -47h-21z" />
<glyph horiz-adv-x="331" d="M103 478q0 23 14 37.5t39 14.5q35 0 61.5 -36.5t26.5 -96.5q0 -100 -109 -162l-23 37q67 47 67 92q0 22 -19 39t-38 34.5t-19 40.5z" />
<glyph horiz-adv-x="331" d="M228 287q0 -23 -14 -37.5t-39 -14.5q-35 0 -61.5 36.5t-26.5 96.5q0 100 109 162l23 -37q-67 -47 -67 -92q0 -22 19 -39t38 -34.5t19 -40.5z" />
<glyph horiz-adv-x="531" d="M228 287q0 -23 -14 -37.5t-39 -14.5q-35 0 -61.5 36.5t-26.5 96.5q0 100 109 162l23 -37q-67 -47 -67 -92q0 -22 19 -39t38 -34.5t19 -40.5zM428 287q0 -23 -14 -37.5t-39 -14.5q-35 0 -61.5 36.5t-26.5 96.5q0 100 109 162l23 -37q-67 -47 -67 -92q0 -22 19 -39 t38 -34.5t19 -40.5z" />
<glyph horiz-adv-x="531" d="M103 478q0 23 14 37.5t39 14.5q35 0 61.5 -36.5t26.5 -96.5q0 -100 -109 -162l-23 37q67 47 67 92q0 22 -19 39t-38 34.5t-19 40.5zM303 478q0 23 14 37.5t39 14.5q35 0 61.5 -36.5t26.5 -96.5q0 -100 -109 -162l-23 37q67 47 67 92q0 22 -19 39t-38 34.5t-19 40.5z" />
<glyph horiz-adv-x="310" d="M73 286l70 266l96 -34l-114 -250z" />
<glyph horiz-adv-x="500" d="M73 286l70 266l96 -34l-114 -250zM263 286l70 266l96 -34l-114 -250z" />
<glyph d="M119 -54l241 370l223 353l40 -26l-234 -349l-231 -375zM85 577v33q52 1 96 28l36 -3v-306l51 -8v-32h-171v32l52 8v251q-37 -10 -64 -3zM685 304l10 -14q-85 -165 -120 -316q-6 -21 -40 -21q-22 0 -33 5t-7 16q42 116 137 263l-3 8h-125l-18 -43h-25l25 102h199z" />
<glyph d="M119 -54l241 370l223 353l40 -26l-234 -349l-231 -375zM85 577v33q52 1 96 28l36 -3v-306l51 -8v-32h-171v32l52 8v251q-37 -10 -64 -3zM593 93l-9 4q-19 -17 -45 -17q-43 0 -73.5 29.5t-30.5 80.5q0 55 36.5 88t81.5 33q52 0 85 -39t33 -104q0 -89 -55.5 -154.5 t-145.5 -75.5v32q47 9 82 42t41 81zM594 148q6 15 6 55q0 33 -13 53t-36 20q-19 0 -31 -21t-12 -61q0 -76 43 -76q24 0 43 30z" />
<glyph d="M119 -54l241 370l223 353l40 -26l-234 -349l-231 -375zM199 533q0 22 -13.5 37t-36.5 15q-22 0 -41 -13.5t-47 -43.5l-17 17q65 95 134 95q45 0 70.5 -22.5t25.5 -57.5q0 -40 -45 -99.5t-90 -99.5l3 -8h106l25 40l23 -7l-31 -97h-214l-6 18q52 43 103 109.5t51 116.5z M685 304l10 -14q-85 -165 -120 -316q-6 -21 -40 -21q-22 0 -33 5t-7 16q42 116 137 263l-3 8h-125l-18 -43h-25l25 102h199z" />
<glyph d="M119 -54l241 370l223 353l40 -26l-234 -349l-231 -375zM199 533q0 22 -13.5 37t-36.5 15q-22 0 -41 -13.5t-47 -43.5l-17 17q65 95 134 95q45 0 70.5 -22.5t25.5 -57.5q0 -40 -45 -99.5t-90 -99.5l3 -8h106l25 40l23 -7l-31 -97h-214l-6 18q52 43 103 109.5t51 116.5z M593 93l-9 4q-19 -17 -45 -17q-43 0 -73.5 29.5t-30.5 80.5q0 55 36.5 88t81.5 33q52 0 85 -39t33 -104q0 -89 -55.5 -154.5t-145.5 -75.5v32q47 9 82 42t41 81zM594 148q6 15 6 55q0 33 -13 53t-36 20q-19 0 -31 -21t-12 -61q0 -76 43 -76q24 0 43 30z" />
<glyph d="M119 -54l241 370l223 353l40 -26l-234 -349l-231 -375zM275 578q0 -50 -67 -92v-5q33 -8 56.5 -35t23.5 -60q0 -47 -39.5 -75.5t-85.5 -28.5q-45 0 -70 14.5t-25 37.5q0 11 7.5 19t20.5 8q17 0 34.5 -21t35.5 -21q19 0 35 16t16 46q0 23 -12.5 42t-27 26.5t-22.5 3.5 l-20 -11l-17 23q88 42 88 84q0 39 -41 39q-38 0 -71 -38l-15 17q54 73 121 73q32 0 53.5 -17t21.5 -45zM685 304l10 -14q-85 -165 -120 -316q-6 -21 -40 -21q-22 0 -33 5t-7 16q42 116 137 263l-3 8h-125l-18 -43h-25l25 102h199z" />
<glyph d="M119 -54l241 370l223 353l40 -26l-234 -349l-231 -375zM223 644l35 -9v-202h34v-44h-34v-100h-67v99h-132l-9 23zM191 533l-6 4l-74 -99l3 -5h77v100zM685 304l10 -14q-85 -165 -120 -316q-6 -21 -40 -21q-22 0 -33 5t-7 16q42 116 137 263l-3 8h-125l-18 -43h-25l25 102 h199z" />
<glyph d="M119 -54l241 370l223 353l40 -26l-234 -349l-231 -375zM223 644l35 -9v-202h34v-44h-34v-100h-67v99h-132l-9 23zM191 533l-6 4l-74 -99l3 -5h77v100zM593 93l-9 4q-19 -17 -45 -17q-43 0 -73.5 29.5t-30.5 80.5q0 55 36.5 88t81.5 33q52 0 85 -39t33 -104 q0 -89 -55.5 -154.5t-145.5 -75.5v32q47 9 82 42t41 81zM594 148q6 15 6 55q0 33 -13 53t-36 20q-19 0 -31 -21t-12 -61q0 -76 43 -76q24 0 43 30z" />
<glyph d="M119 -54l241 370l223 353l40 -26l-234 -349l-231 -375zM95 464l16 169h142l14 22h22l-13 -84h-133l-6 -54l5 -5q8 5 25 5q46 0 82.5 -30t36.5 -80q0 -55 -41.5 -90t-97.5 -35q-37 0 -58 11.5t-21 29.5q0 30 29 30q13 0 36.5 -13.5t40.5 -13.5q47 0 47 59q0 34 -21 54.5 t-51 20.5q-29 0 -44 -6zM685 304l10 -14q-85 -165 -120 -316q-6 -21 -40 -21q-22 0 -33 5t-7 16q42 116 137 263l-3 8h-125l-18 -43h-25l25 102h199z" />
<glyph d="M119 -54l241 370l223 353l40 -26l-234 -349l-231 -375zM95 464l16 169h142l14 22h22l-13 -84h-133l-6 -54l5 -5q8 5 25 5q46 0 82.5 -30t36.5 -80q0 -55 -41.5 -90t-97.5 -35q-37 0 -58 11.5t-21 29.5q0 30 29 30q13 0 36.5 -13.5t40.5 -13.5q47 0 47 59q0 34 -21 54.5 t-51 20.5q-29 0 -44 -6zM593 93l-9 4q-19 -17 -45 -17q-43 0 -73.5 29.5t-30.5 80.5q0 55 36.5 88t81.5 33q52 0 85 -39t33 -104q0 -89 -55.5 -154.5t-145.5 -75.5v32q47 9 82 42t41 81zM594 148q6 15 6 55q0 33 -13 53t-36 20q-19 0 -31 -21t-12 -61q0 -76 43 -76 q24 0 43 30z" />
<glyph d="M119 -54l241 370l223 353l40 -26l-234 -349l-231 -375zM140 491l9 -4q19 21 50 21q36 0 66 -27t30 -78q0 -48 -30 -84.5t-91 -36.5q-51 0 -83 37.5t-32 105.5q0 76 50.5 141t136.5 92l10 -29q-102 -54 -116 -138zM137 442q-4 -12 -4 -46q0 -33 13 -55t30 -22 q21 0 33 23.5t12 62.5q0 31 -12 47.5t-28 16.5q-30 0 -44 -27zM685 304l10 -14q-85 -165 -120 -316q-6 -21 -40 -21q-22 0 -33 5t-7 16q42 116 137 263l-3 8h-125l-18 -43h-25l25 102h199z" />
<glyph d="M119 -54l241 370l223 353l40 -26l-234 -349l-231 -375zM321 633l10 -14q-85 -165 -120 -316q-6 -21 -40 -21q-22 0 -33 5t-7 16q42 116 137 263l-3 8h-125l-18 -43h-25l25 102h199zM593 93l-9 4q-19 -17 -45 -17q-43 0 -73.5 29.5t-30.5 80.5q0 55 36.5 88t81.5 33 q52 0 85 -39t33 -104q0 -89 -55.5 -154.5t-145.5 -75.5v32q47 9 82 42t41 81zM594 148q6 15 6 55q0 33 -13 53t-36 20q-19 0 -31 -21t-12 -61q0 -76 43 -76q24 0 43 30z" />
<glyph d="M119 -54l241 370l223 353l40 -26l-234 -349l-231 -375zM76 367q0 57 66 92v5q-56 29 -56 82q0 39 29.5 66.5t78.5 27.5q44 0 72 -22.5t28 -56.5q0 -50 -59 -85v-4q32 -18 49 -37t17 -53q0 -46 -31.5 -73t-83.5 -27q-48 0 -79 23.5t-31 61.5zM138 365q0 -21 12 -35t36 -14 q23 0 37 14.5t14 38.5t-15.5 40.5t-45.5 34.5q-38 -25 -38 -79zM149 563q0 -45 55 -72q26 26 26 69q0 22 -11 34t-29 12q-20 0 -30.5 -13t-10.5 -30zM593 93l-9 4q-19 -17 -45 -17q-43 0 -73.5 29.5t-30.5 80.5q0 55 36.5 88t81.5 33q52 0 85 -39t33 -104 q0 -89 -55.5 -154.5t-145.5 -75.5v32q47 9 82 42t41 81zM594 148q6 15 6 55q0 33 -13 53t-36 20q-19 0 -31 -21t-12 -61q0 -76 43 -76q24 0 43 30z" />
<glyph d="M119 -54l241 370l223 353l40 -26l-234 -349l-231 -375zM85 577v33q52 1 96 28l36 -3v-306l51 -8v-32h-171v32l52 8v251q-37 -10 -64 -3zM591 204q0 22 -13.5 37t-36.5 15q-22 0 -41 -13.5t-47 -43.5l-17 17q65 95 134 95q45 0 70.5 -22.5t25.5 -57.5q0 -40 -45 -99.5 t-90 -99.5l3 -8h106l25 40l23 -7l-31 -97h-214l-6 18q52 43 103 109.5t51 116.5z" />
<glyph d="M119 -54l241 370l223 353l40 -26l-234 -349l-231 -375zM85 577v33q52 1 96 28l36 -3v-306l51 -8v-32h-171v32l52 8v251q-37 -10 -64 -3zM639 249q0 -50 -67 -92v-5q33 -8 56.5 -35t23.5 -60q0 -47 -39.5 -75.5t-85.5 -28.5q-45 0 -70 14.5t-25 37.5q0 11 7.5 19t20.5 8 q17 0 34.5 -21t35.5 -21q19 0 35 16t16 46q0 23 -12.5 42t-27 26.5t-22.5 3.5l-20 -11l-17 23q88 42 88 84q0 39 -41 39q-38 0 -71 -38l-15 17q54 73 121 73q32 0 53.5 -17t21.5 -45z" />
<glyph d="M119 -54l241 370l223 353l40 -26l-234 -349l-231 -375zM85 577v33q52 1 96 28l36 -3v-306l51 -8v-32h-171v32l52 8v251q-37 -10 -64 -3zM576 315l35 -9v-202h34v-44h-34v-100h-67v99h-132l-9 23zM544 204l-6 4l-74 -99l3 -5h77v100z" />
<glyph d="M119 -54l241 370l223 353l40 -26l-234 -349l-231 -375zM85 577v33q52 1 96 28l36 -3v-306l51 -8v-32h-171v32l52 8v251q-37 -10 -64 -3zM460 135l16 169h142l14 22h22l-13 -84h-133l-6 -54l5 -5q8 5 25 5q46 0 82.5 -30t36.5 -80q0 -55 -41.5 -90t-97.5 -35 q-37 0 -58 11.5t-21 29.5q0 30 29 30q13 0 36.5 -13.5t40.5 -13.5q47 0 47 59q0 34 -21 54.5t-51 20.5q-29 0 -44 -6z" />
<glyph d="M119 -54l241 370l223 353l40 -26l-234 -349l-231 -375zM85 577v33q52 1 96 28l36 -3v-306l51 -8v-32h-171v32l52 8v251q-37 -10 -64 -3zM500 162l9 -4q19 21 50 21q36 0 66 -27t30 -78q0 -48 -30 -84.5t-91 -36.5q-51 0 -83 37.5t-32 105.5q0 76 50.5 141t136.5 92 l10 -29q-102 -54 -116 -138zM497 113q-4 -12 -4 -46q0 -33 13 -55t30 -22q21 0 33 23.5t12 62.5q0 31 -12 47.5t-28 16.5q-30 0 -44 -27z" />
<glyph d="M119 -54l241 370l223 353l40 -26l-234 -349l-231 -375zM85 577v33q52 1 96 28l36 -3v-306l51 -8v-32h-171v32l52 8v251q-37 -10 -64 -3zM685 304l10 -14q-85 -165 -120 -316q-6 -21 -40 -21q-22 0 -33 5t-7 16q42 116 137 263l-3 8h-125l-18 -43h-25l25 102h199z" />
<glyph d="M119 -54l241 370l223 353l40 -26l-234 -349l-231 -375zM85 577v33q52 1 96 28l36 -3v-306l51 -8v-32h-171v32l52 8v251q-37 -10 -64 -3zM448 38q0 57 66 92v5q-56 29 -56 82q0 39 29.5 66.5t78.5 27.5q44 0 72 -22.5t28 -56.5q0 -50 -59 -85v-4q32 -18 49 -37t17 -53 q0 -46 -31.5 -73t-83.5 -27q-48 0 -79 23.5t-31 61.5zM510 36q0 -21 12 -35t36 -14q23 0 37 14.5t14 38.5t-15.5 40.5t-45.5 34.5q-38 -25 -38 -79zM521 234q0 -45 55 -72q26 26 26 69q0 21 -11 33.5t-29 12.5q-20 0 -30.5 -13t-10.5 -30z" />
<glyph d="M119 -54l241 370l223 353l40 -26l-234 -349l-231 -375zM85 577v33q52 1 96 28l36 -3v-306l51 -8v-32h-171v32l52 8v251q-37 -10 -64 -3zM593 93l-9 4q-19 -17 -45 -17q-43 0 -73.5 29.5t-30.5 80.5q0 55 36.5 88t81.5 33q52 0 85 -39t33 -104q0 -89 -55.5 -154.5 t-145.5 -75.5v32q47 9 82 42t41 81zM594 148q6 15 6 55q0 33 -13 53t-36 20q-19 0 -31 -21t-12 -61q0 -76 43 -76q24 0 43 30z" />
<glyph d="M119 -54l241 370l223 353l40 -26l-234 -349l-231 -375zM199 533q0 22 -13.5 37t-36.5 15q-22 0 -41 -13.5t-47 -43.5l-17 17q65 95 134 95q45 0 70.5 -22.5t25.5 -57.5q0 -40 -45 -99.5t-90 -99.5l3 -8h106l25 40l23 -7l-31 -97h-214l-6 18q52 43 103 109.5t51 116.5z M639 249q0 -50 -67 -92v-5q33 -8 56.5 -35t23.5 -60q0 -47 -39.5 -75.5t-85.5 -28.5q-45 0 -70 14.5t-25 37.5q0 11 7.5 19t20.5 8q17 0 34.5 -21t35.5 -21q19 0 35 16t16 46q0 23 -12.5 42t-27 26.5t-22.5 3.5l-20 -11l-17 23q88 42 88 84q0 39 -41 39q-38 0 -71 -38 l-15 17q54 73 121 73q32 0 53.5 -17t21.5 -45z" />
<glyph d="M119 -54l241 370l223 353l40 -26l-234 -349l-231 -375zM199 533q0 22 -13.5 37t-36.5 15q-22 0 -41 -13.5t-47 -43.5l-17 17q65 95 134 95q45 0 70.5 -22.5t25.5 -57.5q0 -40 -45 -99.5t-90 -99.5l3 -8h106l25 40l23 -7l-31 -97h-214l-6 18q52 43 103 109.5t51 116.5z M460 135l16 169h142l14 22h22l-13 -84h-133l-6 -54l5 -5q8 5 25 5q46 0 82.5 -30t36.5 -80q0 -55 -41.5 -90t-97.5 -35q-37 0 -58 11.5t-21 29.5q0 30 29 30q13 0 36.5 -13.5t40.5 -13.5q47 0 47 59q0 34 -21 54.5t-51 20.5q-29 0 -44 -6z" />
<glyph d="M119 -54l241 370l223 353l40 -26l-234 -349l-231 -375zM199 533q0 22 -13.5 37t-36.5 15q-22 0 -41 -13.5t-47 -43.5l-17 17q65 95 134 95q45 0 70.5 -22.5t25.5 -57.5q0 -40 -45 -99.5t-90 -99.5l3 -8h106l25 40l23 -7l-31 -97h-214l-6 18q52 43 103 109.5t51 116.5z M685 304l10 -14q-85 -165 -120 -316q-6 -21 -40 -21q-22 0 -33 5t-7 16q42 116 137 263l-3 8h-125l-18 -43h-25l25 102h199z" />
<glyph d="M119 -54l241 370l223 353l40 -26l-234 -349l-231 -375zM199 533q0 22 -13.5 37t-36.5 15q-22 0 -41 -13.5t-47 -43.5l-17 17q65 95 134 95q45 0 70.5 -22.5t25.5 -57.5q0 -40 -45 -99.5t-90 -99.5l3 -8h106l25 40l23 -7l-31 -97h-214l-6 18q52 43 103 109.5t51 116.5z M593 93l-9 4q-19 -17 -45 -17q-43 0 -73.5 29.5t-30.5 80.5q0 55 36.5 88t81.5 33q52 0 85 -39t33 -104q0 -89 -55.5 -154.5t-145.5 -75.5v32q47 9 82 42t41 81zM594 148q6 15 6 55q0 33 -13 53t-36 20q-19 0 -31 -21t-12 -61q0 -76 43 -76q24 0 43 30z" />
<glyph d="M119 -54l241 370l223 353l40 -26l-234 -349l-231 -375zM275 578q0 -50 -67 -92v-5q33 -8 56.5 -35t23.5 -60q0 -47 -39.5 -75.5t-85.5 -28.5q-45 0 -70 14.5t-25 37.5q0 11 7.5 19t20.5 8q17 0 34.5 -21t35.5 -21q19 0 35 16t16 46q0 23 -12.5 42t-27 26.5t-22.5 3.5 l-20 -11l-17 23q88 42 88 84q0 39 -41 39q-38 0 -71 -38l-15 17q54 73 121 73q32 0 53.5 -17t21.5 -45zM576 315l35 -9v-202h34v-44h-34v-100h-67v99h-132l-9 23zM544 204l-6 4l-74 -99l3 -5h77v100z" />
<glyph d="M119 -54l241 370l223 353l40 -26l-234 -349l-231 -375zM275 578q0 -50 -67 -92v-5q33 -8 56.5 -35t23.5 -60q0 -47 -39.5 -75.5t-85.5 -28.5q-45 0 -70 14.5t-25 37.5q0 11 7.5 19t20.5 8q17 0 34.5 -21t35.5 -21q19 0 35 16t16 46q0 23 -12.5 42t-27 26.5t-22.5 3.5 l-20 -11l-17 23q88 42 88 84q0 39 -41 39q-38 0 -71 -38l-15 17q54 73 121 73q32 0 53.5 -17t21.5 -45zM460 135l16 169h142l14 22h22l-13 -84h-133l-6 -54l5 -5q8 5 25 5q46 0 82.5 -30t36.5 -80q0 -55 -41.5 -90t-97.5 -35q-37 0 -58 11.5t-21 29.5q0 30 29 30 q13 0 36.5 -13.5t40.5 -13.5q47 0 47 59q0 34 -21 54.5t-51 20.5q-29 0 -44 -6z" />
<glyph d="M119 -54l241 370l223 353l40 -26l-234 -349l-231 -375zM275 578q0 -50 -67 -92v-5q33 -8 56.5 -35t23.5 -60q0 -47 -39.5 -75.5t-85.5 -28.5q-45 0 -70 14.5t-25 37.5q0 11 7.5 19t20.5 8q17 0 34.5 -21t35.5 -21q19 0 35 16t16 46q0 23 -12.5 42t-27 26.5t-22.5 3.5 l-20 -11l-17 23q88 42 88 84q0 39 -41 39q-38 0 -71 -38l-15 17q54 73 121 73q32 0 53.5 -17t21.5 -45zM685 304l10 -14q-85 -165 -120 -316q-6 -21 -40 -21q-22 0 -33 5t-7 16q42 116 137 263l-3 8h-125l-18 -43h-25l25 102h199z" />
<glyph d="M119 -54l241 370l223 353l40 -26l-234 -349l-231 -375zM275 578q0 -50 -67 -92v-5q33 -8 56.5 -35t23.5 -60q0 -47 -39.5 -75.5t-85.5 -28.5q-45 0 -70 14.5t-25 37.5q0 11 7.5 19t20.5 8q17 0 34.5 -21t35.5 -21q19 0 35 16t16 46q0 23 -12.5 42t-27 26.5t-22.5 3.5 l-20 -11l-17 23q88 42 88 84q0 39 -41 39q-38 0 -71 -38l-15 17q54 73 121 73q32 0 53.5 -17t21.5 -45zM448 38q0 57 66 92v5q-56 29 -56 82q0 39 29.5 66.5t78.5 27.5q44 0 72 -22.5t28 -56.5q0 -50 -59 -85v-4q32 -18 49 -37t17 -53q0 -46 -31.5 -73t-83.5 -27 q-48 0 -79 23.5t-31 61.5zM510 36q0 -21 12 -35t36 -14q23 0 37 14.5t14 38.5t-15.5 40.5t-45.5 34.5q-38 -25 -38 -79zM521 234q0 -45 55 -72q26 26 26 69q0 21 -11 33.5t-29 12.5q-20 0 -30.5 -13t-10.5 -30z" />
<glyph d="M119 -54l241 370l223 353l40 -26l-234 -349l-231 -375zM223 644l35 -9v-202h34v-44h-34v-100h-67v99h-132l-9 23zM191 533l-6 4l-74 -99l3 -5h77v100zM460 135l16 169h142l14 22h22l-13 -84h-133l-6 -54l5 -5q8 5 25 5q46 0 82.5 -30t36.5 -80q0 -55 -41.5 -90t-97.5 -35 q-37 0 -58 11.5t-21 29.5q0 30 29 30q13 0 36.5 -13.5t40.5 -13.5q47 0 47 59q0 34 -21 54.5t-51 20.5q-29 0 -44 -6z" />
<glyph d="M119 -54l241 370l223 353l40 -26l-234 -349l-231 -375zM223 644l35 -9v-202h34v-44h-34v-100h-67v99h-132l-9 23zM191 533l-6 4l-74 -99l3 -5h77v100zM685 304l10 -14q-85 -165 -120 -316q-6 -21 -40 -21q-22 0 -33 5t-7 16q42 116 137 263l-3 8h-125l-18 -43h-25l25 102 h199z" />
<glyph d="M119 -54l241 370l223 353l40 -26l-234 -349l-231 -375zM223 644l35 -9v-202h34v-44h-34v-100h-67v99h-132l-9 23zM191 533l-6 4l-74 -99l3 -5h77v100zM593 93l-9 4q-19 -17 -45 -17q-43 0 -73.5 29.5t-30.5 80.5q0 55 36.5 88t81.5 33q52 0 85 -39t33 -104 q0 -89 -55.5 -154.5t-145.5 -75.5v32q47 9 82 42t41 81zM594 148q6 15 6 55q0 33 -13 53t-36 20q-19 0 -31 -21t-12 -61q0 -76 43 -76q24 0 43 30z" />
<glyph d="M119 -54l241 370l223 353l40 -26l-234 -349l-231 -375zM95 464l16 169h142l14 22h22l-13 -84h-133l-6 -54l5 -5q8 5 25 5q46 0 82.5 -30t36.5 -80q0 -55 -41.5 -90t-97.5 -35q-37 0 -58 11.5t-21 29.5q0 30 29 30q13 0 36.5 -13.5t40.5 -13.5q47 0 47 59q0 34 -21 54.5 t-51 20.5q-29 0 -44 -6zM500 162l9 -4q19 21 50 21q36 0 66 -27t30 -78q0 -48 -30 -84.5t-91 -36.5q-51 0 -83 37.5t-32 105.5q0 76 50.5 141t136.5 92l10 -29q-102 -54 -116 -138zM497 113q-4 -12 -4 -46q0 -33 13 -55t30 -22q21 0 33 23.5t12 62.5q0 31 -12 47.5t-28 16.5 q-30 0 -44 -27z" />
<glyph d="M119 -54l241 370l223 353l40 -26l-234 -349l-231 -375zM95 464l16 169h142l14 22h22l-13 -84h-133l-6 -54l5 -5q8 5 25 5q46 0 82.5 -30t36.5 -80q0 -55 -41.5 -90t-97.5 -35q-37 0 -58 11.5t-21 29.5q0 30 29 30q13 0 36.5 -13.5t40.5 -13.5q47 0 47 59q0 34 -21 54.5 t-51 20.5q-29 0 -44 -6zM685 304l10 -14q-85 -165 -120 -316q-6 -21 -40 -21q-22 0 -33 5t-7 16q42 116 137 263l-3 8h-125l-18 -43h-25l25 102h199z" />
<glyph d="M119 -54l241 370l223 353l40 -26l-234 -349l-231 -375zM95 464l16 169h142l14 22h22l-13 -84h-133l-6 -54l5 -5q8 5 25 5q46 0 82.5 -30t36.5 -80q0 -55 -41.5 -90t-97.5 -35q-37 0 -58 11.5t-21 29.5q0 30 29 30q13 0 36.5 -13.5t40.5 -13.5q47 0 47 59q0 34 -21 54.5 t-51 20.5q-29 0 -44 -6zM448 38q0 57 66 92v5q-56 29 -56 82q0 39 29.5 66.5t78.5 27.5q44 0 72 -22.5t28 -56.5q0 -50 -59 -85v-4q32 -18 49 -37t17 -53q0 -46 -31.5 -73t-83.5 -27q-48 0 -79 23.5t-31 61.5zM510 36q0 -21 12 -35t36 -14q23 0 37 14.5t14 38.5t-15.5 40.5 t-45.5 34.5q-38 -25 -38 -79zM521 234q0 -45 55 -72q26 26 26 69q0 21 -11 33.5t-29 12.5q-20 0 -30.5 -13t-10.5 -30z" />
<glyph d="M119 -54l241 370l223 353l40 -26l-234 -349l-231 -375zM95 464l16 169h142l14 22h22l-13 -84h-133l-6 -54l5 -5q8 5 25 5q46 0 82.5 -30t36.5 -80q0 -55 -41.5 -90t-97.5 -35q-37 0 -58 11.5t-21 29.5q0 30 29 30q13 0 36.5 -13.5t40.5 -13.5q47 0 47 59q0 34 -21 54.5 t-51 20.5q-29 0 -44 -6zM593 93l-9 4q-19 -17 -45 -17q-43 0 -73.5 29.5t-30.5 80.5q0 55 36.5 88t81.5 33q52 0 85 -39t33 -104q0 -89 -55.5 -154.5t-145.5 -75.5v32q47 9 82 42t41 81zM594 148q6 15 6 55q0 33 -13 53t-36 20q-19 0 -31 -21t-12 -61q0 -76 43 -76 q24 0 43 30z" />
<glyph d="M119 -54l241 370l223 353l40 -26l-234 -349l-231 -375zM140 491l9 -4q19 21 50 21q36 0 66 -27t30 -78q0 -48 -30 -84.5t-91 -36.5q-51 0 -83 37.5t-32 105.5q0 76 50.5 141t136.5 92l10 -29q-102 -54 -116 -138zM137 442q-4 -12 -4 -46q0 -33 13 -55t30 -22 q21 0 33 23.5t12 62.5q0 31 -12 47.5t-28 16.5q-30 0 -44 -27zM685 304l10 -14q-85 -165 -120 -316q-6 -21 -40 -21q-22 0 -33 5t-7 16q42 116 137 263l-3 8h-125l-18 -43h-25l25 102h199z" />
<glyph d="M119 -54l241 370l223 353l40 -26l-234 -349l-231 -375zM321 633l10 -14q-85 -165 -120 -316q-6 -21 -40 -21q-22 0 -33 5t-7 16q42 116 137 263l-3 8h-125l-18 -43h-25l25 102h199zM448 38q0 57 66 92v5q-56 29 -56 82q0 39 29.5 66.5t78.5 27.5q44 0 72 -22.5t28 -56.5 q0 -50 -59 -85v-4q32 -18 49 -37t17 -53q0 -46 -31.5 -73t-83.5 -27q-48 0 -79 23.5t-31 61.5zM510 36q0 -21 12 -35t36 -14q23 0 37 14.5t14 38.5t-15.5 40.5t-45.5 34.5q-38 -25 -38 -79zM521 234q0 -45 55 -72q26 26 26 69q0 21 -11 33.5t-29 12.5q-20 0 -30.5 -13 t-10.5 -30z" />
<glyph d="M119 -54l241 370l223 353l40 -26l-234 -349l-231 -375zM321 633l10 -14q-85 -165 -120 -316q-6 -21 -40 -21q-22 0 -33 5t-7 16q42 116 137 263l-3 8h-125l-18 -43h-25l25 102h199zM593 93l-9 4q-19 -17 -45 -17q-43 0 -73.5 29.5t-30.5 80.5q0 55 36.5 88t81.5 33 q52 0 85 -39t33 -104q0 -89 -55.5 -154.5t-145.5 -75.5v32q47 9 82 42t41 81zM594 148q6 15 6 55q0 33 -13 53t-36 20q-19 0 -31 -21t-12 -61q0 -76 43 -76q24 0 43 30z" />
<glyph d="M119 -54l241 370l223 353l40 -26l-234 -349l-231 -375zM76 367q0 57 66 92v5q-56 29 -56 82q0 39 29.5 66.5t78.5 27.5q44 0 72 -22.5t28 -56.5q0 -50 -59 -85v-4q32 -18 49 -37t17 -53q0 -46 -31.5 -73t-83.5 -27q-48 0 -79 23.5t-31 61.5zM138 365q0 -21 12 -35t36 -14 q23 0 37 14.5t14 38.5t-15.5 40.5t-45.5 34.5q-38 -25 -38 -79zM149 563q0 -45 55 -72q26 26 26 69q0 22 -11 34t-29 12q-20 0 -30.5 -13t-10.5 -30zM593 93l-9 4q-19 -17 -45 -17q-43 0 -73.5 29.5t-30.5 80.5q0 55 36.5 88t81.5 33q52 0 85 -39t33 -104 q0 -89 -55.5 -154.5t-145.5 -75.5v32q47 9 82 42t41 81zM594 148q6 15 6 55q0 33 -13 53t-36 20q-19 0 -31 -21t-12 -61q0 -76 43 -76q24 0 43 30z" />
<glyph horiz-adv-x="632" d="M349 41q121 0 161 125h38v-117q-98 -62 -203 -62q-118 0 -197 72t-79 197q0 122 79.5 196.5t196.5 74.5q91 0 196 -56v-121h-38q-46 127 -158 127q-70 0 -118 -60t-48 -160q0 -93 53.5 -154.5t116.5 -61.5zM318 568v8l36 164h94v-10l-79 -162h-51z" />
<glyph horiz-adv-x="693" d="M498 177h12v278l-82 25v38h208v-38l-71 -25v-462h-30l-340 400h-12v-330l82 -25v-38h-201v38l64 25v402l-64 15v38h143zM320 568v8l36 164h94v-10l-79 -162h-51z" />
<glyph horiz-adv-x="678" d="M69 256q0 122 78 196.5t193 74.5q119 0 194 -73.5t75 -197.5q0 -128 -76.5 -198.5t-192.5 -70.5t-193.5 72t-77.5 197zM179 257q0 -101 46.5 -158.5t114.5 -57.5q70 0 115 52.5t45 163.5q0 105 -45 162.5t-115 57.5q-69 0 -115 -58t-46 -162zM309 568v8l36 164h94v-10 l-79 -162h-51z" />
<glyph horiz-adv-x="543" d="M90 2v172h48q15 -67 49 -102.5t85 -35.5q39 0 63.5 22.5t24.5 57.5q0 34 -22 57t-88 51q-76 33 -112 69.5t-36 88.5q0 56 45 100.5t119 44.5q37 0 96 -24l36 15h26l18 -157h-47q-18 58 -51 87t-74 29q-36 0 -57.5 -19.5t-21.5 -54.5q0 -31 27.5 -52.5t94.5 -47.5 q69 -27 102.5 -64t33.5 -95q0 -75 -49.5 -116t-127.5 -41q-57 0 -101 30l-43 -15h-38zM246 568v8l36 164h94v-10l-79 -162h-51z" />
<glyph horiz-adv-x="583" d="M493 0h-423l-10 20l312 437l-6 12h-186l-66 -107h-43l30 156h411l10 -15l-320 -444l5 -10h205l68 107h43zM276 568v8l36 164h94v-10l-79 -162h-51z" />
<glyph horiz-adv-x="632" d="M349 41q121 0 161 125h38v-117q-98 -62 -203 -62q-118 0 -197 72t-79 197q0 122 79.5 196.5t196.5 74.5q91 0 196 -56v-121h-38q-46 127 -158 127q-70 0 -118 -60t-48 -160q0 -93 53.5 -154.5t116.5 -61.5zM318 568v8l36 164h94v-10l-79 -162h-51z" />
<glyph horiz-adv-x="400" d="M79 518h242v-38l-71 -15v-412l71 -15v-38h-242v38l72 15v412l-72 15v38zM135 674q0 27 18.5 46t45.5 19t46.5 -19t19.5 -46t-19.5 -45.5t-46.5 -18.5t-45.5 18.5t-18.5 45.5z" />
<glyph horiz-adv-x="693" d="M498 177h12v278l-82 25v38h208v-38l-71 -25v-462h-30l-340 400h-12v-330l82 -25v-38h-201v38l64 25v402l-64 15v38h143zM320 568v8l36 164h94v-10l-79 -162h-51z" />
<glyph horiz-adv-x="678" d="M69 256q0 122 78 196.5t193 74.5q119 0 194 -73.5t75 -197.5q0 -128 -76.5 -198.5t-192.5 -70.5t-193.5 72t-77.5 197zM179 257q0 -101 46.5 -158.5t114.5 -57.5q70 0 115 52.5t45 163.5q0 105 -45 162.5t-115 57.5q-69 0 -115 -58t-46 -162zM309 568v8l36 164h94v-10 l-79 -162h-51z" />
<glyph horiz-adv-x="543" d="M90 2v172h48q15 -67 49 -102.5t85 -35.5q39 0 63.5 22.5t24.5 57.5q0 34 -22 57t-88 51q-76 33 -112 69.5t-36 88.5q0 56 45 100.5t119 44.5q37 0 96 -24l36 15h26l18 -157h-47q-18 58 -51 87t-74 29q-36 0 -57.5 -19.5t-21.5 -54.5q0 -31 27.5 -52.5t94.5 -47.5 q69 -27 102.5 -64t33.5 -95q0 -75 -49.5 -116t-127.5 -41q-57 0 -101 30l-43 -15h-38zM246 568v8l36 164h94v-10l-79 -162h-51z" />
<glyph horiz-adv-x="583" d="M493 0h-423l-10 20l312 437l-6 12h-186l-66 -107h-43l30 156h411l10 -15l-320 -444l5 -10h205l68 107h43zM276 568v8l36 164h94v-10l-79 -162h-51z" />
</font>
</defs>
</svg>
