<svg xmlns="http://www.w3.org/2000/svg" width="870" height="279"><rect width="100%" height="100%" fill="white"/><text x="12" y="25" font-family="system-ui" font-size="18" font-weight="600">Voisinage stylistique de Claude style Duras : 1 Yarros, 2 Duras, 3 IA, 4 Houellebecq, 5 Wintrebert</text><rect x="0" y="40" width="70" height="34" fill="#eee9e4" stroke="#cfc7c0"/><text x="8" y="62" font-family="system-ui" font-size="14" font-weight="600">Rang</text><rect x="70" y="40" width="420" height="34" fill="#eee9e4" stroke="#cfc7c0"/><text x="78" y="62" font-family="system-ui" font-size="14" font-weight="600">Œuvre</text><rect x="490" y="40" width="250" height="34" fill="#eee9e4" stroke="#cfc7c0"/><text x="498" y="62" font-family="system-ui" font-size="14" font-weight="600">Auteur</text><rect x="740" y="40" width="130" height="34" fill="#eee9e4" stroke="#cfc7c0"/><text x="748" y="62" font-family="system-ui" font-size="14" font-weight="600">Percentile</text><rect x="0" y="75" width="70" height="34" fill="white" stroke="#d8d1ca"/><text x="8" y="97" font-family="system-ui" font-size="14">1</text><rect x="70" y="75" width="420" height="34" fill="white" stroke="#d8d1ca"/><text x="78" y="97" font-family="system-ui" font-size="14">Fourth wing - Tome 1</text><rect x="490" y="75" width="250" height="34" fill="white" stroke="#d8d1ca"/><text x="498" y="97" font-family="system-ui" font-size="14">Rebecca Yarros</text><rect x="740" y="75" width="130" height="34" fill="white" stroke="#d8d1ca"/><text x="748" y="97" font-family="system-ui" font-size="14">73 %</text><rect x="0" y="109" width="70" height="34" fill="#faf8f6" stroke="#d8d1ca"/><text x="8" y="131" font-family="system-ui" font-size="14">2</text><rect x="70" y="109" width="420" height="34" fill="#faf8f6" stroke="#d8d1ca"/><text x="78" y="131" font-family="system-ui" font-size="14">L'Été 80</text><rect x="490" y="109" width="250" height="34" fill="#faf8f6" stroke="#d8d1ca"/><text x="498" y="131" font-family="system-ui" font-size="14">Marguerite Duras</text><rect x="740" y="109" width="130" height="34" fill="#faf8f6" stroke="#d8d1ca"/><text x="748" y="131" font-family="system-ui" font-size="14">73 %</text><rect x="0" y="143" width="70" height="34" fill="white" stroke="#d8d1ca"/><text x="8" y="165" font-family="system-ui" font-size="14">3</text><rect x="70" y="143" width="420" height="34" fill="white" stroke="#d8d1ca"/><text x="78" y="165" font-family="system-ui" font-size="14">Claude style Fourth Wing</text><rect x="490" y="143" width="250" height="34" fill="white" stroke="#d8d1ca"/><text x="498" y="165" font-family="system-ui" font-size="14">IA</text><rect x="740" y="143" width="130" height="34" fill="white" stroke="#d8d1ca"/><text x="748" y="165" font-family="system-ui" font-size="14">72 %</text><rect x="0" y="177" width="70" height="34" fill="#faf8f6" stroke="#d8d1ca"/><text x="8" y="199" font-family="system-ui" font-size="14">4</text><rect x="70" y="177" width="420" height="34" fill="#faf8f6" stroke="#d8d1ca"/><text x="78" y="199" font-family="system-ui" font-size="14">Extension du domaine de la lutte</text><rect x="490" y="177" width="250" height="34" fill="#faf8f6" stroke="#d8d1ca"/><text x="498" y="199" font-family="system-ui" font-size="14">Michel Houellebecq</text><rect x="740" y="177" width="130" height="34" fill="#faf8f6" stroke="#d8d1ca"/><text x="748" y="199" font-family="system-ui" font-size="14">71 %</text><rect x="0" y="211" width="70" height="34" fill="white" stroke="#d8d1ca"/><text x="8" y="233" font-family="system-ui" font-size="14">5</text><rect x="70" y="211" width="420" height="34" fill="white" stroke="#d8d1ca"/><text x="78" y="233" font-family="system-ui" font-size="14">Pollen</text><rect x="490" y="211" width="250" height="34" fill="white" stroke="#d8d1ca"/><text x="498" y="233" font-family="system-ui" font-size="14">Joëlle Wintrebert</text><rect x="740" y="211" width="130" height="34" fill="white" stroke="#d8d1ca"/><text x="748" y="233" font-family="system-ui" font-size="14">69 %</text></svg>